<?xml version="1.0" encoding="UTF-8"?>
<svg width="201px" height="201px" viewBox="0 0 201 201" version="1.1" xmlns="http://www.w3.org/2000/svg" xmlns:xlink="http://www.w3.org/1999/xlink">
    <!-- Generator: Sketch 40.3 (33839) - http://www.bohemiancoding.com/sketch -->
    <title>Activity</title>
    <desc>Created with Sketch.</desc>
    <defs></defs>
    <g id="Page-2" stroke="none" stroke-width="1" fill="none" fill-rule="evenodd">
        <g id="Activity">
            <g id="aktivitet" transform="translate(1.000000, 1.000000)">
                <polygon id="Shape" points="0 0 201 0 201 201 0 201"></polygon>
                <path d="M127.54275,103.11299 C141.336833,103.11299 152.5625,111.919786 152.5625,122.751304 C152.5625,128.295774 150.27175,131.389786 147.098417,135.171907 C146.994292,138.86492 146.855458,140.389649 147.787625,144.40939 C143.36975,142.894561 142.898708,142.449024 139.527042,140.384699 C135.094292,141.46389 132.144083,142.265858 127.30475,142.265858 C111.998375,142.265858 102.523,132.1373 102.523,122.751304 C102.523,111.919786 113.748667,103.11299 127.54275,103.11299 L127.54275,103.11299 Z M127.54275,95.6873608 C110.505917,95.6873608 95.0855,107.033722 95.0855,122.751304 C95.0855,136.607529 108.140792,149.691487 127.30475,149.691487 C130.770625,149.691487 134.44475,149.260801 138.277542,148.330122 C142.809458,151.107307 152.820333,153.914195 159.856208,155.186453 C157.228292,150.018215 154.31775,142.914363 154.461542,137.963944 C158.001792,133.741236 160,128.295774 160,122.751304 C160,107.117879 144.683708,95.6873608 127.54275,95.6873608 L127.54275,95.6873608 Z M85.4712917,118.528596 C79.8287083,117.98405 77.4834167,117.305843 72.5250833,116.097941 C67.7155,119.048391 66.2775833,120.132532 57.6104167,122.899817 C59.683,115.404882 59.41525,112.093051 59.2615417,107.142632 C55.1262917,102.192212 50.9166667,96.8952632 50.9166667,87.6231274 C50.9166667,70.2867582 68.712125,56.1780625 90.5833333,56.1780625 C111.725667,56.1780625 129.0005,69.3659802 130.140917,85.9003814 C133.601833,86.0884973 136.968542,86.5934401 140.161708,87.4597635 C140.052625,63.5294355 116.550125,46.2772235 90.5833333,46.2772235 C64.398375,46.2772235 41,63.7373532 41,87.6231274 C41,96.0883448 44.049375,104.41 49.4539583,110.865347 C49.687,118.424638 45.2344167,129.271007 41.2181667,137.166926 C51.9678333,135.231312 67.2593333,130.939298 74.186125,126.696789 C78.1627083,127.667071 82.010375,128.25122 85.7390417,128.548246 C85.0696667,124.840381 85.0052083,122.028543 85.4712917,118.528596 L85.4712917,118.528596 Z" id="Shape" fill="#000000"></path>
            </g>
        </g>
    </g>
</svg>