<?xml version="1.0" encoding="UTF-8"?>
<svg width="250px" height="250px" viewBox="0 0 250 250" version="1.1" xmlns="http://www.w3.org/2000/svg" xmlns:xlink="http://www.w3.org/1999/xlink">
    <!-- Generator: Sketch 40.3 (33839) - http://www.bohemiancoding.com/sketch -->
    <title>Artboard</title>
    <desc>Created with Sketch.</desc>
    <defs></defs>
    <g id="Page-1" stroke="none" stroke-width="1" fill="none" fill-rule="evenodd">
        <g id="Artboard">
            <g id="bankgiro" transform="translate(19.000000, 102.000000)">
                <g id="Page-1">
                    <g id="Desktop-HD-Copy-2">
                        <g id="Swish">
                            <g id="Group-18">
                                <g id="Group-17" transform="translate(0.000000, 0.695657)">
                                    <g id="logo-giro">
                                        <g id="Layer_1">
                                            <path d="M27.477,40.2588962 C27.477,40.2588962 27.477,45.545418 21.939,45.545418 L5.538,45.545418 C5.538,45.545418 0,45.545418 0,40.2588962 L0,5.28652174 C0,5.28652174 0,0 5.538,0 L22.152,0 C22.152,0 27.69,0 27.69,5.28652174 L27.69,40.2588962 L27.477,40.2588962 L27.477,40.2588962 Z" id="Shape" fill="#EE2D2E"></path>
                                            <path d="M20.022,10.7763712 C20.022,11.3863545 20.022,12.1996656 20.448,12.8096488 C21.513,14.2329431 22.152,16.062893 22.152,18.2994984 C22.152,23.1793645 18.531,27.042592 14.271,27.042592 L14.058,27.042592 L12.141,27.042592 C11.502,27.042592 10.437,27.4492475 10.437,27.4492475 C9.372,27.8559029 8.52,28.669214 8.52,29.482525 C8.52,30.7024917 9.585,31.3124749 11.289,31.3124749 C12.141,31.3124749 12.993,31.1091471 14.058,31.1091471 C15.123,30.9058194 16.401,30.9058194 17.679,30.9058194 C21.513,30.9058194 23.856,33.1424247 23.856,36.8023245 C23.856,41.0722073 20.874,43.5121404 15.549,43.5121404 C9.798,43.5121404 6.816,41.0722073 6.816,38.6322743 C6.816,36.8023245 8.094,35.9890134 9.798,35.5823578 C7.881,34.9723747 6.816,33.5490803 6.816,31.3124749 C6.816,29.8891806 7.455,28.2625585 8.307,27.6525752 C8.946,27.2459198 8.946,27.2459198 9.372,27.042592 C10.011,26.6359364 11.076,26.4326087 10.863,26.4326087 C10.437,26.4326087 10.437,26.4326087 10.863,26.4326087 L11.289,26.4326087 C8.094,25.2126421 6.603,21.959398 6.603,21.5527424 C6.603,21.146087 6.39,6.50648829 6.39,5.4898495 L6.39,5.08319397 C6.39,3.65989966 6.39,3.65989966 4.26,3.65989966 L2.982,3.65989966 L2.982,2.64326087 L3.195,2.64326087 C5.538,2.64326087 7.881,2.64326087 10.224,2.43993312 L10.437,2.43993312 L10.437,13.4196321 C11.289,11.3863545 12.78,10.3697157 14.91,10.3697157 C15.975,10.3697157 17.253,10.7763712 18.105,11.3863545 C18.105,11.3863545 18.744,11.79301 18.744,11.1830268 C18.744,9.55640468 20.022,8.13311037 21.726,8.13311037 C23.004,8.13311037 24.069,9.14974916 23.856,10.3697157 C23.856,11.3863545 23.217,11.9963378 22.152,11.9963378 C21.087,11.9963378 20.448,11.3863545 20.448,10.3697157 C20.448,10.166388 20.448,9.96306021 20.661,9.75973244 C20.661,9.35307693 20.022,9.75973244 20.022,10.7763712" id="Shape" fill="#FFFFFF"></path>
                                            <path d="M15.549,42.0888462 C19.596,42.0888462 21.939,40.6655519 21.939,38.2256187 C21.939,36.1923412 20.235,35.3790301 16.614,35.3790301 C12.141,35.3790301 10.011,36.3956689 10.011,38.6322743 C10.011,41.4788629 12.993,42.0888462 15.549,42.0888462 L15.549,42.0888462 L15.549,42.0888462 Z M14.484,11.1830268 C12.141,11.1830268 10.863,14.2329431 10.863,19.3161372 C10.863,23.9926756 11.715,26.0259531 14.058,26.0259531 C16.401,26.0259531 17.466,23.7893478 17.466,18.5028261 C17.466,13.6229599 16.401,11.1830268 14.484,11.1830268 L14.484,11.1830268 L14.484,11.1830268 Z M47.712,13.8262876 C45.156,13.8262876 43.452,15.0462542 42.387,17.6895151 L42.387,3.86322743 L41.961,3.86322743 C39.192,4.06655519 36.21,4.26988294 33.441,4.47321071 L33.228,4.47321071 L33.228,5.89650502 L34.932,5.89650502 C37.488,5.89650502 37.488,5.89650502 37.488,7.72645485 L37.488,8.13311037 C37.488,9.35307693 37.488,12.4029933 37.275,16.876204 L36.849,34.7690468 L38.34,34.7690468 C38.34,34.7690468 40.044,31.3124749 40.257,30.9058194 C41.748,33.3457526 43.878,34.5657191 46.647,34.5657191 C51.972,34.5657191 56.232,29.6858529 56.232,23.5860201 C56.232,18.2994984 52.398,13.8262876 47.712,13.8262876 L47.712,13.8262876 L47.712,13.8262876 Z M42.6,25.2126421 C42.6,18.7061538 44.091,15.0462542 47.073,15.0462542 C49.416,15.0462542 50.694,18.0961705 50.694,24.1960033 C50.694,30.7024917 49.416,33.5490803 46.647,33.5490803 C43.665,33.5490803 42.6,31.1091471 42.6,25.2126421 L42.6,25.2126421 L42.6,25.2126421 Z M77.958,25.0093143 L76.68,25.0093143 L76.68,25.4159699 C76.893,26.6359364 76.893,27.6525752 76.893,28.669214 C76.893,32.939097 75.615,32.939097 75.189,32.939097 C74.124,32.939097 73.698,31.5158027 73.698,27.042592 C73.698,24.1960033 73.911,21.959398 73.911,20.3327759 L73.911,18.0961705 C73.911,15.8595652 70.503,13.4196321 66.243,13.4196321 C61.77,13.4196321 59.001,16.4695486 59.001,19.3161372 C59.001,21.146087 60.066,22.1627257 61.557,22.1627257 C63.048,22.1627257 64.113,20.9427593 64.113,19.5194649 C64.113,18.2994984 63.261,17.4861873 61.983,17.2828596 C62.409,15.4529096 63.9,14.4362709 66.03,14.4362709 C68.373,14.4362709 69.225,15.4529096 69.225,18.9094816 C69.225,21.959398 69.012,22.7727091 64.113,22.9760368 C60.705,22.9760368 57.723,26.0259531 57.723,29.6858529 C57.723,32.7357692 59.64,34.5657191 63.048,34.5657191 C66.03,34.5657191 67.947,33.5490803 69.438,31.3124749 C70.077,33.3457526 71.781,34.5657191 73.911,34.5657191 C76.893,34.5657191 78.171,32.7357692 78.171,28.669214 C78.171,27.8559029 78.171,26.8392642 77.958,26.0259531 L77.958,25.0093143 L77.958,25.0093143 L77.958,25.0093143 Z M64.965,33.3457526 C63.474,33.3457526 62.622,31.9224582 62.622,29.0758696 C62.622,26.4326087 64.326,24.8059866 65.604,24.6026589 C66.882,24.3993312 68.16,24.1960033 69.012,23.3826922 L69.012,27.2459198 C69.012,31.5158027 66.882,33.3457526 64.965,33.3457526 L64.965,33.3457526 L64.965,33.3457526 Z" id="Shape" fill="#EE2D2E"></path>
                                            <path d="M102.453,33.1424247 C99.471,32.939097 99.471,32.939097 99.471,31.9224582 L99.471,30.7024917 L99.897,19.1128094 C99.897,16.876204 97.554,13.8262876 93.294,13.8262876 C90.312,13.8262876 88.395,15.0462542 87.117,17.8928428 C87.117,16.4695486 86.904,13.8262876 86.904,13.8262876 L86.691,13.8262876 C83.922,14.0296154 81.153,14.2329431 78.384,14.2329431 L77.958,14.2329431 L77.958,15.4529096 L78.81,15.4529096 C81.792,15.6562375 81.792,15.6562375 81.792,17.0795317 L81.792,20.3327759 C81.792,28.4658863 81.579,31.9224582 81.579,32.3291138 C81.579,32.7357692 80.94,32.7357692 79.662,32.939097 L77.958,33.1424247 L77.958,34.5657191 L80.514,34.3623913 L83.922,34.1590636 C85.839,34.1590636 87.756,34.1590636 89.673,34.3623913 L90.099,34.3623913 L90.099,32.939097 L89.886,32.939097 C88.395,32.7357692 87.543,32.7357692 87.117,32.5324415 C86.904,32.3291138 86.904,32.1257859 86.904,31.3124749 C86.904,20.3327759 87.543,15.2495819 91.803,15.2495819 C94.359,15.2495819 94.785,17.0795317 94.785,22.3660535 C94.785,30.0925084 94.572,32.1257859 94.572,32.5324415 C94.572,32.939097 92.655,32.939097 91.59,33.1424247 L91.377,33.1424247 L91.377,34.5657191 L94.146,34.3623913 L96.915,34.3623913 L100.962,34.5657191 L103.092,34.5657191 L103.092,33.1424247 L102.453,33.1424247 L102.453,33.1424247 L102.453,33.1424247 Z M125.883,33.3457526 C124.179,33.3457526 123.966,33.1424247 123.327,31.5158027 L123.114,31.1091471 C123.114,31.1091471 118.854,21.5527424 118.215,20.1294482 C118.428,19.9261205 119.493,18.7061538 119.493,18.7061538 C121.41,16.4695486 123.114,15.2495819 125.457,15.2495819 L125.883,15.2495819 L125.883,14.0296154 L125.67,14.0296154 C122.901,14.0296154 120.771,14.2329431 119.706,14.2329431 L115.02,14.2329431 L115.02,15.4529096 L115.233,15.4529096 C118.215,15.4529096 118.854,16.062893 118.854,16.876204 C118.854,17.6895151 118.002,18.7061538 116.724,19.9261205 C116.724,19.9261205 113.103,23.5860201 111.612,24.8059866 C111.612,23.3826922 111.399,3.86322743 111.399,3.86322743 L110.973,3.86322743 C108.204,4.06655519 105.435,4.26988294 102.24,4.26988294 L102.027,4.26988294 L102.453,5.69317725 L104.157,5.69317725 C106.5,5.89650502 106.713,5.89650502 106.713,7.11647157 L106.713,31.7191305 C106.713,32.939097 106.713,32.939097 104.796,33.1424247 L103.731,33.3457526 L103.731,34.5657191 L105.009,34.5657191 L108.843,34.3623913 L112.677,34.5657191 L114.807,34.5657191 L114.807,33.1424247 L113.742,33.1424247 C111.612,32.939097 111.612,32.939097 111.612,31.7191305 L111.612,26.4326087 L114.381,23.7893478 C114.807,24.3993312 118.002,31.9224582 118.002,31.9224582 C118.002,32.1257859 118.215,32.3291138 118.215,32.5324415 C118.215,32.939097 118.002,32.939097 116.511,33.1424247 L115.233,33.1424247 L115.233,34.5657191 L120.345,34.5657191 C122.049,34.5657191 123.966,34.5657191 125.883,34.7690468 L126.735,34.7690468 L126.735,33.5490803 L126.522,33.5490803 L125.883,33.3457526 L125.883,33.3457526 L125.883,33.3457526 Z M139.515,30.0925084 C138.024,30.0925084 136.746,30.2958361 135.468,30.2958361 C134.403,30.4991638 133.338,30.4991638 132.273,30.4991638 C130.356,30.4991638 129.078,29.6858529 129.078,28.4658863 C129.078,27.4492475 129.93,26.6359364 131.421,26.229281 C132.486,26.6359364 134.19,27.2459198 136.746,27.2459198 C141.645,27.2459198 145.053,24.6026589 145.053,20.7394314 C145.053,18.2994984 143.775,16.2662207 141.432,14.6395987 C141.006,13.8262876 141.006,13.2163043 141.006,12.4029933 C141.006,11.3863545 141.432,10.979699 142.071,10.7763712 L142.071,11.3863545 C142.071,12.4029933 142.71,13.2163043 143.988,13.2163043 C145.053,13.2163043 145.692,12.4029933 145.692,11.3863545 C145.692,9.96306021 144.627,8.9464214 143.136,8.9464214 C141.219,8.9464214 139.941,10.3697157 139.941,12.4029933 C139.941,13.0129766 140.154,13.4196321 140.154,13.8262876 C139.089,13.4196321 138.024,13.2163043 136.746,13.2163043 C131.634,13.2163043 127.8,16.4695486 127.8,20.7394314 C127.8,22.5693812 128.652,24.1960033 130.143,25.2126421 C128.226,26.4326087 127.374,28.0592308 127.374,30.0925084 C127.374,32.3291138 128.439,33.9557357 130.782,34.5657191 C128.865,35.1757024 127.374,35.9890134 127.374,37.8189633 C127.374,40.4622241 130.782,42.9021571 137.385,42.9021571 C143.562,42.9021571 146.97,40.4622241 146.97,35.7856856 C146.757,32.5324415 143.988,30.0925084 139.515,30.0925084 L139.515,30.0925084 L139.515,30.0925084 Z M138.237,35.1757024 C142.284,35.1757024 144.414,36.1923412 144.414,38.2256187 C144.414,40.8688796 141.645,42.2921739 137.172,42.2921739 C134.19,42.2921739 130.782,41.6821906 130.782,38.6322743 C130.782,36.1923412 133.338,35.1757024 138.237,35.1757024 L138.237,35.1757024 L138.237,35.1757024 Z M133.125,20.7394314 C133.125,17.0795317 134.403,14.8429264 136.746,14.8429264 C139.515,14.8429264 140.154,18.0961705 140.154,20.7394314 C140.154,24.3993312 139.089,26.229281 136.746,26.229281 C134.403,26.229281 133.125,24.1960033 133.125,20.7394314 L133.125,20.7394314 L133.125,20.7394314 Z M159.324,33.1424247 C158.472,33.1424247 156.768,32.7357692 156.555,32.5324415 C156.342,32.3291138 156.342,30.2958361 156.342,27.4492475 C156.342,25.6192977 156.555,20.9427593 156.768,14.0296154 L156.768,13.6229599 L156.342,13.6229599 C153.573,13.8262876 150.591,14.0296154 147.822,14.2329431 L147.609,14.2329431 L147.609,15.4529096 L149.1,15.4529096 C151.443,15.4529096 151.443,15.4529096 151.443,17.0795317 L151.443,23.5860201 C151.443,29.2791973 151.23,32.3291138 151.017,32.5324415 C151.017,32.939097 149.526,32.939097 147.822,33.1424247 L147.609,33.1424247 L147.609,34.5657191 L149.313,34.5657191 C151.23,34.5657191 152.721,34.3623913 153.999,34.3623913 L159.537,34.3623913 L159.537,33.1424247 L159.324,33.1424247 L159.324,33.1424247 L159.324,33.1424247 Z M174.021,13.8262876 C171.678,13.8262876 170.187,15.6562375 169.122,19.5194649 L169.122,13.8262876 L168.696,13.8262876 C165.927,14.0296154 163.158,14.2329431 160.602,14.2329431 L160.389,14.2329431 L160.389,15.4529096 L161.241,15.4529096 C164.01,15.6562375 164.01,15.6562375 164.01,17.0795317 L164.01,20.3327759 C164.01,27.4492475 163.797,31.5158027 163.797,32.3291138 C163.797,32.7357692 163.158,32.7357692 161.88,32.939097 L160.602,33.1424247 L160.602,34.5657191 L166.14,34.5657191 C167.418,34.5657191 169.761,34.5657191 173.169,34.7690468 L173.382,34.7690468 L173.382,33.3457526 L171.891,33.1424247 C169.122,32.939097 169.122,32.939097 169.122,31.5158027 C169.122,19.9261205 170.613,14.8429264 174.021,14.8429264 L174.234,14.8429264 C174.234,14.8429264 174.021,15.0462542 173.808,15.0462542 C173.169,15.4529096 172.317,15.8595652 172.317,17.4861873 C172.317,18.9094816 173.382,20.1294482 174.66,20.1294482 C176.364,20.1294482 177.429,18.9094816 177.429,17.0795317 C177.429,15.0462542 175.938,13.8262876 174.021,13.8262876 L174.021,13.8262876 L174.021,13.8262876 Z M187.866,13.6229599 C182.115,13.6229599 177.642,18.2994984 177.642,24.6026589 C177.642,30.7024917 181.902,35.1757024 187.44,35.1757024 C192.978,35.1757024 197.451,30.4991638 197.451,24.6026589 C197.451,18.2994984 193.404,13.6229599 187.866,13.6229599 L187.866,13.6229599 L187.866,13.6229599 Z M191.913,24.8059866 C191.913,30.4991638 190.209,33.9557357 187.44,33.9557357 C183.819,33.9557357 183.18,29.0758696 183.18,24.8059866 C183.18,18.0961705 184.671,14.8429264 187.653,14.8429264 C190.422,14.8429264 191.913,18.2994984 191.913,24.8059866 L191.913,24.8059866 L191.913,24.8059866 Z M212.787,23.1793645 L212.787,22.9760368 L211.722,22.9760368 L211.722,23.3826922 C211.722,25.4159699 211.935,27.042592 211.935,28.4658863 C211.935,32.1257859 211.083,33.752408 208.953,33.752408 C207.036,33.752408 206.397,32.5324415 206.397,29.2791973 L206.397,16.062893 L212.574,16.062893 L212.574,14.2329431 L206.397,14.2329431 L206.397,4.87986622 L205.332,4.87986622 L205.332,5.08319397 C204.48,11.79301 202.35,14.4362709 197.025,15.0462542 L196.812,15.0462542 L196.812,16.2662207 L201.285,16.2662207 C201.285,16.876204 200.859,31.1091471 200.859,31.1091471 C200.859,33.1424247 203.415,35.3790301 207.249,35.3790301 C211.296,35.3790301 213,33.5490803 213,28.669214 C213,26.6359364 213,25.0093143 212.787,23.1793645 L212.787,23.1793645 L212.787,23.1793645 Z M153.786,3.86322743 C155.49,3.86322743 156.981,5.08319397 156.981,6.91314381 C156.981,8.74309365 155.49,10.166388 153.786,10.166388 C152.295,10.166388 150.591,8.74309365 150.591,7.11647157 C150.591,5.4898495 152.082,3.86322743 153.786,3.86322743 L153.786,3.86322743 L153.786,3.86322743 Z" id="Shape" fill="#EE2D2E"></path>
                                        </g>
                                    </g>
                                </g>
                            </g>
                        </g>
                    </g>
                </g>
            </g>
        </g>
    </g>
</svg>