<?xml version="1.0" encoding="UTF-8"?>
<svg width="63px" height="47px" viewBox="0 0 63 47" version="1.1" xmlns="http://www.w3.org/2000/svg" xmlns:xlink="http://www.w3.org/1999/xlink">
    <!-- Generator: Sketch 40.3 (33839) - http://www.bohemiancoding.com/sketch -->
    <title>Page 1</title>
    <desc>Created with Sketch.</desc>
    <defs></defs>
    <g id="Page-1" stroke="none" stroke-width="1" fill="none" fill-rule="evenodd">
        <g id="skiss-startsida-copy-3" transform="translate(-743.000000, -510.000000)" fill="#FFFFFF">
            <g id="CONTENT" transform="translate(-3.000000, 118.000000)">
                <g id="1" transform="translate(1.000000, 0.000000)">
                    <g id="Doodles" transform="translate(2.000000, 29.000000)">
                        <g id="Page-1" transform="translate(743.000000, 363.000000)">
                            <path d="M29.6559,21.7479 C31.1539,22.2749 32.6079,22.2229 34.0179,21.5919 C38.6759,20.2559 40.0799,22.3929 38.2269,28.0029 C36.3049,29.7119 32.3709,29.9599 29.9989,29.9399 C24.9419,29.8959 16.8919,27.4179 15.8599,21.4839 C14.5959,14.2149 25.1819,14.3169 29.4949,14.0429 C34.5079,13.7229 39.7909,13.1809 44.8089,13.5579 C52.2679,14.1169 55.4859,20.1419 52.0759,26.7309 C49.9429,30.8509 45.8969,34.0609 41.9019,36.2439 C33.5249,40.8209 22.8789,41.5969 14.1489,37.5159 C3.5779,32.5749 -1.6961,18.8599 9.0319,10.9879 C16.5749,5.4519 27.7559,3.5929 36.8459,3.0869 C46.2939,2.5609 60.5989,5.7869 59.6849,18.1279 C58.8809,28.9899 47.6079,34.2239 38.9899,38.1139 C37.2339,38.9069 38.7569,41.4929 40.5049,40.7039 C50.6159,36.1399 63.7389,29.0129 62.6459,15.9029 C61.6539,4.0139 48.7249,-0.2481 38.5629,0.0109 C27.3039,0.2979 11.4929,2.6449 3.7189,11.8419 C-3.7351,20.6609 0.8959,32.9259 9.8419,38.5789 C19.6209,44.7589 32.6649,44.4029 42.7479,39.1799 C50.7279,35.0459 60.9099,24.6999 54.6519,15.1129 C51.6399,10.4999 46.2799,10.5029 41.3329,10.5739 C34.4899,10.6729 26.6049,10.2199 19.9769,12.2449 C9.5639,15.4259 11.9849,26.5569 20.4369,30.6889 C25.8039,33.3119 32.8389,33.8919 38.3529,31.3209 C42.1509,29.5489 45.4459,25.2729 42.5209,21.2479 C39.6349,17.2789 33.3089,17.8969 29.4599,19.9039 C27.1789,21.0939 26.2229,24.5689 29.6559,24.7479 C31.5849,24.8489 31.5799,21.8479 29.6559,21.7479" id="Fill-1"></path>
                            <path d="M5.6246,23.8327 C7.5546,23.8327 7.5586,20.8327 5.6246,20.8327 C3.6946,20.8327 3.6906,23.8327 5.6246,23.8327" id="Fill-3"></path>
                            <path d="M16.6246,9.8327 L15.6246,9.8327 C14.8396,9.8327 14.0886,10.5227 14.1246,11.3327 C14.1606,12.1457 14.7836,12.8327 15.6246,12.8327 L16.6246,12.8327 C17.4096,12.8327 18.1606,12.1427 18.1246,11.3327 C18.0886,10.5197 17.4656,9.8327 16.6246,9.8327" id="Fill-5"></path>
                            <path d="M21.6246,20.8327 C23.5546,20.8327 23.5586,17.8327 21.6246,17.8327 C19.6946,17.8327 19.6906,20.8327 21.6246,20.8327" id="Fill-7"></path>
                            <path d="M35.6246,7.8327 C37.5546,7.8327 37.5586,4.8327 35.6246,4.8327 C33.6946,4.8327 33.6906,7.8327 35.6246,7.8327" id="Fill-9"></path>
                            <path d="M45.6246,22.8327 C47.5546,22.8327 47.5586,19.8327 45.6246,19.8327 C43.6946,19.8327 43.6906,22.8327 45.6246,22.8327" id="Fill-11"></path>
                            <path d="M22.6246,35.8327 C24.5546,35.8327 24.5586,32.8327 22.6246,32.8327 C20.6946,32.8327 20.6906,35.8327 22.6246,35.8327" id="Fill-13"></path>
                            <path d="M12.6246,28.8327 C14.5546,28.8327 14.5586,25.8327 12.6246,25.8327 C10.6946,25.8327 10.6906,28.8327 12.6246,28.8327" id="Fill-15"></path>
                            <path d="M1.9244,31.3963 C5.6514,36.8393 9.7364,42.6723 16.1124,45.1933 C22.1264,47.5713 29.2584,47.0603 35.4804,45.7933 C41.7534,44.5153 47.7854,41.9163 52.9024,38.0573 C57.5384,34.5593 63.5254,29.1243 61.8824,22.7243 C61.3504,20.6513 58.1384,21.5303 58.6724,23.6093 C59.6264,27.3283 55.8934,31.0283 53.4634,33.2733 C51.5214,35.0673 49.3644,36.6283 47.0714,37.9433 C42.7594,40.4153 37.9794,42.0443 33.0824,42.8643 C27.9514,43.7243 22.1184,43.9943 17.2344,42.0033 C11.6324,39.7203 8.0954,34.5313 4.7984,29.7163 C3.5954,27.9593 0.7094,29.6223 1.9244,31.3963" id="Fill-17"></path>
                        </g>
                    </g>
                </g>
            </g>
        </g>
    </g>
</svg>