<?xml version="1.0" encoding="UTF-8"?>
<svg width="41px" height="41px" viewBox="0 0 41 41" version="1.1" xmlns="http://www.w3.org/2000/svg" xmlns:xlink="http://www.w3.org/1999/xlink">
    <!-- Generator: Sketch 40.3 (33839) - http://www.bohemiancoding.com/sketch -->
    <title>Instagram</title>
    <desc>Created with Sketch.</desc>
    <defs></defs>
    <g id="Page-1" stroke="none" stroke-width="1" fill="none" fill-rule="evenodd">
        <g id="Alternativ-2--&gt;-KB" transform="translate(-963.000000, -4888.000000)">
            <g id="FOOTER-VI-ÄR-KOMPISBYRÅN" transform="translate(0.000000, 4485.000000)">
                <g id="Ikoner" transform="translate(858.000000, 403.000000)">
                    <g id="Instagram" transform="translate(105.000000, 0.000000)">
                        <ellipse id="Oval-2-Copy-2" fill="#FFFFFF" cx="20.56" cy="20.5" rx="20.44" ry="20.5"></ellipse>
                        <path d="M20.5600232,8.78571429 C17.3879025,8.78571429 16.9901471,8.79919927 15.7443509,8.85620818 C14.5011511,8.9130776 13.6520902,9.1111208 12.9091562,9.40072237 C12.1410929,9.70004242 11.4897274,10.1005928 10.8403556,10.7518243 C10.1910301,11.4031024 9.79165205,12.0563799 9.49320806,12.8266977 C9.2044541,13.5718126 9.00699054,14.4233658 8.95028757,15.670215 C8.89344551,16.9196681 8.88,17.318591 8.88,20.5000232 C8.88,23.681409 8.89344551,24.0803319 8.95028757,25.329785 C9.00699054,26.5766342 9.2044541,27.4281874 9.49320806,28.1733023 C9.79165205,28.9436201 10.1910301,29.5968976 10.8403556,30.2481757 C11.4897274,30.8994072 12.1410929,31.2999576 12.9091562,31.5993241 C13.6520902,31.8888792 14.5011511,32.0869224 15.7443509,32.1437918 C16.9901471,32.2008007 17.3879025,32.2142857 20.5600232,32.2142857 C23.7320975,32.2142857 24.1298529,32.2008007 25.3756491,32.1437918 C26.6188489,32.0869224 27.4679098,31.8888792 28.2108438,31.5993241 C28.9789071,31.2999576 29.6302726,30.8994072 30.2796444,30.2481757 C30.9289699,29.5968976 31.328348,28.9436201 31.6268383,28.1733023 C31.9155459,27.4281874 32.1130095,26.5766342 32.1697124,25.329785 C32.2265545,24.0803319 32.24,23.681409 32.24,20.5000232 C32.24,17.318591 32.2265545,16.9196681 32.1697124,15.670215 C32.1130095,14.4233658 31.9155459,13.5718126 31.6268383,12.8266977 C31.328348,12.0563799 30.9289699,11.4031024 30.2796444,10.7518243 C29.6302726,10.1005928 28.9789071,9.70004242 28.2108438,9.40072237 C27.4679098,9.1111208 26.6188489,8.9130776 25.3756491,8.85620818 C24.1298529,8.79919927 23.7320975,8.78571429 20.5600232,8.78571429 Z M20.5600232,10.8963926 C23.6786864,10.8963926 24.0481134,10.9083431 25.2797223,10.964701 C26.4185108,11.0167809 27.0369579,11.2076167 27.4485297,11.3680414 C27.993722,11.5805461 28.3828073,11.8343892 28.7915045,12.2443326 C29.200248,12.6542295 29.4533482,13.0444569 29.6652309,13.5912496 C29.8251861,14.0040295 30.0154633,14.624292 30.0673908,15.7664233 C30.1235837,17.0016475 30.1354993,17.3721589 30.1354993,20.5000232 C30.1354993,23.6278411 30.1235837,23.9983525 30.0673908,25.2335767 C30.0154633,26.375708 29.8251861,26.9959705 29.6652309,27.4087504 C29.4533482,27.9555431 29.200248,28.3457705 28.7915045,28.7556674 C28.3828073,29.1656108 27.993722,29.4194539 27.4485297,29.6319586 C27.0369579,29.7923833 26.4185108,29.9832191 25.2797223,30.035299 C24.0482989,30.0916569 23.6789182,30.1036074 20.5600232,30.1036074 C17.4410818,30.1036074 17.0717475,30.0916569 15.8402777,30.035299 C14.7014892,29.9832191 14.0830421,29.7923833 13.6714703,29.6319586 C13.126278,29.4194539 12.7371927,29.1656108 12.3284955,28.7556674 C11.9197983,28.3457705 11.6666518,27.9555431 11.4547691,27.4087504 C11.2948139,26.9959705 11.1045367,26.375708 11.0526092,25.2335767 C10.9964163,23.9983525 10.9845007,23.6278411 10.9845007,20.5000232 C10.9845007,17.3721589 10.9964163,17.0016475 11.0526092,15.7664233 C11.1045367,14.624292 11.2948139,14.0040295 11.4547691,13.5912496 C11.6666518,13.0444569 11.919752,12.6542295 12.3284955,12.2443326 C12.7371927,11.8343892 13.126278,11.5805461 13.6714703,11.3680414 C14.0830421,11.2076167 14.7014892,11.0167809 15.8402777,10.964701 C17.0718866,10.9083431 17.4413136,10.8963926 20.5600232,10.8963926 Z M20.5600232,14.4845598 C17.2474664,14.4845598 14.5621659,17.1777427 14.5621659,20.5000232 C14.5621659,23.8222573 17.2474664,26.5154402 20.5600232,26.5154402 C23.8725336,26.5154402 26.5578341,23.8222573 26.5578341,20.5000232 C26.5578341,17.1777427 23.8725336,14.4845598 20.5600232,14.4845598 Z M20.5600232,24.4047619 C18.4097613,24.4047619 16.6666667,22.6565505 16.6666667,20.5000232 C16.6666667,18.3434495 18.4097613,16.5952381 20.5600232,16.5952381 C22.7102387,16.5952381 24.4533333,18.3434495 24.4533333,20.5000232 C24.4533333,22.6565505 22.7102387,24.4047619 20.5600232,24.4047619 Z M28.1964247,14.2468986 C28.1964247,15.0232614 27.5688902,15.6525915 26.7947996,15.6525915 C26.0207554,15.6525915 25.393221,15.0232614 25.393221,14.2468986 C25.393221,13.4705358 26.0207554,12.8411592 26.7947996,12.8411592 C27.5688902,12.8411592 28.1964247,13.4705358 28.1964247,14.2468986 Z" fill-opacity="0.698794158" fill="#000000"></path>
                    </g>
                </g>
            </g>
        </g>
    </g>
</svg>