<?xml version="1.0" encoding="UTF-8"?>
<svg width="74px" height="82px" viewBox="0 0 74 82" version="1.1" xmlns="http://www.w3.org/2000/svg" xmlns:xlink="http://www.w3.org/1999/xlink">
    <!-- Generator: Sketch 40.3 (33839) - http://www.bohemiancoding.com/sketch -->
    <title>Page 1</title>
    <desc>Created with Sketch.</desc>
    <defs>
        <polygon id="path-1" points="28.246 28.7418419 28.246 0.776617036 0.831823585 0.776617036 0.831823585 28.7418419 28.246 28.7418419"></polygon>
        <polygon id="path-3" points="16.5768643 0.563 0.701774269 0.563 0.701774269 23.5674915 16.5768643 23.5674915 16.5768643 0.563"></polygon>
    </defs>
    <g id="Page-1" stroke="none" stroke-width="1" fill="none" fill-rule="evenodd">
        <g id="Alternativ-2--&gt;-KB" transform="translate(-1230.000000, -236.000000)">
            <g id="1" transform="translate(0.000000, 120.000000)">
                <g id="Page-1" transform="translate(1230.000000, 115.000000)">
                    <path d="M38.9089,42.0767 C38.2309,49.7537 35.2489,56.7267 30.3289,62.6447 C29.1039,64.1187 31.2149,66.2527 32.4509,64.7657 C37.9129,58.1947 41.1559,50.6017 41.9089,42.0767 C42.0789,40.1537 39.0779,40.1657 38.9089,42.0767" id="Fill-1" fill="#FFFFFF"></path>
                    <path d="M43.2373,42.0767 C42.5593,49.7537 39.5773,56.7267 34.6573,62.6447 C33.4323,64.1187 35.5433,66.2527 36.7793,64.7657 C42.2413,58.1947 45.4843,50.6017 46.2373,42.0767 C46.4073,40.1537 43.4063,40.1657 43.2373,42.0767" id="Fill-3" fill="#FFFFFF"></path>
                    <path d="M2.8786,69.1318 C3.5816,68.1868 15.2376,71.4248 16.6956,71.6238 C21.5866,72.2908 26.5216,72.6168 31.4586,72.5758 C41.3376,72.4928 51.1146,70.9298 60.5716,68.0958 C59.9556,67.4808 59.3406,66.8658 58.7256,66.2508 C56.9266,72.7638 49.4536,72.0108 44.5406,74.3228 C42.6536,75.2108 41.6116,76.1948 42.0296,78.3028 C42.4046,80.1948 45.2966,79.3938 44.9226,77.5048 C44.9026,77.4048 55.4626,74.1058 56.6326,73.3988 C59.1276,71.8918 60.8386,69.8728 61.6186,67.0488 C61.9186,65.9648 60.8756,64.8728 59.7736,65.2028 C48.5066,68.5798 36.8246,70.0648 25.0686,69.4248 C19.1316,69.1018 13.2346,68.2438 7.4546,66.8458 C4.7176,66.1838 2.1746,65.0808 0.2886,67.6178 C-0.8644,69.1678 1.7376,70.6648 2.8786,69.1318" id="Fill-5" fill="#FFFFFF"></path>
                    <path d="M0.4514,68.3924 C1.1424,71.2454 3.0494,73.3484 5.5454,74.8274 C6.6854,75.5024 17.0994,78.9854 17.1474,78.8494 C16.5024,80.6724 19.3994,81.4564 20.0404,79.6464 C21.1014,76.6514 17.4394,75.5914 15.2504,74.9754 C10.8514,73.7374 4.6194,72.8604 3.3444,67.5944 C2.8904,65.7194 -0.0036,66.5134 0.4514,68.3924" id="Fill-7" fill="#FFFFFF"></path>
                    <path d="M55.943,37.796 C57.662,37.425 63.273,35.839 64.757,37.409 C66.459,39.211 62.689,43.774 61.619,44.939 C58.493,48.346 54.332,50.313 49.803,51.01 C47.901,51.303 48.709,54.194 50.601,53.903 C57.742,52.804 64.428,48.332 67.364,41.587 C71.168,32.851 60.548,33.738 55.145,34.903 C53.259,35.31 54.057,38.203 55.943,37.796" id="Fill-9" fill="#FFFFFF"></path>
                    <g id="Group-13" transform="translate(45.000000, 29.437300)">
                        <mask id="mask-2" fill="white">
                            <use xlink:href="#path-1"></use>
                        </mask>
                        <g id="Clip-12"></g>
                        <path d="M11.9175,5.1787 C15.9955,4.2357 26.2855,1.3947 24.5225,9.9697 C23.8485,13.2457 21.3915,16.4177 19.0035,18.6027 C14.3195,22.8907 8.0815,24.8927 1.9175,25.8297 C0.0155,26.1187 0.8235,29.0097 2.7155,28.7217 C12.2705,27.2697 22.1925,22.7877 26.3805,13.5107 C27.9205,10.0997 29.7675,5.0287 26.1625,2.3277 C22.2805,-0.5823 15.3095,1.3167 11.1195,2.2857 C9.2395,2.7207 10.0355,5.6137 11.9175,5.1787" id="Fill-11" fill="#FFFFFF" mask="url(#mask-2)"></path>
                    </g>
                    <path d="M21.6383,64.4736 C21.6653,64.2686 21.6913,64.0636 21.7173,63.8596 C20.8643,64.2126 20.0103,64.5666 19.1573,64.9196 C21.7603,67.4776 26.2953,67.4746 29.7383,67.6276 C33.7723,67.8066 37.6783,67.1576 41.0983,64.9296 C42.3913,64.0876 41.8183,62.2566 40.3413,62.1346 C40.0283,62.1086 39.7153,62.0826 39.4013,62.0566 C37.4773,61.8966 37.4883,64.8976 39.4013,65.0566 C39.7153,65.0826 40.0283,65.1086 40.3413,65.1346 C40.0893,64.2026 39.8373,63.2706 39.5843,62.3396 C36.9953,64.0256 34.1993,64.6256 31.1333,64.6636 C28.4803,64.6956 23.2443,64.7306 21.2783,62.7986 C20.2623,61.7996 18.8773,62.6306 18.7173,63.8596 C18.6913,64.0636 18.6653,64.2686 18.6383,64.4736 C18.3913,66.3826 21.3933,66.3646 21.6383,64.4736" id="Fill-14" fill="#FFFFFF"></path>
                    <path d="M19.2618,64.3965 C26.4038,67.2025 34.0308,67.3755 41.3078,64.9645 C43.1318,64.3595 42.3498,61.4615 40.5098,62.0715 C33.6728,64.3375 26.7578,64.1355 20.0598,61.5035 C18.2618,60.7975 17.4818,63.6975 19.2618,64.3965" id="Fill-16" fill="#FFFFFF"></path>
                    <path d="M55.051,28.5355 C53.073,41.3835 48.525,52.8225 39.765,62.5705 C38.478,64.0035 40.592,66.1315 41.886,64.6915 C50.99,54.5605 55.884,42.7165 57.944,29.3335 C58.235,27.4445 55.344,26.6305 55.051,28.5355" id="Fill-18" fill="#FFFFFF"></path>
                    <path d="M3.8686,29.8107 C9.0406,41.8037 9.1396,56.8157 20.2756,65.2987 C21.8106,66.4677 23.3066,63.8637 21.7896,62.7077 C11.5086,54.8757 11.2646,39.4397 6.4586,28.2967 C5.6966,26.5287 3.1116,28.0547 3.8686,29.8107" id="Fill-20" fill="#FFFFFF"></path>
                    <g id="Group-24" transform="translate(22.000000, 0.437300)">
                        <mask id="mask-4" fill="white">
                            <use xlink:href="#path-3"></use>
                        </mask>
                        <g id="Clip-23"></g>
                        <path d="M6.6349,21.689 C6.4729,20.869 6.2009,20.303 5.7229,19.617 C5.4899,19.282 4.6819,18.738 4.5939,18.372 C4.2819,17.08 5.7619,16.303 6.5199,15.831 C8.7529,14.444 11.2539,13.912 13.2989,12.074 C16.5039,9.195 18.2169,4.036 14.3629,0.921 C12.8739,-0.282 10.7389,1.828 12.2409,3.042 C16.2529,6.284 11.1309,10.34 8.3829,11.785 C6.4919,12.779 3.9449,13.081 2.2399,14.413 C-1.7221,17.508 3.1519,19.492 3.7419,22.487 C4.1149,24.379 7.0069,23.578 6.6349,21.689" id="Fill-22" fill="#FFFFFF" mask="url(#mask-4)"></path>
                    </g>
                    <path d="M30.7107,20.4574 C30.5387,20.4924 30.3657,20.5284 30.1937,20.5634 C30.7577,20.7934 31.3227,21.0234 31.8867,21.2524 C30.7997,19.6574 40.1017,17.3384 41.2517,16.8184 C43.2187,15.9294 45.2377,14.5124 45.8637,12.3254 C47.4367,6.8384 40.3177,3.0014 36.1227,1.8334 C34.2607,1.3154 33.4657,4.2084 35.3257,4.7264 C38.0977,5.4984 45.8717,9.1704 41.9717,12.9254 C40.0487,14.7774 36.8757,14.9564 34.4807,15.7754 C31.7917,16.6944 26.9517,19.3274 29.2967,22.7674 C29.6967,23.3534 30.2977,23.5984 30.9907,23.4564 L31.5087,23.3504 C33.3987,22.9634 32.5987,20.0704 30.7107,20.4574" id="Fill-25" fill="#FFFFFF"></path>
                    <path d="M54.8662,28.5315 C54.7512,28.8415 47.1492,29.3835 46.1632,29.4585 C41.3772,29.8205 36.5732,29.9475 31.7742,29.9655 C26.5862,29.9845 21.3902,29.8735 16.2142,29.5095 C14.0882,29.3595 11.9452,29.2035 9.8392,28.8665 C8.7942,28.6985 6.8122,27.8225 6.8122,28.9305 C6.8122,30.0875 8.3642,29.2455 9.3782,29.0705 C11.3922,28.7235 13.4472,28.5585 15.4842,28.4025 C20.5832,28.0125 25.7102,27.8895 30.8232,27.8915 C35.6952,27.8925 40.5722,28.0095 45.4332,28.3515 C46.6082,28.4335 54.7242,28.9435 54.8662,29.3295 C55.5292,31.1255 58.4292,30.3485 57.7592,28.5315 C56.8982,26.1985 53.2262,26.1725 51.1822,25.9025 C43.8332,24.9315 36.3212,24.8425 28.9212,24.8985 C22.6512,24.9455 16.2862,25.0775 10.0662,25.9555 C8.4702,26.1815 3.8342,26.3735 3.8342,28.9305 C3.8342,31.3505 8.0032,31.6005 9.5542,31.8315 C15.9392,32.7845 22.4782,32.9115 28.9212,32.9625 C36.3232,33.0195 43.8322,32.9295 51.1822,31.9585 C53.2092,31.6905 56.8992,31.6605 57.7592,29.3295 C58.4282,27.5155 55.5302,26.7325 54.8662,28.5315" id="Fill-27" fill="#FFFFFF"></path>
                    <path d="M19.184,80.8699 C27.499,81.3799 34.936,81.4489 43.13,79.8409 C45.023,79.4699 44.222,76.5779 42.333,76.9489 C34.432,78.4989 27.163,78.3589 19.184,77.8699 C17.256,77.7519 17.263,80.7519 19.184,80.8699" id="Fill-29" fill="#FFFFFF"></path>
                    <path d="M18.1343,80.5141 C26.1763,82.2361 36.2653,83.8751 44.0163,80.3511 C45.7713,79.5531 44.2483,76.9661 42.5023,77.7601 C35.7103,80.8491 25.9023,79.1141 18.9323,77.6211 C17.0493,77.2181 16.2443,80.1091 18.1343,80.5141" id="Fill-31" fill="#FFFFFF"></path>
                </g>
            </g>
        </g>
    </g>
</svg>