<?xml version="1.0" encoding="UTF-8"?>
<svg width="193px" height="54px" viewBox="0 0 193 54" version="1.1" xmlns="http://www.w3.org/2000/svg" xmlns:xlink="http://www.w3.org/1999/xlink">
    <!-- Generator: Sketch 40.3 (33839) - http://www.bohemiancoding.com/sketch -->
    <title>Page 1</title>
    <desc>Created with Sketch.</desc>
    <defs></defs>
    <g id="Page-1" stroke="none" stroke-width="1" fill="none" fill-rule="evenodd">
        <g id="Artboard" transform="translate(-31.000000, -75.000000)" fill="#215867">
            <g id="Group" transform="translate(31.000000, 75.000000)">
                <g id="Page-1">
                    <g id="Group-3" transform="translate(8.172638, 9.735813)">
                        <path d="M173.110564,1.11506221 C172.06258,7.89772345 163.84845,10.9693782 158.160294,12.8742316 C151.906968,14.968313 145.353769,15.9905215 138.793655,16.4934531 C125.197528,17.5364075 111.447379,16.9680948 97.8279909,16.7688081 C70.6131049,16.3696062 42.0855674,15.4429547 15.5012319,22.3161436 C10.2820593,23.6652577 4.69071726,25.9938309 1.8925316,30.9043293 C-0.436041694,34.9893912 -0.568061238,39.9539547 2.44261303,43.6844498 C3.20518306,44.6287039 4.53229381,43.2871339 3.77663909,42.3504238 C-0.757289251,36.7339352 3.9074013,29.5124661 9.21773029,26.6306681 C14.5953264,23.7124075 21.2289941,22.885085 27.1805609,21.8943098 C40.8577857,19.617287 54.7330397,18.7887072 68.5825186,18.549186 C81.9900463,18.3178375 95.3975739,18.6491436 108.803216,18.8075671 C121.01188,18.9521599 133.412287,19.3475899 145.538597,17.6627691 C152.026414,16.7618928 158.418046,15.172629 164.384701,12.4303945 C169.077053,10.2740752 174.07745,7.12572345 174.929291,1.61673648 C175.112861,0.429189251 173.295392,-0.0825436482 173.110564,1.11506221" id="Fill-1"></path>
                    </g>
                    <path d="M182.162516,12.4119117 C184.189959,12.1044948 185.237314,9.99343941 185.909985,8.25958274 C186.800802,5.96055668 186.93345,3.55905831 186.523561,1.14372932 C186.321131,-0.0501045603 184.503034,0.455970358 184.704835,1.64540358 C184.984591,3.29250456 184.939327,4.92326026 184.49549,6.54207134 C184.120806,7.91067394 183.309828,10.3436055 181.660841,10.5931853 C180.465121,10.7742407 180.973082,12.5923384 182.162516,12.4119117" id="Fill-4"></path>
                    <path d="M184.907831,0.226947883 C181.42943,3.05530945 180.013049,7.63764495 181.178593,11.9502834 C181.494811,13.1208567 183.314795,12.6235831 182.997319,11.4486091 C181.992085,7.72942997 183.26513,3.98070358 186.241228,1.56034528 C187.183596,0.794631922 185.842026,-0.532478827 184.907831,0.226947883" id="Fill-6"></path>
                    <path d="M177.913687,18.622614 C178.678143,14.5796726 177.560377,10.6266303 174.750247,7.61155537 C173.92041,6.72199511 172.588898,8.05790717 173.416221,8.94495277 C175.742908,11.4413795 176.73054,14.758842 176.09496,18.1209397 C175.870527,19.3072296 177.687996,19.8158192 177.913687,18.622614" id="Fill-8"></path>
                    <path d="M173.256666,7.75778274 C171.881777,12.2747371 173.293757,17.1613463 176.912979,20.2084831 C177.835858,20.9855124 179.176799,19.657773 178.246376,18.874457 C175.111226,16.2353235 173.879044,12.1886101 175.075392,8.259457 C175.42933,7.09517036 173.609975,6.59789674 173.256666,7.75778274" id="Fill-10"></path>
                    <path d="M180.362712,19.3319362 C184.183106,18.9245616 187.853878,19.4111479 191.43538,20.7992391 C192.567605,21.2380469 193.058592,19.4155485 191.937054,18.9805127 C188.204044,17.5339557 184.344044,17.0215941 180.362712,17.4459427 C179.16825,17.5729329 179.155048,19.4608124 180.362712,19.3319362" id="Fill-12"></path>
                    <path d="M187.395079,19.3563912 C184.158714,20.7853456 180.691629,20.7149352 177.454007,19.3494759 C176.337499,18.8786062 175.849655,20.7029906 176.952962,21.1682023 C180.685343,22.7423782 184.661646,22.611616 188.346877,20.9846322 C189.455212,20.4955313 188.496499,18.8704336 187.395079,19.3563912" id="Fill-14"></path>
                    <path d="M170.259571,21.8008274 C170.691463,18.3538599 170.09989,15.0231954 168.611212,11.8943322 C168.09005,10.7991987 166.463066,11.7547687 166.982343,12.8461303 C168.332085,15.6820358 168.762721,18.6945961 168.373577,21.8008274 C168.223326,23.0022052 170.110577,22.9908893 170.259571,21.8008274" id="Fill-16"></path>
                    <path d="M168.106835,12.0098179 C165.965604,16.2055248 167.384499,21.3806909 171.406066,23.8582577 C172.442105,24.4963521 173.39076,22.8655964 172.357864,22.2293879 C169.239688,20.3088179 168.065972,16.233186 169.735076,12.961616 C170.285786,11.8828277 168.659431,10.9272577 168.106835,12.0098179" id="Fill-18"></path>
                    <path d="M168.409097,23.5413479 C172.111931,24.3604977 176.174361,25.349387 177.817061,29.1704098 C178.294846,30.2825173 179.920572,29.3231752 179.445302,28.2186117 C177.612745,23.9550091 173.068129,22.6423577 168.910771,21.7226215 C167.727624,21.4610971 167.222807,23.2791948 168.409097,23.5413479" id="Fill-20"></path>
                    <path d="M174.219465,26.9881267 C171.795335,25.554143 170.097312,23.320498 169.357374,20.6040388 C169.03927,19.4347228 167.219286,19.9307391 167.538648,21.105713 C168.404948,24.2848694 170.432391,26.9397195 173.267667,28.6163678 C174.314394,29.2362309 175.264306,27.6061039 174.219465,26.9881267" id="Fill-22"></path>
                    <path d="M162.087624,25.0816388 C163.333637,20.5489678 162.741435,16.0452153 160.368855,11.9897007 C159.923761,11.2290166 158.934243,11.4968277 158.645057,12.2153912 C157.390871,15.3310524 156.804327,19.1910524 158.60105,22.2400752 C160.916422,26.1685997 165.838865,26.5219091 167.364634,31.3117039 C167.751262,30.9250752 168.137891,30.5384466 168.52452,30.1518179 C165.115901,28.7203489 162.213357,26.6262674 159.719445,23.9047788 C158.89778,23.0076746 157.566897,24.3442153 158.386047,25.2381762 C161.117594,28.2193033 164.298637,30.406427 168.023474,31.9705443 C168.69363,32.2515573 169.383275,31.4380655 169.18336,30.8106583 C168.249793,27.8810818 166.496448,25.9209059 163.903207,24.3291274 C161.519311,22.8655964 159.703728,21.539743 159.39191,18.5278114 C159.18508,16.5305443 159.725731,14.5496225 160.463783,12.7164368 C159.889184,12.7918765 159.314585,12.8666876 158.739985,12.9414987 C160.866757,16.5764368 161.384148,20.5231925 160.268897,24.5799645 C159.947021,25.7524238 161.765748,26.2522121 162.087624,25.0816388" id="Fill-24"></path>
                    <path d="M152.561031,26.8192046 C153.014926,22.8435303 153.087851,18.8785433 152.781063,14.8896671 C152.717568,14.063602 151.802233,13.660628 151.171682,14.2226541 C147.68448,17.3301427 146.01349,23.3822958 150.945363,26.0798951 C152.010949,26.6626671 152.964005,25.0344261 151.897161,24.4516541 C148.01893,22.3305401 149.965275,17.8192436 152.505079,15.5560515 C151.9682,15.3341329 151.431949,15.1115857 150.89507,14.8896671 C151.202487,18.8785433 151.128933,22.844159 150.675037,26.8192046 C150.53736,28.0230971 152.42461,28.0130384 152.561031,26.8192046" id="Fill-26"></path>
                    <path d="M150.44482,28.4631622 C152.870208,30.4214521 154.830384,32.765742 156.314661,35.5086052 L157.379618,34.1230287 C154.539941,33.0863609 152.484836,30.4692306 152.176791,27.457299 C152.05483,26.2615792 150.167579,26.2490059 150.290797,27.457299 C150.690628,31.3663349 153.182654,34.5920124 156.877944,35.941755 C157.692693,36.2391134 158.306898,35.2288495 157.942902,34.5561785 C156.389472,31.6850678 154.318651,29.1810971 151.778218,27.1297648 C150.842765,26.3734814 149.499937,27.6999635 150.44482,28.4631622" id="Fill-28"></path>
                    <path d="M143.670332,27.7360489 C145.440022,23.9747492 145.809677,19.9588404 144.678709,15.9498469 C144.458677,15.1677883 143.369201,15.0244528 142.95554,15.7241564 C140.746413,19.4590521 138.85099,23.9904658 142.025117,27.7643388 C142.807175,28.6941336 144.135543,27.3544495 143.358514,26.4309414 C140.811794,23.4026645 142.893302,19.5344919 144.583781,16.6759544 C144.009182,16.6011433 143.434582,16.5257036 142.859983,16.4508925 C143.848244,19.9550684 143.595521,23.4812476 142.042091,26.7842508 C141.527843,27.876241 143.153569,28.8349544 143.670332,27.7360489" id="Fill-30"></path>
                    <path d="M142.269038,29.408485 C143.991579,30.862586 145.396644,32.5411202 146.50938,34.5031821 C146.621911,34.0725469 146.734442,33.6425404 146.847602,33.2125339 C146.140354,33.6305958 144.460563,31.1888629 144.085879,30.7437684 C143.168029,29.6517782 142.297957,28.5233254 141.462462,27.3672114 C141.107266,27.8286511 140.752071,28.2907195 140.397504,28.7521593 C140.641426,28.8357717 140.885348,28.919384 141.129898,29.0023678 C142.280983,29.3952831 142.775113,27.5746707 141.630944,27.1836414 C141.387022,27.1006577 141.142472,27.0170453 140.89855,26.9340616 C140.155468,26.6800811 139.352664,27.6538824 139.833592,28.3190094 C141.107266,30.0798987 142.455752,31.7842081 143.903566,33.4055339 C144.908172,34.5302147 146.257915,35.7523384 147.7994,34.8414036 C148.24198,34.5798792 148.390345,33.9971072 148.137621,33.5507554 C146.953846,31.4635893 145.436879,29.6228596 143.602436,28.0750876 C142.680814,27.296801 141.339872,28.6245404 142.269038,29.408485" id="Fill-32"></path>
                    <path d="M132.408687,27.2818388 C134.443674,24.3308876 135.528121,20.9826205 135.667684,17.4048909 C135.715463,16.1909397 133.829469,16.1934544 133.781691,17.4048909 C133.654072,20.6689169 132.633121,23.6431287 130.780446,26.3300407 C130.089544,27.3315033 131.723443,28.2757573 132.408687,27.2818388" id="Fill-34"></path>
                    <path d="M132.831779,18.282255 C130.115319,20.714558 129.553293,24.8310531 131.48958,27.9140238 C132.133961,28.9393756 133.766603,27.9938642 133.11845,26.9615971 C131.605883,24.5550694 132.052863,21.5073039 134.165176,19.6156524 C135.07171,18.8046752 133.733912,17.4744212 132.831779,18.282255 L159.884682,70.9464927" id="Fill-36"></path>
                    <path d="M131.281366,29.3912596 C132.932239,30.9736081 134.239233,32.7923345 135.226236,34.8543541 C135.749913,35.9482303 137.376897,34.9926603 136.854477,33.902556 C135.80335,31.7066309 134.371881,29.7420544 132.614764,28.0578622 C131.738405,27.2179664 130.403122,28.5494779 131.281366,29.3912596" id="Fill-38"></path>
                    <path d="M135.007083,34.124286 C132.913631,32.6249212 130.199686,30.6025075 130.838409,27.646527 C131.094276,26.4627518 129.276807,25.9573055 129.019683,27.1448528 C128.172872,31.0639472 131.180403,33.6942795 134.055285,35.752527 C135.043546,36.4604033 135.986543,34.8252469 135.007083,34.124286" id="Fill-40"></path>
                    <path d="M119.970435,27.7290707 C122.88178,25.2144127 124.941285,21.9956505 126.050249,18.3154485 C126.401672,17.1505332 124.581689,16.6532596 124.231522,17.8137743 C123.211829,21.1978752 121.308233,24.0878459 118.637037,26.3956733 C117.716672,27.1903052 119.055728,28.519302 119.970435,27.7290707" id="Fill-42"></path>
                    <path d="M125.063937,15.3875694 C120.2798,16.5889472 117.327592,21.6628984 118.59938,26.4174879 C118.912455,27.5886899 120.732439,27.092045 120.418107,25.9158137 C119.406585,22.1343967 121.779165,18.1568365 125.565611,17.2062958 C126.741843,16.9108235 126.243312,15.0914684 125.063937,15.3875694" id="Fill-44"></path>
                    <path d="M119.27356,29.1113153 C121.698319,30.4428267 123.452921,32.5714847 124.260127,35.2213055 C124.612807,36.3793055 126.43342,35.8851752 126.078853,34.7196313 C125.133342,31.615286 123.073837,29.0465629 120.225358,27.4830743 C119.161029,26.8984163 118.207974,28.5260287 119.27356,29.1113153" id="Fill-46"></path>
                    <path d="M125.159306,34.6018824 C122.258648,33.3131202 120.436149,30.2823287 120.951025,27.0937423 C121.142768,25.9061951 119.325928,25.3950909 119.132299,26.5920681 C118.489804,30.5696283 120.47324,34.5710779 124.207507,36.2301235 C125.307042,36.7192244 126.267641,35.0941267 125.159306,34.6018824" id="Fill-48"></path>
                    <path d="M108.867151,27.3061681 C110.751887,24.431914 111.660307,21.1540573 111.530174,17.7196632 C111.484281,16.5101127 109.598288,16.5038261 109.64418,17.7196632 C109.762369,20.8516697 108.958307,23.7322104 107.23891,26.35437 C106.571268,27.3721779 108.203281,28.3183179 108.867151,27.3061681" id="Fill-50"></path>
                    <path d="M111.307186,16.5773798 C108.920776,17.3726404 106.696561,18.8594319 105.766137,21.2955068 C104.907382,23.5461257 105.42603,26.079015 107.189434,27.7236013 C108.076479,28.5509238 109.41302,27.220041 108.522831,26.3902039 C105.254405,23.3418098 108.613988,19.4604352 111.808861,18.3961062 C112.954287,18.0145068 112.4633,16.1920085 111.307186,16.5773798" id="Fill-52"></path>
                    <path d="M108.0028,28.1547394 C109.840386,29.8162997 111.052451,31.8908925 111.597504,34.3068502 C111.864057,35.4906254 113.682784,34.9895798 113.41623,33.8058046 C112.805168,31.0956319 111.39696,28.6847036 109.336197,26.821342 C108.437836,26.0091075 107.100038,27.3387329 108.0028,28.1547394" id="Fill-54"></path>
                    <path d="M112.204416,33.4363384 C109.757025,31.9966967 107.856573,29.8472928 106.799159,27.20313 C106.354064,26.0897651 104.52968,26.5750941 104.981061,27.7041756 C106.225817,30.8185795 108.355104,33.36027 111.252618,35.0645795 C112.301231,35.6812993 113.251143,34.051801 112.204416,33.4363384" id="Fill-56"></path>
                    <path d="M98.805187,27.316541 C100.198936,25.483984 101.851695,23.6784596 103.029184,21.6987951 C103.755291,20.4779287 103.919373,19.2708928 103.028555,18.1179221 C102.28736,17.1592088 100.961506,18.5026648 101.695158,19.4519482 C102.28233,20.2113749 100.28192,22.2821958 99.8795746,22.8109026 C98.9786984,23.9953065 98.0778221,25.1803391 97.1769459,26.364743 C96.4420371,27.3303717 98.0790795,28.2708537 98.805187,27.316541" id="Fill-58"></path>
                    <path d="M102.03822,16.4011023 C98.635259,19.3709134 95.4089528,23.2780632 97.4451971,27.9905322 C97.9248681,29.1013824 99.5499658,28.1420404 99.0734381,27.0381055 C97.4313664,23.239086 100.769575,20.0064932 103.371617,17.7344997 C104.28821,16.9348384 102.949155,15.6058417 102.03822,16.4011023" id="Fill-60"></path>
                    <path d="M98.7101329,28.4377013 C101.748468,29.9521541 103.755794,32.8572127 103.963882,36.2664603 C104.037436,37.4722388 105.924058,37.4804114 105.849876,36.2664603 C105.60281,32.2197469 103.307556,28.6263007 99.6619309,26.8094603 C98.578742,26.2694375 97.6225433,27.8957925 98.7101329,28.4377013" id="Fill-62"></path>
                    <path d="M104.713187,35.2537446 C101.765379,33.8373635 99.7750277,31.0674678 99.5329919,27.7808098 C99.4443502,26.5775459 97.557728,26.568116 97.6469984,27.7808098 C97.9355554,31.7030476 100.194976,35.1688749 103.761389,36.8819857 C104.850236,37.4056632 105.807692,35.7799368 104.713187,35.2537446" id="Fill-64"></path>
                    <path d="M88.311142,26.6139456 C89.7237511,23.810102 90.544787,20.8509782 90.7868228,17.7214863 C90.8798651,16.5106785 88.9938717,16.5169651 88.9008293,17.7214863 C88.6851974,20.5127567 87.942116,23.1625775 86.682901,25.6621476 C86.1378489,26.7434505 87.7642039,27.6990205 88.311142,26.6139456" id="Fill-66"></path>
                    <path d="M89.3651609,16.5954853 C85.7396528,19.0849967 82.596959,23.7811205 86.0439264,27.8077166 C86.8341577,28.7312248 88.1631544,27.3921694 87.3773238,26.4743192 C84.7979134,23.4605016 87.8067016,19.9475244 90.316959,18.2237264 C91.3115062,17.5409967 90.3691381,15.9058404 89.3651609,16.5954853" id="Fill-68"></path>
                    <path d="M87.4825622,28.5722355 C89.1912723,29.772356 90.6812072,31.222685 91.9674547,32.8653853 C92.7143081,33.8203267 94.0407902,32.4774993 93.3008521,31.5319879 C91.9121322,29.7566394 90.2776046,28.2384147 88.4343603,26.9439945 C87.4391844,26.2442909 86.495559,27.8788186 87.4825622,28.5722355" id="Fill-70"></path>
                    <path d="M92.2459531,32.3376215 C89.5213212,31.510299 87.4303831,29.5664684 86.3063309,26.9631687 C85.8266599,25.8516899 84.2015622,26.8110319 84.6780899,27.9149668 C85.9901127,30.9545596 88.5877544,33.1982632 91.7442788,34.1563479 C92.9085655,34.5096573 93.4058391,32.6896736 92.2459531,32.3376215" id="Fill-72"></path>
                    <path d="M76.8131199,25.4831668 C77.6259831,22.9546782 78.0855368,20.3721244 78.220071,17.7210463 C78.2816801,16.5083524 76.3956866,16.5114958 76.3340775,17.7210463 C76.2083446,20.2067857 75.7557062,22.6133134 74.9943935,24.9814925 C74.6222241,26.1401212 76.4428365,26.6361375 76.8131199,25.4831668" id="Fill-74"></path>
                    <path d="M77.172213,16.8015616 C72.1825029,18.9723401 72.0322521,25.7436853 76.7836984,28.2728026 C77.854314,28.8430013 78.807998,27.2160176 77.7354964,26.6445616 C74.1389068,24.7296495 74.4381511,20.0335257 78.1240111,18.4298026 C79.2342326,17.9469883 78.2748906,16.3218906 77.172213,16.8015616" id="Fill-76"></path>
                    <path d="M74.0791837,29.0706407 C76.6013857,31.6154746 79.5963433,33.4819795 82.9798156,34.6563248 C84.1283857,35.0555267 84.622516,33.2342857 83.4808612,32.8375984 C80.4016625,31.7688687 77.7059492,30.0513573 75.4125811,27.7372433 C74.5569687,26.8734583 73.2235713,28.2074844 74.0791837,29.0706407" id="Fill-78"></path>
                    <path d="M79.3480208,33.7212492 C76.5724671,33.1403632 74.5689134,30.9438094 74.1753694,28.1462524 C74.007516,26.9492752 72.1900469,27.4584935 72.356643,28.647298 C72.8337993,32.040829 75.5024801,34.8396433 78.8463466,35.5399756 C80.0307505,35.7876694 80.5374541,33.9702003 79.3480208,33.7212492" id="Fill-80"></path>
                    <path d="M65.8489596,27.4872235 C67.3458098,24.336357 68.0266534,21.145256 67.8789173,17.6593114 C67.845598,16.8759954 66.8529368,16.3730638 66.2689075,16.992927 C64.0138879,19.3856241 61.3326339,22.6496502 62.7760476,26.1796013 C63.2921811,27.4413309 64.2716404,28.1976143 65.3246534,29.0041909 C67.4149629,30.606028 69.5888847,32.1079075 71.7175427,33.6575655 C71.7929824,33.0829661 71.8677935,32.5083668 71.9432332,31.9343961 C68.3353277,33.4400476 64.778344,31.9953765 63.6354319,28.1730964 C63.2884091,27.0132104 61.4677967,27.5073407 61.8167055,28.6747707 C63.223028,33.3771811 67.8732593,35.6611192 72.4442788,33.7524938 C73.2162788,33.4306176 73.362129,32.5335134 72.6699694,32.0293244 C70.5419401,30.4809238 68.3592169,28.9847023 66.2764515,27.3759498 C62.6289401,24.5576469 65.1171941,20.963572 67.6029336,18.3263244 C67.0660541,18.1037772 66.5291746,17.8818586 65.9929238,17.6593114 C66.127458,20.8340671 65.5836632,23.665572 64.2207186,26.5354254 C63.702699,27.6261583 65.3277967,28.584243 65.8489596,27.4872235" id="Fill-82"></path>
                    <path d="M55.1947309,28.4015531 C57.0744378,25.4933511 58.2764443,22.2859049 58.7485713,18.8540254 C58.8805909,17.8940547 57.9463954,17.3339147 57.1725094,17.9361752 C54.0599915,20.3577909 50.245884,24.7710156 53.8783075,28.5354586 C54.7226039,29.4099309 56.0553726,28.0759049 55.2117049,27.2014326 C52.4103759,24.2988886 56.3539883,20.9443349 58.5059068,19.2695726 C57.980972,18.9640417 57.4554085,18.6578821 56.929845,18.3523511 C56.4772065,21.6446671 55.3720143,24.65597 53.5664899,27.449755 C52.9051349,28.4719635 54.5371479,29.4187322 55.1947309,28.4015531" id="Fill-84"></path>
                    <path d="M53.9668863,30.3975629 C56.1577821,32.0214033 58.3738244,33.6094098 60.615642,35.1622111 C60.5515182,34.6687094 60.4880231,34.1752078 60.424528,33.6810775 C59.4387821,34.5920124 57.9494759,33.9771785 57.1938212,33.0756736 C56.3545541,32.0754684 56.0439938,30.7018365 55.7227463,29.4709114 C55.4165866,28.2971948 53.5966029,28.7950971 53.9040199,29.971957 C54.4119808,31.9189309 55.0607625,34.1324586 56.8600003,35.2848007 C58.4033717,36.2724326 60.3874368,36.2812339 61.7579254,35.0151036 C62.2344531,34.5750384 62.0433391,33.8633902 61.5674401,33.53397 C59.3256225,31.9811687 57.1095801,30.3931622 54.9186844,28.7693218 C53.9429971,28.045729 53.0012577,29.6821427 53.9668863,30.3975629" id="Fill-86"></path>
                    <path d="M47.4546765,29.7609772 C49.2966635,25.8135928 50.1573052,21.6493192 49.9599046,17.2945603 C49.9228134,16.4766678 48.956556,16.0529479 48.3498948,16.6275472 C44.8633215,19.9324365 44.1152107,25.1710977 46.4909339,29.3366287 C47.0925658,30.390899 48.7226928,29.4416156 48.1198036,28.3848306 C46.1483117,24.9290619 46.8014941,20.6931205 49.6839208,17.9615733 C49.1470414,17.7390261 48.6101619,17.5171075 48.0739111,17.2945603 C48.2562238,21.312355 47.5282303,25.1610391 45.8264355,28.8091792 C45.3159599,29.9024267 46.9410577,30.8611401 47.4546765,29.7609772" id="Fill-88"></path>
                    <path d="M46.769558,31.4688072 C48.6832127,32.3036736 50.1436003,33.6766769 51.0733951,35.5469537 C51.5034016,35.1169472 51.9334081,34.6869407 52.3634147,34.2569342 C50.2982518,33.3459993 48.4480922,32.1194749 46.8261378,30.5484423 C45.9535515,29.7035173 44.6182681,31.0356573 45.4921117,31.8824684 C47.2247111,33.5603739 49.2043756,34.9120026 51.4116166,35.8858039 C52.2684863,36.2636313 53.144216,35.4853446 52.7016362,34.5951557 C51.6454798,32.4702697 49.8977925,30.7898495 47.721356,29.8405661 C46.6199358,29.3596378 45.6587078,30.9841068 46.769558,31.4688072" id="Fill-90"></path>
                    <path d="M38.1243524,30.2898098 C39.590398,27.122598 40.0222906,23.8277674 39.4194013,20.3889726 C39.2697792,19.5365036 38.0992059,19.5409042 37.6956033,20.1639107 C35.8567596,23.0010736 34.1744534,26.3367674 36.1126261,29.5681029 C36.7362612,30.6085427 38.3676456,29.6611453 37.7408671,28.6163049 C36.1849225,26.0211779 37.8911179,23.3267218 39.3238443,21.1157088 C38.749245,21.0402691 38.1752743,20.965458 37.6006749,20.8900182 C38.1080072,23.7850182 37.7314371,26.6699596 36.4961114,29.3380117 C35.9894078,30.4318879 37.6145055,31.39123 38.1243524,30.2898098" id="Fill-92"></path>
                    <path d="M36.1045163,32.2487283 C38.411715,33.1860671 40.349259,34.7269238 41.8737704,36.6852137 C42.254741,36.1910834 42.6357117,35.6975818 43.0166824,35.2040801 C40.7019397,33.9429792 38.9328779,32.0752169 37.7786498,29.7070378 C37.2467997,28.6163049 35.619816,29.5712463 36.1497801,30.6588358 C37.4341417,33.2941974 39.4923893,35.4303993 42.0648844,36.8323212 C43.0638322,37.3767446 43.8396042,36.1634221 43.2077964,35.3511876 C41.4695391,33.1188 39.2189202,31.4918163 36.6061906,30.430002 C35.4821384,29.9735915 34.9930375,31.7973472 36.1045163,32.2487283" id="Fill-94"></path>
                    <path d="M29.6615225,31.4719505 C30.173884,27.7263674 29.8293759,24.1021166 28.5060371,20.5533055 C28.2583433,19.8900645 27.1386919,19.5084651 26.7822391,20.3282436 C25.264643,23.8204749 23.8960404,27.6232664 26.0379003,31.1607616 C26.6659362,32.1974293 28.2973205,31.2506606 27.66677,30.2089635 C25.9065094,27.3026476 27.1770404,24.1184619 28.4111088,21.2800417 C27.8365094,21.204602 27.2619101,21.1297909 26.6873107,21.0543511 C27.882402,24.2599114 28.3080078,27.5729733 27.8427961,30.9702762 C27.6806007,32.1571948 29.497441,32.6708137 29.6615225,31.4719505" id="Fill-96"></path>
                    <path d="M26.6522313,33.2627013 C29.3441726,34.6155873 31.6268534,36.4839782 33.4952443,38.8464993 L33.4952443,37.513102 C33.4242052,37.5828837 28.267899,32.9464831 27.8504658,32.5806003 C26.9414169,31.7834537 25.6023616,33.1118218 26.5170684,33.9139977 C28.2245212,35.4121052 29.9043127,36.9517046 31.644456,38.4120922 C32.5824235,39.2004375 33.7982606,39.8630498 34.8286417,38.8464993 C35.221557,38.4586134 35.1429739,37.9110466 34.8286417,37.513102 C32.8709805,35.0374212 30.4235896,33.0508414 27.6040293,31.6344603 C26.5227264,31.0906655 25.5665277,32.7170205 26.6522313,33.2627013" id="Fill-98"></path>
                    <path d="M20.587442,34.6208052 C21.1331228,30.8620202 20.00467,27.2471993 17.304556,24.5470853 C16.4451717,23.687701 15.1117743,25.0210984 15.9711586,25.8811114 C18.1563964,28.0663492 19.2163248,31.0386749 18.7687156,34.1191309 C18.5964616,35.3066782 20.413302,35.8190397 20.587442,34.6208052" id="Fill-100"></path>
                    <path d="M16.7000322,24.7249974 C14.461358,27.549587 14.6820192,31.7377498 17.4695176,34.1361049 C18.3854818,34.9244502 19.7251658,33.5960821 18.8035436,32.8027075 C16.861599,31.1317173 16.3963873,28.1241863 18.0334296,26.0583948 C18.7796544,25.117284 17.453801,23.773828 16.7000322,24.7249974" id="Fill-102"></path>
                    <path d="M19.1116521,35.8682642 C21.570359,36.112186 23.7166195,37.2991046 25.325372,39.1568081 C26.1212612,40.0759156 27.450258,38.7368603 26.6587694,37.8227821 C24.7099094,35.5727919 22.0607173,34.2752283 19.1116521,33.9822707 C17.9046163,33.8621958 17.9134176,35.7494466 19.1116521,35.8682642" id="Fill-104"></path>
                    <path d="M25.9226033,38.671102 C22.9553068,38.0103756 20.5274046,36.2092518 19.051929,33.550001 C18.4628704,32.4881866 16.833372,33.4387274 17.4230593,34.501799 C19.1210821,37.5615091 22.0041375,39.7285156 25.420929,40.4898283 C26.6034469,40.7532388 27.1088932,38.935141 25.9226033,38.671102" id="Fill-106"></path>
                    <path d="M13.3331567,37.6136254 C12.2908309,34.5809479 10.8354726,31.760759 8.93439121,29.1769479 C8.222743,28.2094332 6.58507199,29.1492866 7.3055215,30.1287459 C9.11293192,32.5843094 10.5223977,35.229101 11.5144303,38.1152997 C11.9067169,39.2563257 13.7292153,38.7659674 13.3331567,37.6136254" id="Fill-108"></path>
                    <path d="M8.17842215,30.9773173 C7.47494658,34.830402 10.4648749,37.2878515 13.3649042,39.1801316 C14.384598,39.8452586 15.3307381,38.2132456 14.3167023,37.5518906 C12.2534254,36.2052912 9.47221368,34.3545029 9.99714853,31.4789915 C10.2134091,30.292073 8.39656873,29.7834834 8.17842215,30.9773173" id="Fill-110"></path>
                    <path d="M14.3542964,39.3748919 C16.4565505,40.6196476 18.5525179,41.8744619 20.64157,43.1405922 L20.64157,41.5123511 C18.1702899,42.5980547 15.3601596,41.8914358 13.5615505,39.9344033 C12.7386287,39.039185 11.4077459,40.3750971 12.2281531,41.2678007 C14.6428534,43.8949896 18.3626612,44.5594879 21.5933681,43.1405922 C22.2704397,42.8432339 22.1434495,41.8455433 21.5933681,41.5123511 C19.504316,40.2462208 17.4083485,38.9907779 15.3060945,37.7466508 C14.2593681,37.1267876 13.309456,38.756286 14.3542964,39.3748919" id="Fill-112"></path>
                    <g id="Group-116" transform="translate(0.000000, 38.654379)">
                        <path d="M8.92232085,6.87733811 C7.08473453,3.81322736 4.40599511,1.54877785 1.12310912,0.163829967 C0.0066009772,-0.307039739 -0.481242671,1.51734463 0.621434853,1.98255635 C3.43282248,3.16821759 5.72933388,5.22143583 7.2940798,7.82913616 C7.91771498,8.86894723 9.54909935,7.92154984 8.92232085,6.87733811" id="Fill-114"></path>
                    </g>
                    <path d="M1.68016873,42.0533798 C3.52341303,44.7560085 6.04498632,46.724357 9.10783974,47.869155 C10.2463511,48.2947609 10.7379668,46.4722625 9.60951401,46.0504287 C7.03450423,45.088572 4.85618176,43.3710606 3.30840977,41.1015818 C2.62882345,40.1045199 0.993667101,41.0468879 1.68016873,42.0533798" id="Fill-117"></path>
                    <path d="M10.5372342,47.4956655 C13.292042,46.6475971 16.0550225,46.5369521 18.8638954,47.1989358 C20.0438987,47.4768055 20.547459,45.6587078 19.364941,45.3802094 C16.2373352,44.642786 13.1091007,44.730799 10.0355599,45.6769391 C8.87944593,46.0333919 9.37294756,47.8540042 10.5372342,47.4956655" id="Fill-119"></path>
                    <path d="M18.98133,46.5065248 C17.0815059,47.7657397 14.920786,48.0184629 12.7764114,47.2470915 C11.632242,46.8353163 11.1393691,48.657186 12.2747371,49.0658179 C14.8478609,49.9912121 17.6561052,49.6441893 19.933128,48.1347658 C20.9402485,47.4677528 19.9972518,45.8332251 18.98133,46.5065248" id="Fill-121"></path>
                </g>
            </g>
        </g>
    </g>
</svg>