<?xml version="1.0" encoding="UTF-8"?>
<svg width="24px" height="34px" viewBox="0 0 24 34" version="1.1" xmlns="http://www.w3.org/2000/svg" xmlns:xlink="http://www.w3.org/1999/xlink">
    <!-- Generator: Sketch 40.3 (33839) - http://www.bohemiancoding.com/sketch -->
    <title>Artboard</title>
    <desc>Created with Sketch.</desc>
    <defs></defs>
    <g id="Page-1" stroke="none" stroke-width="1" fill="none" fill-rule="evenodd">
        <g id="Artboard" fill="#215867">
            <g id="Page-1-Copy-4" transform="translate(12.000000, 22.000000) rotate(-299.000000) translate(-12.000000, -22.000000) translate(2.000000, 15.000000)">
                <path d="M11.8281025,2.24875783 C11.9119647,2.21867829 11.9955997,2.18881672 12.079462,2.15873718 L11.8385568,1.60073991 C8.74224334,4.18823427 5.64615711,6.7759466 2.55007088,9.36365892 C2.2187126,9.64047788 2.70256841,10.1014795 3.03233579,9.82596838 L12.3205945,2.06304937 C12.5492271,1.87189171 12.3608211,1.505706 12.079462,1.50483413 C11.7746942,1.50396226 11.7285586,1.50832162 11.4840171,1.68422154 C11.1369773,1.9333586 11.4765172,2.50138238 11.8281025,2.24875783" id="Fill-1"></path>
                <path d="M13.9925884,3.34478747 C14.0106776,6.22748368 13.6447543,9.06869143 12.8952544,11.8552978 C12.7871556,12.2568546 13.4176595,12.4281826 13.5257584,12.0266258 C14.2900782,9.18563302 14.6649371,6.28423475 14.6464121,3.34478747 C14.6437968,2.92990278 13.9899731,2.92904292 13.9925884,3.34478747" id="Fill-3"></path>
                <path d="M9.9497572,0.0322879173 C6.63596112,-0.131086365 3.36226621,0.325716726 0.224784563,1.39022915 C-0.170778732,1.52436804 -0.000784588354,2.14755494 0.398483707,2.01191129 C3.48453123,0.965026088 6.69066436,0.516606677 9.9497572,0.677186399 C10.3703837,0.69782315 10.369294,0.0529246687 9.9497572,0.0322879173" id="Fill-5"></path>
                <g id="Group-9" transform="translate(15.255885, 4.301236)">
                    <path d="M0.076235835,0.498270064 C1.67832166,2.8332325 2.62505828,5.47602648 2.84060213,8.28885869 C2.87198567,8.70030392 3.52624518,8.70352841 3.49442576,8.28885869 C3.27016426,5.36316924 2.30882558,2.60386361 0.640703567,0.172811296 C0.406198826,-0.168984899 -0.160448318,0.153249376 0.076235835,0.498270064" id="Fill-7"></path>
                </g>
            </g>
        </g>
    </g>
</svg>