<?xml version="1.0" encoding="UTF-8"?>
<svg width="305px" height="86px" viewBox="0 0 305 86" version="1.1" xmlns="http://www.w3.org/2000/svg" xmlns:xlink="http://www.w3.org/1999/xlink">
    <!-- Generator: Sketch 40.3 (33839) - http://www.bohemiancoding.com/sketch -->
    <title>LeftKrans</title>
    <desc>Created with Sketch.</desc>
    <defs></defs>
    <g id="Page-1" stroke="none" stroke-width="1" fill="none" fill-rule="evenodd">
        <g id="krans" transform="translate(-152.000000, -75.000000)" fill="#FFFFFF">
            <g id="VANLIGA-FRÅGOR" transform="translate(0.000000, -20.000000)">
                <g id="LeftKrans" transform="translate(152.238806, 95.000000)">
                    <g id="Group-3" transform="translate(12.935323, 15.486500)">
                        <path d="M273.992438,1.7737 C272.333731,12.5627 259.332736,17.4487 250.329751,20.4787 C240.432239,23.8097 230.0601,25.4357 219.677015,26.2357 C198.157612,27.8947 176.394428,26.9907 154.838209,26.6737 C111.763582,26.0387 66.6113433,24.5647 24.5347264,35.4977 C16.2740299,37.6437 7.42427861,41.3477 2.99542289,49.1587 C-0.690149254,55.6567 -0.899104478,63.5537 3.86606965,69.4877 C5.07303483,70.9897 7.17353234,68.8557 5.97751244,67.3657 C-1.19860697,58.4317 6.18447761,46.9447 14.5894527,42.3607 C23.1008955,37.7187 33.600398,36.4027 43.0202985,34.8267 C64.6680597,31.2047 86.6292537,29.8867 108.549652,29.5057 C129.770547,29.1377 150.991443,29.6647 172.209353,29.9167 C191.532736,30.1467 211.159602,30.7757 230.352637,28.0957 C240.621294,26.6627 250.737711,24.1347 260.181493,19.7727 C267.608358,16.3427 275.522786,11.3347 276.871045,2.5717 C277.161592,0.6827 274.284975,-0.1313 273.992438,1.7737" id="Fill-1"></path>
                    </g>
                    <path d="M288.319502,19.7433 C291.528458,19.2543 293.186169,15.8963 294.250846,13.1383 C295.660796,9.4813 295.870746,5.6613 295.22199,1.8193 C294.901592,-0.0797 292.02398,0.7253 292.343383,2.6173 C292.786169,5.2373 292.714527,7.8313 292.01204,10.4063 C291.419005,12.5833 290.135423,16.4533 287.525473,16.8503 C285.632935,17.1383 286.436915,20.0303 288.319502,19.7433" id="Fill-4"></path>
                    <path d="M292.664677,0.361 C287.159204,4.86 284.917413,12.149 286.762189,19.009 C287.262687,20.871 290.143284,20.08 289.640796,18.211 C288.049751,12.295 290.064677,6.332 294.775124,2.482 C296.266667,1.264 294.143284,-0.847 292.664677,0.361" id="Fill-6"></path>
                    <path d="M281.594627,29.6225 C282.804577,23.1915 281.035423,16.9035 276.587662,12.1075 C275.274229,10.6925 273.166766,12.8175 274.476219,14.2285 C278.158806,18.1995 279.72199,23.4765 278.71602,28.8245 C278.360796,30.7115 281.237413,31.5205 281.594627,29.6225" id="Fill-8"></path>
                    <path d="M274.223682,12.3401 C272.047562,19.5251 274.282388,27.2981 280.010746,32.1451 C281.471443,33.3811 283.593831,31.2691 282.121194,30.0231 C277.159005,25.8251 275.208756,19.3881 277.102289,13.1381 C277.662488,11.2861 274.782886,10.4951 274.223682,12.3401" id="Fill-10"></path>
                    <path d="M285.470846,30.7508 C291.517612,30.1028 297.327562,30.8768 302.996219,33.0848 C304.788259,33.7828 305.565373,30.8838 303.790249,30.1918 C297.881791,27.8908 291.772338,27.0758 285.470846,27.7508 C283.580299,27.9528 283.559403,30.9558 285.470846,30.7508" id="Fill-12"></path>
                    <path d="M296.601393,30.7897 C291.479005,33.0627 285.991443,32.9507 280.867065,30.7787 C279.0999,30.0297 278.327761,32.9317 280.07403,33.6717 C285.981493,36.1757 292.275025,35.9677 298.107861,33.3797 C299.86209,32.6017 298.344677,30.0167 296.601393,30.7897" id="Fill-14"></path>
                    <path d="M269.48,34.678 C270.163582,29.195 269.227264,23.897 266.871045,18.92 C266.046169,17.178 263.471045,18.698 264.292935,20.434 C266.429254,24.945 267.110846,29.737 266.494925,34.678 C266.257114,36.589 269.244179,36.571 269.48,34.678" id="Fill-16"></path>
                    <path d="M266.072736,19.1037 C262.683682,25.7777 264.929453,34.0097 271.294627,37.9507 C272.934428,38.9657 274.43592,36.3717 272.801095,35.3597 C267.865771,32.3047 266.00806,25.8217 268.649851,20.6177 C269.521493,18.9017 266.947363,17.3817 266.072736,19.1037" id="Fill-18"></path>
                    <path d="M266.551144,37.4466 C272.411841,38.7496 278.841692,40.3226 281.441692,46.4006 C282.19791,48.1696 284.771045,46.6436 284.018806,44.8866 C281.118308,38.1046 273.925274,36.0166 267.345174,34.5536 C265.472537,34.1376 264.673532,37.0296 266.551144,37.4466" id="Fill-20"></path>
                    <path d="M275.747562,42.9293 C271.910746,40.6483 269.223184,37.0953 268.05204,32.7743 C267.548557,30.9143 264.66796,31.7033 265.173433,33.5723 C266.544577,38.6293 269.753532,42.8523 274.241095,45.5193 C275.897811,46.5053 277.401294,43.9123 275.747562,42.9293" id="Fill-22"></path>
                    <path d="M256.545771,39.8967 C258.51791,32.6867 257.580597,25.5227 253.825373,19.0717 C253.120896,17.8617 251.554726,18.2877 251.097015,19.4307 C249.11194,24.3867 248.183582,30.5267 251.027363,35.3767 C254.69204,41.6257 262.483085,42.1877 264.89801,49.8067 C265.50995,49.1917 266.121891,48.5767 266.733831,47.9617 C261.338806,45.6847 256.744776,42.3537 252.797512,38.0247 C251.497015,36.5977 249.390547,38.7237 250.687065,40.1457 C255.010448,44.8877 260.045274,48.3667 265.940796,50.8547 C267.001493,51.3017 268.093035,50.0077 267.776617,49.0097 C266.299005,44.3497 263.523881,41.2317 259.419403,38.6997 C255.646269,36.3717 252.772637,34.2627 252.279104,29.4717 C251.951741,26.2947 252.807463,23.1437 253.975622,20.2277 C253.066169,20.3477 252.156716,20.4667 251.247264,20.5857 C254.613433,26.3677 255.432338,32.6457 253.667164,39.0987 C253.157711,40.9637 256.036318,41.7587 256.545771,39.8967" id="Fill-24"></path>
                    <path d="M241.467463,42.6606 C242.185871,36.3366 242.301294,30.0296 241.815721,23.6846 C241.715224,22.3706 240.266468,21.7296 239.268458,22.6236 C233.749055,27.5666 231.104279,37.1936 238.910249,41.4846 C240.596816,42.4116 242.105274,39.8216 240.416716,38.8946 C234.278408,35.5206 237.359005,28.3446 241.378905,24.7446 C240.529154,24.3916 239.680398,24.0376 238.830647,23.6846 C239.317214,30.0296 239.200796,36.3376 238.482388,42.6606 C238.264478,44.5756 241.251542,44.5596 241.467463,42.6606" id="Fill-26"></path>
                    <path d="M238.11801,45.2756 C241.956816,48.3906 245.059303,52.1196 247.408557,56.4826 L249.094129,54.2786 C244.599602,52.6296 241.346866,48.4666 240.859303,43.6756 C240.666269,41.7736 237.679204,41.7536 237.874229,43.6756 C238.507065,49.8936 242.451343,55.0246 248.3001,57.1716 C249.589652,57.6446 250.561791,56.0376 249.985672,54.9676 C247.526965,50.4006 244.249353,46.4176 240.228458,43.1546 C238.747861,41.9516 236.622488,44.0616 238.11801,45.2756" id="Fill-28"></path>
                    <path d="M227.395622,44.119 C230.196617,38.136 230.781692,31.748 228.991642,25.371 C228.643383,24.127 226.919005,23.899 226.264279,25.012 C222.767761,30.953 219.767761,38.161 224.791642,44.164 C226.029453,45.643 228.13194,43.512 226.90209,42.043 C222.871244,37.226 226.165771,31.073 228.841393,26.526 C227.93194,26.407 227.022488,26.287 226.113035,26.168 C227.677214,31.742 227.277214,37.351 224.818507,42.605 C224.004577,44.342 226.577711,45.867 227.395622,44.119" id="Fill-30"></path>
                    <path d="M225.177711,46.7793 C227.90408,49.0923 230.12796,51.7623 231.889154,54.8833 C232.067264,54.1983 232.245373,53.5143 232.424478,52.8303 C231.305075,53.4953 228.646368,49.6113 228.053333,48.9033 C226.600597,47.1663 225.223483,45.3713 223.901095,43.5323 C223.338905,44.2663 222.776716,45.0013 222.215522,45.7353 C222.601592,45.8683 222.987662,46.0013 223.374726,46.1333 C225.196617,46.7583 225.978706,43.8623 224.167761,43.2403 C223.781692,43.1083 223.394627,42.9753 223.008557,42.8433 C221.832438,42.4393 220.561791,43.9883 221.322985,45.0463 C223.338905,47.8473 225.473234,50.5583 227.764776,53.1373 C229.354826,54.9263 231.491144,56.8703 233.930945,55.4213 C234.631443,55.0053 234.866269,54.0783 234.466269,53.3683 C232.592637,50.0483 230.191642,47.1203 227.288159,44.6583 C225.829453,43.4203 223.707065,45.5323 225.177711,46.7793" id="Fill-32"></path>
                    <path d="M209.571144,43.3965 C212.79204,38.7025 214.508458,33.3765 214.729353,27.6855 C214.804975,25.7545 211.8199,25.7585 211.744279,27.6855 C211.542289,32.8775 209.926368,37.6085 206.99403,41.8825 C205.900498,43.4755 208.486567,44.9775 209.571144,43.3965" id="Fill-34"></path>
                    <path d="M210.240796,29.0811 C205.941294,32.9501 205.051741,39.4981 208.116418,44.4021 C209.136318,46.0331 211.720398,44.5291 210.694527,42.8871 C208.300498,39.0591 209.00796,34.2111 212.351244,31.2021 C213.78607,29.9121 211.668657,27.7961 210.240796,29.0811" id="Fill-36"></path>
                    <path d="M207.786866,46.7519 C210.399801,49.2689 212.468458,52.1619 214.030647,55.4419 C214.859502,57.1819 217.434627,55.6619 216.607761,53.9279 C214.94408,50.4349 212.678408,47.3099 209.897313,44.6309 C208.510249,43.2949 206.396816,45.4129 207.786866,46.7519" id="Fill-38"></path>
                    <path d="M213.683781,54.2806 C210.370348,51.8956 206.074826,48.6786 207.085771,43.9766 C207.490746,42.0936 204.614129,41.2896 204.207164,43.1786 C202.866866,49.4126 207.627065,53.5966 212.177313,56.8706 C213.741493,57.9966 215.23403,55.3956 213.683781,54.2806" id="Fill-40"></path>
                    <path d="M189.884378,44.1079 C194.492338,40.1079 197.75204,34.9879 199.507264,29.1339 C200.063483,27.2809 197.182886,26.4899 196.628657,28.3359 C195.014726,33.7189 192.001791,38.3159 187.77393,41.9869 C186.317214,43.2509 188.436617,45.3649 189.884378,44.1079" id="Fill-42"></path>
                    <path d="M197.946169,24.4766 C190.37403,26.3876 185.701393,34.4586 187.714328,42.0216 C188.209851,43.8846 191.090448,43.0946 190.592935,41.2236 C188.99194,35.2086 192.747164,28.8816 198.740199,27.3696 C200.601891,26.8996 199.812836,24.0056 197.946169,24.4766" id="Fill-44"></path>
                    <path d="M188.781393,46.3066 C192.619204,48.4246 195.396318,51.8106 196.67393,56.0256 C197.232139,57.8676 200.113731,57.0816 199.552537,55.2276 C198.05602,50.2896 194.796318,46.2036 190.287861,43.7166 C188.603284,42.7866 187.094826,45.3756 188.781393,46.3066" id="Fill-46"></path>
                    <path d="M198.097114,55.0403 C193.50607,52.9903 190.621493,48.1693 191.436418,43.0973 C191.7399,41.2083 188.864279,40.3953 188.557811,42.2993 C187.540896,48.6263 190.680199,54.9913 196.590647,57.6303 C198.330945,58.4083 199.851343,55.8233 198.097114,55.0403" id="Fill-48"></path>
                    <path d="M172.310547,43.4352 C175.293632,38.8632 176.731443,33.6492 176.525473,28.1862 C176.452836,26.2622 173.467761,26.2522 173.540398,28.1862 C173.727463,33.1682 172.454826,37.7502 169.733433,41.9212 C168.676716,43.5402 171.259801,45.0452 172.310547,43.4352" id="Fill-50"></path>
                    <path d="M176.172537,26.3692 C172.395423,27.6342 168.875025,29.9992 167.402388,33.8742 C166.043184,37.4542 166.86408,41.4832 169.655124,44.0992 C171.059104,45.4152 173.174527,43.2982 171.765572,41.9782 C166.592438,37.1292 171.909851,30.9552 176.966567,29.2622 C178.779502,28.6552 178.002388,25.7562 176.172537,26.3692" id="Fill-52"></path>
                    <path d="M170.942488,44.785 C173.850945,47.428 175.769353,50.728 176.63204,54.571 C177.05393,56.454 179.932537,55.657 179.510647,53.774 C178.543483,49.463 176.314627,45.628 173.052935,42.664 C171.631045,41.372 169.513632,43.487 170.942488,44.785" id="Fill-54"></path>
                    <path d="M177.592637,53.1863 C173.719005,50.8963 170.711045,47.4773 169.037413,43.2713 C168.332935,41.5003 165.445373,42.2723 166.159801,44.0683 C168.12995,49.0223 171.5001,53.0653 176.086169,55.7763 C177.745871,56.7573 179.249353,54.1653 177.592637,53.1863" id="Fill-56"></path>
                    <path d="M156.384876,43.4517 C158.590846,40.5367 161.206766,37.6647 163.070448,34.5157 C164.219701,32.5737 164.479403,30.6537 163.069453,28.8197 C161.896318,27.2947 159.797811,29.4317 160.959005,30.9417 C161.888358,32.1497 158.722189,35.4437 158.085373,36.2847 C156.659502,38.1687 155.233632,40.0537 153.807761,41.9377 C152.644577,43.4737 155.235622,44.9697 156.384876,43.4517" id="Fill-58"></path>
                    <path d="M161.50199,26.0888 C156.11592,30.8128 151.009453,37.0278 154.232338,44.5238 C154.991542,46.2908 157.563682,44.7648 156.809453,43.0088 C154.210448,36.9658 159.49403,31.8238 163.612438,28.2098 C165.063184,26.9378 162.943781,24.8238 161.50199,26.0888" id="Fill-60"></path>
                    <path d="M156.234428,45.2351 C161.043383,47.6441 164.220498,52.2651 164.549851,57.6881 C164.666269,59.6061 167.652338,59.6191 167.534925,57.6881 C167.143881,51.2511 163.511045,45.5351 157.740896,42.6451 C156.026468,41.7861 154.513035,44.3731 156.234428,45.2351" id="Fill-62"></path>
                    <path d="M165.735821,56.0772 C161.070149,53.8242 157.9199,49.4182 157.536816,44.1902 C157.396517,42.2762 154.410448,42.2612 154.551741,44.1902 C155.008458,50.4292 158.584577,55.9422 164.229353,58.6672 C165.952736,59.5002 167.468159,56.9142 165.735821,56.0772" id="Fill-64"></path>
                    <path d="M139.775323,42.3341 C142.011144,37.8741 143.310647,33.1671 143.693731,28.1891 C143.840995,26.2631 140.85592,26.2731 140.708657,28.1891 C140.367363,32.6291 139.191244,36.8441 137.198209,40.8201 C136.335522,42.5401 138.909652,44.0601 139.775323,42.3341" id="Fill-66"></path>
                    <path d="M141.443582,26.398 C135.705274,30.358 130.731144,37.828 136.186866,44.233 C137.437612,45.702 139.541095,43.572 138.297313,42.112 C134.214726,37.318 138.976915,31.73 142.95005,28.988 C144.524179,27.902 143.032637,25.301 141.443582,26.398" id="Fill-68"></path>
                    <path d="M138.463881,45.4491 C141.168358,47.3581 143.526567,49.6651 145.562388,52.2781 C146.744478,53.7971 148.84398,51.6611 147.672836,50.1571 C145.474826,47.3331 142.887761,44.9181 139.970348,42.8591 C138.395224,41.7461 136.901692,44.3461 138.463881,45.4491" id="Fill-70"></path>
                    <path d="M146.003184,51.4386 C141.690746,50.1226 138.381294,47.0306 136.602189,42.8896 C135.842985,41.1216 133.270846,42.6476 134.025075,44.4036 C136.101692,49.2386 140.213134,52.8076 145.209154,54.3316 C147.05194,54.8936 147.839005,51.9986 146.003184,51.4386" id="Fill-72"></path>
                    <path d="M121.576716,40.5354 C122.863284,36.5134 123.590647,32.4054 123.803582,28.1884 C123.901095,26.2594 120.91602,26.2644 120.818507,28.1884 C120.619502,32.1424 119.903085,35.9704 118.698109,39.7374 C118.109055,41.5804 120.990647,42.3694 121.576716,40.5354" id="Fill-74"></path>
                    <path d="M122.145075,26.7258 C114.247562,30.1788 114.009751,40.9498 121.530149,44.9728 C123.224677,45.8798 124.734129,43.2918 123.036617,42.3828 C117.34408,39.3368 117.817711,31.8668 123.651542,29.3158 C125.408756,28.5478 123.890348,25.9628 122.145075,26.7258" id="Fill-76"></path>
                    <path d="M117.249552,46.2419 C121.241592,50.2899 125.981891,53.2589 131.337114,55.1269 C133.155025,55.7619 133.937114,52.8649 132.130149,52.2339 C127.256517,50.5339 122.989851,47.8019 119.36,44.1209 C118.005771,42.7469 115.895323,44.8689 117.249552,46.2419" id="Fill-78"></path>
                    <path d="M125.588856,53.6395 C121.195821,52.7155 118.024677,49.2215 117.401791,44.7715 C117.136119,42.8675 114.259502,43.6775 114.523184,45.5685 C115.278408,50.9665 119.502289,55.4185 124.794826,56.5325 C126.669453,56.9265 127.471443,54.0355 125.588856,53.6395" id="Fill-80"></path>
                    <path d="M104.223085,43.7232 C106.592239,38.7112 107.669851,33.6352 107.43602,28.0902 C107.383284,26.8442 105.812139,26.0442 104.887761,27.0302 C101.318607,30.8362 97.0748259,36.0282 99.359403,41.6432 C100.176318,43.6502 101.726567,44.8532 103.393234,46.1362 C106.701692,48.6842 110.142488,51.0732 113.511642,53.5382 C113.631045,52.6242 113.749453,51.7102 113.868856,50.7972 C108.158408,53.1922 102.528557,50.8942 100.719602,44.8142 C100.170348,42.9692 97.2887562,43.7552 97.840995,45.6122 C100.066866,53.0922 107.427065,56.7252 114.661891,53.6892 C115.883781,53.1772 116.114627,51.7502 115.019104,50.9482 C111.650945,48.4852 108.196219,46.1052 104.899701,43.5462 C99.1265672,39.0632 103.064876,33.3462 106.999204,29.1512 C106.149453,28.7972 105.299701,28.4442 104.450945,28.0902 C104.663881,33.1402 103.803184,37.6442 101.64597,42.2092 C100.82607,43.9442 103.398209,45.4682 104.223085,43.7232" id="Fill-82"></path>
                    <path d="M87.36,45.1776 C90.3351244,40.5516 92.2376119,35.4496 92.9848756,29.9906 C93.1938308,28.4636 91.7152239,27.5726 90.4903483,28.5306 C85.5639801,32.3826 79.5271642,39.4026 85.2764179,45.3906 C86.6127363,46.7816 88.7221891,44.6596 87.3868657,43.2686 C82.9530348,38.6516 89.1948259,33.3156 92.600796,30.6516 C91.7699502,30.1656 90.9381095,29.6786 90.1062687,29.1926 C89.3898507,34.4296 87.640597,39.2196 84.7828856,43.6636 C83.7361194,45.2896 86.319204,46.7956 87.36,45.1776" id="Fill-84"></path>
                    <path d="M85.4166169,48.3526 C88.8842786,50.9356 92.3917413,53.4616 95.94,55.9316 C95.8385075,55.1466 95.73801,54.3616 95.6375124,53.5756 C94.0773134,55.0246 91.7200995,54.0466 90.5240796,52.6126 C89.1957214,51.0216 88.7041791,48.8366 88.1957214,46.8786 C87.7111443,45.0116 84.8305473,45.8036 85.3171144,47.6756 C86.1210945,50.7726 87.1479602,54.2936 89.9957214,56.1266 C92.4385075,57.6976 95.578806,57.7116 97.7479602,55.6976 C98.5021891,54.9976 98.1997015,53.8656 97.4464677,53.3416 C93.898209,50.8716 90.3907463,48.3456 86.9230846,45.7626 C85.378806,44.6116 83.8882587,47.2146 85.4166169,48.3526" id="Fill-86"></path>
                    <path d="M75.1093532,47.34 C78.0247761,41.061 79.3869652,34.437 79.0745274,27.51 C79.0158209,26.209 77.4864677,25.535 76.5262687,26.449 C71.0078607,31.706 69.8237811,40.039 73.5839801,46.665 C74.5362189,48.342 77.1163184,46.832 76.1620896,45.151 C73.0416915,39.654 74.0755224,32.916 78.6377114,28.571 C77.7879602,28.217 76.938209,27.864 76.0894527,27.51 C76.37801,33.901 75.2257711,40.023 72.5322388,45.826 C71.7242786,47.565 74.2964179,49.09 75.1093532,47.34" id="Fill-88"></path>
                    <path d="M74.0249751,50.0566 C77.0538308,51.3846 79.3652736,53.5686 80.8369154,56.5436 C81.5175124,55.8596 82.1981095,55.1756 82.8787065,54.4916 C79.6100498,53.0426 76.6816915,51.0916 74.1145274,48.5926 C72.7334328,47.2486 70.62,49.3676 72.0030846,50.7146 C74.7453731,53.3836 77.8787065,55.5336 81.3722388,57.0826 C82.7284577,57.6836 84.1145274,56.4456 83.4140299,55.0296 C81.7423881,51.6496 78.9762189,48.9766 75.5314428,47.4666 C73.7881592,46.7016 72.2667662,49.2856 74.0249751,50.0566" id="Fill-90"></path>
                    <path d="M60.3416915,48.1812 C62.6620896,43.1432 63.3456716,37.9022 62.3914428,32.4322 C62.1546269,31.0762 60.3018905,31.0832 59.6630846,32.0742 C56.7526368,36.5872 54.0899502,41.8932 57.1576119,47.0332 C58.1446766,48.6882 60.7267662,47.1812 59.7347264,45.5192 C57.2720398,41.3912 59.9725373,37.1052 62.240199,33.5882 C61.3307463,33.4682 60.4222886,33.3492 59.5128358,33.2292 C60.3158209,37.8342 59.719801,42.4232 57.7645771,46.6672 C56.9625871,48.4072 59.5347264,49.9332 60.3416915,48.1812" id="Fill-92"></path>
                    <path d="M57.1447761,51.2972 C60.7965174,52.7882 63.8631841,55.2392 66.2761194,58.3542 C66.8791045,57.5682 67.4820896,56.7832 68.0850746,55.9982 C64.421393,53.9922 61.621393,51.0212 59.7945274,47.2542 C58.9527363,45.5192 56.3776119,47.0382 57.2164179,48.7682 C59.2492537,52.9602 62.5069652,56.3582 66.578607,58.5882 C68.1597015,59.4542 69.3875622,57.5242 68.3875622,56.2322 C65.6363184,52.6812 62.0741294,50.0932 57.938806,48.4042 C56.1597015,47.6782 55.3855721,50.5792 57.1447761,51.2972" id="Fill-94"></path>
                    <path d="M46.9470647,50.0616 C47.75801,44.1036 47.2127363,38.3386 45.118209,32.6936 C44.7261692,31.6386 42.9540299,31.0316 42.3898507,32.3356 C39.9878607,37.8906 37.8216915,43.9396 41.2117413,49.5666 C42.2057711,51.2156 44.7878607,49.7096 43.7898507,48.0526 C41.0037811,43.4296 43.0147264,38.3646 44.9679602,33.8496 C44.0585075,33.7296 43.1490547,33.6106 42.239602,33.4906 C44.1311443,38.5896 44.8047761,43.8596 44.0684577,49.2636 C43.8117413,51.1516 46.6873632,51.9686 46.9470647,50.0616" id="Fill-96"></path>
                    <path d="M42.1840796,52.9101 C46.4447761,55.0621 50.0577114,58.0341 53.0149254,61.7921 L53.0149254,59.6711 C52.9024876,59.7821 44.7412935,52.4071 44.080597,51.8251 C42.641791,50.5571 40.5223881,52.6701 41.9701493,53.9461 C44.6726368,56.3291 47.3313433,58.7781 50.0855721,61.1011 C51.5701493,62.3551 53.4945274,63.4091 55.1253731,61.7921 C55.7472637,61.1751 55.6228856,60.3041 55.1253731,59.6711 C52.0268657,55.7331 48.1532338,52.5731 43.6905473,50.3201 C41.9791045,49.4551 40.4656716,52.0421 42.1840796,52.9101" id="Fill-98"></path>
                    <path d="M32.5849751,55.0704 C33.4486567,49.0914 31.6625871,43.3414 27.3889552,39.0464 C26.0287562,37.6794 23.9183085,39.8004 25.2785075,41.1684 C28.7372139,44.6444 30.4148259,49.3724 29.7063682,54.2724 C29.4337313,56.1614 32.3093532,56.9764 32.5849751,55.0704" id="Fill-100"></path>
                    <path d="M26.4321393,39.3294 C22.8888557,43.8224 23.2381095,50.4844 27.6500498,54.2994 C29.099801,55.5534 31.220199,53.4404 29.7614925,52.1784 C26.6878607,49.5204 25.9515423,44.7364 28.5425871,41.4504 C29.7236816,39.9534 27.6251741,37.8164 26.4321393,39.3294" id="Fill-102"></path>
                    <path d="M30.2491542,57.0547 C34.1406965,57.4427 37.5377114,59.3307 40.0839801,62.2857 C41.3436816,63.7477 43.4471642,61.6177 42.1944279,60.1637 C39.1098507,56.5847 34.9168159,54.5207 30.2491542,54.0547 C28.3387065,53.8637 28.3526368,56.8657 30.2491542,57.0547" id="Fill-104"></path>
                    <path d="M41.0292537,61.5131 C36.3327363,60.4621 32.4899502,57.5971 30.1546269,53.3671 C29.2222886,51.6781 26.6431841,53.1901 27.5765174,54.8811 C30.2640796,59.7481 34.8272637,63.1951 40.2352239,64.4061 C42.1068657,64.8251 42.9068657,61.9331 41.0292537,61.5131" id="Fill-106"></path>
                    <path d="M21.1031841,59.831 C19.4534328,55.007 17.1499502,50.521 14.140995,46.411 C13.0146269,44.872 10.4225871,46.367 11.5628856,47.925 C14.4235821,51.831 16.6544279,56.038 18.2245771,60.629 C18.8454726,62.444 21.7300498,61.664 21.1031841,59.831" id="Fill-108"></path>
                    <path d="M12.9444776,49.2748 C11.8310448,55.4038 16.5633831,59.3128 21.1534328,62.3228 C22.7673632,63.3808 24.2648756,60.7848 22.6599005,59.7328 C19.3942289,57.5908 14.9922388,54.6468 15.8230846,50.0728 C16.1653731,48.1848 13.2897512,47.3758 12.9444776,49.2748" id="Fill-110"></path>
                    <path d="M22.719403,62.6326 C26.0467662,64.6126 29.3641791,66.6086 32.6706468,68.6226 L32.6706468,66.0326 C28.759204,67.7596 24.3114428,66.6356 21.4646766,63.5226 C20.1621891,62.0986 18.0557214,64.2236 19.3542289,65.6436 C23.1761194,69.8226 29.0636816,70.8796 34.1771144,68.6226 C35.2487562,68.1496 35.0477612,66.5626 34.1771144,66.0326 C30.8706468,64.0186 27.5532338,62.0216 24.2258706,60.0426 C22.5691542,59.0566 21.0656716,61.6486 22.719403,62.6326" id="Fill-112"></path>
                    <g id="Group-116" transform="translate(0.000000, 61.486500)">
                        <path d="M14.1218905,10.9396 C11.2134328,6.0656 6.97363184,2.4636 1.77761194,0.2606 C0.0104477612,-0.4884 -0.761691542,2.4136 0.98358209,3.1536 C5.43333333,5.0396 9.0681592,8.3056 11.5447761,12.4536 C12.5318408,14.1076 15.1139303,12.6006 14.1218905,10.9396" id="Fill-114"></path>
                    </g>
                    <path d="M2.65930348,66.8932 C5.57671642,71.1922 9.56776119,74.3232 14.4155224,76.1442 C16.2175124,76.8212 16.9956219,73.9222 15.2095522,73.2512 C11.1339303,71.7212 7.68616915,68.9892 5.23641791,65.3792 C4.16079602,63.7932 1.57273632,65.2922 2.65930348,66.8932" id="Fill-117"></path>
                    <path d="M16.6779104,75.5501 C21.0381095,74.2011 25.4112438,74.0251 29.8570149,75.0781 C31.7246766,75.5201 32.5216915,72.6281 30.6500498,72.1851 C25.699801,71.0121 20.7485572,71.1521 15.8838806,72.6571 C14.0540299,73.2241 14.8351244,76.1201 16.6779104,75.5501" id="Fill-119"></path>
                    <path d="M30.0428856,73.9767 C27.0359204,75.9797 23.6160199,76.3817 20.22199,75.1547 C18.4110448,74.4997 17.6309453,77.3977 19.4279602,78.0477 C23.500597,79.5197 27.9453731,78.9677 31.5493532,76.5667 C33.1433831,75.5057 31.6508458,72.9057 30.0428856,73.9767" id="Fill-121"></path>
                </g>
            </g>
        </g>
    </g>
</svg>