<?xml version="1.0" encoding="UTF-8"?>
<svg width="75px" height="65px" viewBox="0 0 75 65" version="1.1" xmlns="http://www.w3.org/2000/svg" xmlns:xlink="http://www.w3.org/1999/xlink">
    <!-- Generator: Sketch 40.3 (33839) - http://www.bohemiancoding.com/sketch -->
    <title>Page 1</title>
    <desc>Created with Sketch.</desc>
    <defs>
        <polygon id="path-1" points="0 0.640166301 0 34.0611164 14.4503433 34.0611164 14.4503433 0.640166301 4.06575815e-20 0.640166301"></polygon>
    </defs>
    <g id="Page-1" stroke="none" stroke-width="1" fill="none" fill-rule="evenodd">
        <g id="Alternativ-2--&gt;-KB" transform="translate(-1193.000000, -460.000000)">
            <g id="1" transform="translate(0.000000, 120.000000)">
                <g id="Page-1" transform="translate(1193.000000, 340.000000)">
                    <path d="M59.4088,6.8936 C60.2728,5.2896 61.5368,4.1166 63.2008,3.3746 C62.5278,2.5036 61.8558,1.6316 61.1838,0.7606 C46.4168,14.1326 29.6068,24.8326 11.2748,32.6186 C9.3088,33.4536 11.0038,36.3226 12.9548,35.4936 C31.5478,27.5966 48.5668,16.6716 63.5368,3.1146 C64.9668,1.8196 63.1388,-0.4014 61.5198,0.5006 C59.3658,1.7006 57.8718,3.1376 56.5348,5.2136 C55.3708,7.0196 58.2508,8.6906 59.4088,6.8936" id="Fill-1" fill="#FFFFFF"></path>
                    <g id="Group-5" transform="translate(0.000000, 13.257800)">
                        <mask id="mask-2" fill="white">
                            <use xlink:href="#path-1"></use>
                        </mask>
                        <g id="Clip-4"></g>
                        <path d="M14.1815,20.6334 C10.2205,14.4284 6.6075,8.0434 3.3265,1.4534 C2.4905,-0.2276 -0.3045,0.9434 0.2845,2.7354 C3.4755,12.4404 3.4075,22.3674 0.0975,32.0304 C-0.5975,34.0614 2.6165,34.9344 3.3075,32.9154 C6.7915,22.7454 6.8525,12.0624 3.4945,1.8504 C2.4805,2.2784 1.4665,2.7054 0.4525,3.1334 C3.7325,9.7234 7.3465,16.1084 11.3075,22.3134 C12.4565,24.1144 15.3385,22.4464 14.1815,20.6334" id="Fill-3" fill="#FFFFFF" mask="url(#mask-2)"></path>
                    </g>
                    <path d="M3.5939,47.6001 C11.2829,47.5601 18.1929,50.4981 23.5149,56.0481 C24.9999,57.5981 27.3519,55.2421 25.8689,53.6941 C19.9759,47.5481 12.1099,44.2271 3.5939,44.2711 C1.4519,44.2821 1.4479,47.6111 3.5939,47.6001" id="Fill-6" fill="#FFFFFF"></path>
                    <path d="M27.2679,51.2004 C23.8479,47.5874 20.4279,43.9754 17.0079,40.3624 C15.5319,38.8034 13.1809,41.1604 14.6539,42.7164 C18.0739,46.3284 21.4939,49.9414 24.9139,53.5544 C26.3899,55.1134 28.7409,52.7564 27.2679,51.2004" id="Fill-8" fill="#FFFFFF"></path>
                    <path d="M17.3514,42.755 C35.7214,37.181 53.0804,27.243 68.2494,15.587 C69.9244,14.3 68.2684,11.407 66.5684,12.713 C51.6344,24.188 34.5494,34.058 16.4664,39.545 C14.4224,40.165 15.2934,43.379 17.3514,42.755" id="Fill-10" fill="#FFFFFF"></path>
                    <path d="M59.7494,5.8448 C61.6554,9.4398 64.5684,12.3678 68.1514,14.2948 C70.0384,15.3098 71.7214,12.4368 69.8324,11.4208 C66.7144,9.7428 64.2824,7.2928 62.6234,4.1648 C61.6204,2.2708 58.7454,3.9508 59.7494,5.8448" id="Fill-12" fill="#FFFFFF"></path>
                    <path d="M64.5602,14.8671 C62.9102,16.7191 61.0522,18.2921 58.9362,19.5861 C59.4962,20.5451 60.0562,21.5031 60.6162,22.4611 C61.4932,21.9111 62.3712,21.3601 63.2482,20.8101 C65.0592,19.6751 63.3902,16.7931 61.5682,17.9361 C60.6912,18.4861 59.8132,19.0361 58.9362,19.5861 C57.1262,20.7211 58.7802,23.5841 60.6162,22.4611 C62.9612,21.0261 65.0852,19.2741 66.9142,17.2211 C68.3352,15.6261 65.9892,13.2641 64.5602,14.8671" id="Fill-14" fill="#FFFFFF"></path>
                    <path d="M1.9465,50.7025 C10.4725,51.6105 17.3185,56.8535 23.8115,62.0285 C24.6445,62.6915 25.8245,62.6905 26.4255,61.6915 C27.2315,60.3515 27.7735,59.0965 28.2095,57.6065 C28.8115,55.5465 25.5995,54.6665 24.9995,56.7215 C24.7365,57.9215 24.2545,59.0185 23.5515,60.0105 C24.4225,59.8985 25.2945,59.7865 26.1655,59.6745 C18.8825,53.8695 11.4615,48.3865 1.9465,47.3735 C-0.1815,47.1475 -0.1655,50.4775 1.9465,50.7025" id="Fill-16" fill="#FFFFFF"></path>
                    <path d="M22.8591,47.3704 C30.9461,47.5954 77.5501,24.2034 68.6691,14.7504 C68.2621,14.3174 67.6121,14.1754 67.0501,14.3224 C66.8741,14.3684 66.6981,14.4144 66.5231,14.4594 C64.4521,15.0004 65.3301,18.2124 67.4081,17.6694 C65.7001,18.1154 63.9591,21.4144 62.5611,22.6514 C60.9941,24.0384 59.3271,25.3344 57.6601,26.5984 C54.3131,29.1354 50.8211,31.4804 47.2181,33.6364 C43.8531,35.6494 40.3911,37.4914 36.8411,39.1564 C32.8751,41.0154 27.3911,44.1674 22.8591,44.0414 C20.7161,43.9814 20.7181,47.3104 22.8591,47.3704" id="Fill-18" fill="#FFFFFF"></path>
                    <path d="M23.2694,44.6525 C39.3654,36.8585 57.4854,29.6135 70.3664,16.7875 C71.8864,15.2735 69.5324,12.9195 68.0124,14.4335 C55.3634,27.0275 37.4014,34.1215 21.5894,41.7785 C19.6614,42.7115 21.3474,45.5835 23.2694,44.6525" id="Fill-20" fill="#FFFFFF"></path>
                    <path d="M24.0344,43.6577 C24.7234,41.9077 22.6854,39.8577 20.9314,40.5607 C20.1264,40.8837 19.4704,41.6867 19.7684,42.6087 C20.0204,43.3877 20.9504,44.1177 21.8164,43.7707 C22.1394,43.6417 21.4034,43.7327 21.3574,43.7207 C21.2744,43.6987 20.9514,43.4347 21.0524,43.5377 C21.1494,43.6357 20.9394,43.3757 20.9174,43.3277 C20.8484,43.2137 20.8314,43.0877 20.8694,42.9497 C20.9004,42.6367 20.8854,42.5777 20.8244,42.7727 C20.5044,43.5847 21.1744,44.6347 21.9864,44.8207 C22.9444,45.0387 23.6924,44.5277 24.0344,43.6577" id="Fill-22" fill="#FFFFFF"></path>
                    <path d="M2.3694,49.282 C10.8124,47.506 19.1024,50.32 24.8604,56.699 C25.3994,55.772 25.9394,54.844 26.4794,53.917 C21.1054,52.257 15.7304,50.597 10.3564,48.936 C10.0614,50.006 9.7664,51.076 9.4714,52.146 C15.0404,53.594 20.3554,55.56 25.5124,58.119 C25.9394,57.105 26.3674,56.091 26.7954,55.077 C23.1194,53.973 19.4444,52.869 15.7694,51.766 C13.7024,51.145 12.8704,54.292 14.8844,54.976 C17.4674,55.853 19.8304,56.976 22.1534,58.392 C23.6364,59.296 25.1694,57.538 24.4304,56.114 C23.6994,54.705 22.9244,53.945 21.4774,53.31 C19.7024,52.531 18.2844,54.405 19.4604,55.924 C20.8694,57.745 22.2854,58.875 24.3514,59.869 C25.4774,60.41 26.8344,59.765 26.8564,58.431 L26.9364,53.61 C26.9724,51.446 23.7634,51.496 23.6074,53.61 C23.3844,56.622 23.6014,59.402 24.2264,62.355 C24.5904,64.076 26.9344,63.793 27.4364,62.355 C28.2004,60.168 28.2044,58.289 27.4414,56.093 C26.7434,54.081 23.5264,54.946 24.2314,56.978 C24.9614,58.476 24.9594,59.974 24.2264,61.47 L27.4364,61.47 C26.8764,58.825 26.7374,56.295 26.9364,53.61 L23.6074,53.61 L23.5274,58.431 C24.3624,57.952 25.1974,57.473 26.0314,56.994 C24.2764,56.15 23.0064,55.111 21.8144,53.57 C21.1414,54.442 20.4694,55.313 19.7974,56.184 C20.3834,56.721 20.9694,57.258 21.5564,57.795 C22.3154,57.035 23.0744,56.276 23.8334,55.517 C21.2484,53.942 18.6344,52.738 15.7694,51.766 C15.4744,52.836 15.1794,53.906 14.8844,54.976 C18.5594,56.079 22.2344,57.183 25.9104,58.287 C27.6844,58.82 28.9064,56.095 27.1924,55.245 C21.7804,52.559 16.2074,50.458 10.3564,48.936 C8.2764,48.396 7.4274,51.515 9.4714,52.146 C14.8454,53.807 20.2204,55.467 25.5944,57.127 C27.2604,57.642 28.2764,55.522 27.2144,54.345 C20.6534,47.077 11.0324,44.063 1.4844,46.072 C-0.6106,46.513 0.2754,49.722 2.3694,49.282" id="Fill-24" fill="#FFFFFF"></path>
                    <path d="M25.2344,53.7726 L25.2344,62.6496 C25.2344,64.7916 28.5634,64.7956 28.5634,62.6496 L28.5634,53.7726 C28.5634,51.6306 25.2344,51.6266 25.2344,53.7726" id="Fill-26" fill="#FFFFFF"></path>
                    <path d="M25.4089,49.3144 C36.4499,48.0754 46.7309,41.6534 55.6999,35.4994 C60.2599,32.3704 64.6819,29.0234 68.9189,25.4694 C72.7259,22.2764 76.5419,19.6794 72.8649,14.7414 C71.9849,13.5594 69.6309,13.7564 69.7639,15.5814 C69.8859,17.2754 70.1219,18.9564 70.2449,20.6504 C70.3009,21.4364 70.7309,21.9924 71.4669,22.2554 C71.6169,22.3084 71.7669,22.3624 71.9169,22.4154 C72.5439,22.6394 73.5139,22.2794 73.7969,21.6504 C74.5649,19.9404 73.4809,18.4354 73.1249,16.7404 C72.7139,14.7914 70.0069,15.4224 69.8549,17.1824 C69.7079,17.3064 69.5609,17.4304 69.4129,17.5534 C67.3439,18.0994 68.2209,21.3114 70.2979,20.7644 C72.2889,20.2394 73.0119,19.1714 73.1839,17.1824 C72.0939,17.3304 71.0039,17.4774 69.9149,17.6254 C70.0539,18.2894 70.6219,20.6394 70.9219,19.9704 C71.5489,19.7154 72.1759,19.4604 72.8019,19.2054 C72.6519,19.1524 72.5019,19.0984 72.3519,19.0444 C72.7589,19.5794 73.1659,20.1144 73.5739,20.6504 C73.4509,18.9564 73.2149,17.2754 73.0929,15.5814 C72.0589,15.8614 71.0249,16.1414 69.9909,16.4214 C73.5809,21.2424 53.0969,33.3144 49.7949,35.4194 C42.4779,40.0824 34.1959,44.9994 25.4089,45.9854 C23.3039,46.2214 23.2799,49.5534 25.4089,49.3144" id="Fill-28" fill="#FFFFFF"></path>
                    <path d="M68.084,13.4157 C67.79,14.5007 67.731,15.4657 67.882,16.5897 C68.064,17.9497 69.037,20.1127 68.319,21.4227 C67.631,22.6787 65.372,23.4807 64.206,24.1667 C62.399,25.2297 60.592,26.2937 58.785,27.3567 C56.94,28.4427 58.613,31.3217 60.465,30.2317 C62.601,28.9747 64.737,27.7177 66.872,26.4607 C68.222,25.6667 69.758,24.9427 70.75,23.6867 C73.164,20.6317 70.414,17.5527 71.294,14.3007 C71.854,12.2297 68.644,11.3467 68.084,13.4157" id="Fill-30" fill="#FFFFFF"></path>
                    <path d="M29.8468,42.7376 C36.1008,41.0086 41.9958,38.4136 47.4858,34.9556 C49.2948,33.8166 47.6258,30.9346 45.8058,32.0806 C40.5408,35.3976 34.9608,37.8696 28.9618,39.5276 C26.8998,40.0976 27.7758,43.3106 29.8468,42.7376" id="Fill-32" fill="#FFFFFF"></path>
                    <path d="M60.7741,4.2579 C64.3231,8.8949 67.7731,13.6019 71.1281,18.3809 C72.3491,20.1209 75.2371,18.4599 74.0021,16.7009 C70.6481,11.9219 67.1971,7.2139 63.6481,2.5779 C62.3641,0.8989 59.4711,2.5559 60.7741,4.2579" id="Fill-34" fill="#FFFFFF"></path>
                </g>
            </g>
        </g>
    </g>
</svg>