<?xml version="1.0" encoding="UTF-8"?>
<svg width="201px" height="201px" viewBox="0 0 201 201" version="1.1" xmlns="http://www.w3.org/2000/svg" xmlns:xlink="http://www.w3.org/1999/xlink">
    <!-- Generator: Sketch 40.3 (33839) - http://www.bohemiancoding.com/sketch -->
    <title>Registrering</title>
    <desc>Created with Sketch.</desc>
    <defs></defs>
    <g id="Page-2" stroke="none" stroke-width="1" fill="none" fill-rule="evenodd">
        <g id="Registrering">
            <polygon id="Shape" points="0 0 201 0 201 201 0 201"></polygon>
            <g id="laptop">
                <g id="Page-1">
                    <g>
                        <g id="laptop">
                            <g id="Shape">
                                <polygon points="0 0 201 0 201 201 0 201"></polygon>
                                <path d="M153.416667,127.25 L153.416667,65.3 C153.416667,61.81925 150.575042,59 147.066667,59 L53.9333333,59 C50.4249583,59 47.5833333,61.81925 47.5833333,65.3 L47.5833333,127.25 L153.416667,127.25 L153.416667,127.25 L153.416667,127.25 Z M58.1666667,69.5 L142.833333,69.5 L142.833333,116.75 L58.1666667,116.75 L58.1666667,69.5 L58.1666667,69.5 L58.1666667,69.5 Z M164,132.5 L164,136.7 C164,140.18075 161.158375,143 157.65,143 L43.35,143 C39.841625,143 37,140.18075 37,136.7 L37,132.5 L89.9166667,132.5 C89.9166667,133.949 91.102,135.125 92.5625,135.125 L108.4375,135.125 C109.898,135.125 111.083333,133.949 111.083333,132.5 L164,132.5 L164,132.5 L164,132.5 Z" fill="#000000"></path>
                            </g>
                        </g>
                    </g>
                </g>
            </g>
        </g>
    </g>
</svg>