<?xml version="1.0" encoding="UTF-8"?>
<svg width="200px" height="200px" viewBox="0 0 200 200" version="1.1" xmlns="http://www.w3.org/2000/svg" xmlns:xlink="http://www.w3.org/1999/xlink">
    <!-- Generator: Sketch 40.3 (33839) - http://www.bohemiancoding.com/sketch -->
    <title>rightkrumelur</title>
    <desc>Created with Sketch.</desc>
    <defs></defs>
    <g id="Page-1" stroke="none" stroke-width="1" fill="none" fill-rule="evenodd">
        <g id="rightkrumelur">
            <g id="ic_add_circle_outline_black_24px">
                <g id="Group">
                    <polygon id="Shape" points="0 0 200 0 200 200 0 200"></polygon>
                </g>
            </g>
            <g id="Page-1" transform="translate(100.000000, 100.000000) scale(-1, 1) rotate(-299.000000) translate(-100.000000, -100.000000) translate(34.000000, 54.000000)" fill="#215867">
                <path d="M82.5567606,15.9129065 C83.1420952,15.7000544 83.7258436,15.4887446 84.3111782,15.2758925 L82.6297291,11.3273311 C61.0183495,29.6372421 39.4085562,47.9486955 17.7987628,66.260149 C15.4859772,68.2190056 18.8631518,71.4811959 21.1648336,69.5315938 L85.9942135,14.5987759 C87.5900039,13.2460852 86.2749838,10.6548418 84.3111782,10.6486721 C82.1839865,10.6425025 81.8619731,10.6733506 80.1551436,11.9180729 C77.7329052,13.6810439 80.1027966,17.700556 82.5567606,15.9129065" id="Fill-1"></path>
                <path d="M97.6642514,23.6687515 C97.7905083,44.0676022 95.2364687,64.1728677 90.0051751,83.8917567 C89.2506762,86.7332968 93.6514126,87.945667 94.4059115,85.1041269 C99.7406445,65.0003826 102.357052,44.4691903 102.227753,23.6687515 C102.209499,20.732899 97.6459974,20.7268143 97.6642514,23.6687515" id="Fill-3"></path>
                <path d="M69.4464497,0.228479297 C46.3171041,-0.927607693 23.4676532,2.30487238 1.56893174,9.83769182 C-1.19198653,10.7869001 -0.00547620153,15.1967635 2.78130191,14.2369071 C24.3210279,6.82882331 46.698917,3.65566876 69.4464497,4.79198057 C72.3823022,4.93801262 72.3746964,0.374511338 69.4464497,0.228479297" id="Fill-5"></path>
                <g id="Group-9" transform="translate(106.481696, 30.436880)">
                    <path d="M0.532104249,3.5259132 C11.7142035,20.0488302 18.3221534,38.7500584 19.8265877,58.6545298 C20.0456357,61.5660436 24.6121793,61.5888611 24.3900889,58.6545298 C22.824808,37.9514457 16.1149399,18.4257449 4.47192702,1.22286623 C2.83515123,-1.19578945 -1.11988321,1.08444002 0.532104249,3.5259132" id="Fill-7"></path>
                </g>
            </g>
        </g>
    </g>
</svg>