<?xml version="1.0" encoding="UTF-8"?>
<svg width="305px" height="86px" viewBox="0 0 305 86" version="1.1" xmlns="http://www.w3.org/2000/svg" xmlns:xlink="http://www.w3.org/1999/xlink">
    <!-- Generator: Sketch 40.3 (33839) - http://www.bohemiancoding.com/sketch -->
    <title>RightKrans</title>
    <desc>Created with Sketch.</desc>
    <defs>
        <polygon id="path-1" points="5.39404066e-20 0.0347120498 5.39404066e-20 5.70620788 20.7478655 5.70620788 20.7478655 0.0347120498 0 0.0347120498"></polygon>
    </defs>
    <g id="Page-1" stroke="none" stroke-width="1" fill="none" fill-rule="evenodd">
        <g id="krans" transform="translate(-947.000000, -75.000000)">
            <g id="VANLIGA-FRÅGOR" transform="translate(0.000000, -20.000000)">
                <g id="RightKrans" transform="translate(947.263682, 95.000000)">
                    <path d="M14.9872637,18.0576 C17.4429851,34.0266 40.880796,39.7436 53.9026866,42.3136 C72.9434826,46.0726 92.6220896,45.6346 111.933532,45.4816 C154.710647,45.1416 197.790249,43.0326 240.308657,49.0006 C251.252935,50.5376 263.000199,51.9396 273.348458,56.0326 C283.157413,59.9126 294.462886,72.1676 285.880796,82.8526 C284.684776,84.3416 286.784279,86.4766 287.991244,84.9736 C298.048955,72.4516 286.290746,57.8716 274.142488,53.1396 C264.618109,49.4306 253.998209,48.0206 243.947463,46.5216 C233.386269,44.9456 222.757413,43.8636 212.104677,43.1486 C168.068856,40.1896 123.982289,44.0966 79.9454726,42.1806 C68.3713433,41.6776 56.7524378,40.4496 45.5842786,37.2336 C35.6111443,34.3606 19.7126368,29.2696 17.8658706,17.2596 C17.5733333,15.3576 14.6967164,16.1656 14.9872637,18.0576" id="Fill-1" fill="#FFFFFF"></path>
                    <path d="M17.2674627,16.8504 C14.6435821,16.4504 13.3679602,12.5594 12.7808955,10.4064 C12.079403,7.8324 12.0067662,5.2404 12.4495522,2.6174 C12.7689552,0.7284 9.89233831,-0.0826 9.57094527,1.8194 C8.92218905,5.6624 9.13114428,9.4774 10.5430846,13.1374 C11.6097512,15.9044 13.2595025,19.2534 16.4734328,19.7434 C18.3530348,20.0294 19.1639801,17.1394 17.2674627,16.8504" id="Fill-3" fill="#FFFFFF"></path>
                    <path d="M10.0179104,2.4822 C14.7283582,6.3312 16.7432836,12.2952 15.1532338,18.2112 C14.6517413,20.0772 17.5303483,20.8732 18.0318408,19.0082 C19.8756219,12.1492 17.6348259,4.8602 12.1283582,0.3612 C10.6507463,-0.8468 8.52636816,1.2632 10.0179104,2.4822" id="Fill-5" fill="#FFFFFF"></path>
                    <path d="M26.0772139,28.8249 C25.0722388,23.4839 26.6344279,18.1989 30.3170149,14.2289 C31.6254726,12.8179 29.519005,10.6919 28.2065672,12.1069 C23.759801,16.9019 21.9896517,23.1919 23.198607,29.6229 C23.5548259,31.5169 26.4324378,30.7149 26.0772139,28.8249" id="Fill-7" fill="#FFFFFF"></path>
                    <path d="M27.6912438,13.1375 C29.5847761,19.3885 27.6345274,25.8245 22.6723383,30.0235 C21.2006965,31.2685 23.3210945,33.3815 24.7827861,32.1445 C30.5111443,27.2985 32.7459701,19.5265 30.5698507,12.3395 C30.0116418,10.4985 27.1300498,11.2835 27.6912438,13.1375" id="Fill-9" fill="#FFFFFF"></path>
                    <g id="Group-13" transform="translate(0.000000, 27.486600)">
                        <mask id="mask-2" fill="white">
                            <use xlink:href="#path-1"></use>
                        </mask>
                        <g id="Clip-12"></g>
                        <path d="M19.3224876,0.2641 C13.020995,-0.4109 6.91154229,0.4041 1.00308458,2.7051 C-0.769054726,3.3961 0.00109452736,6.2981 1.79711443,5.5981 C7.46676617,3.3901 13.2777114,2.6171 19.3224876,3.2641 C21.2299502,3.4681 21.2160199,0.4671 19.3224876,0.2641" id="Fill-11" fill="#FFFFFF" mask="url(#mask-2)"></path>
                    </g>
                    <path d="M6.68537313,33.38 C12.521194,35.969 18.8117413,36.176 24.719204,33.672 C26.4624876,32.933 25.6963184,30.028 23.9261692,30.779 C18.798806,32.953 13.3142289,33.062 8.1918408,30.79 C6.45054726,30.017 4.93014925,32.601 6.68537313,33.38" id="Fill-14" fill="#FFFFFF"></path>
                    <path d="M38.2985075,34.6779 C37.6825871,29.7339 38.3641791,24.9459 40.5004975,20.4339 C41.321393,18.6999 38.7482587,17.1759 37.9223881,18.9199 C35.5661692,23.8979 34.6308458,29.1969 35.3134328,34.6779 C35.5492537,36.5679 38.5373134,36.5919 38.2985075,34.6779" id="Fill-16" fill="#FFFFFF"></path>
                    <path d="M36.1430846,20.6177 C38.7858706,25.8217 36.9271642,32.3047 31.9918408,35.3597 C30.359005,36.3707 31.8565174,38.9667 33.4983085,37.9497 C39.8624876,34.0107 42.1102488,25.7797 38.720199,19.1037 C37.8475622,17.3837 35.2704478,18.8997 36.1430846,20.6177" id="Fill-18" fill="#FFFFFF"></path>
                    <path d="M37.4487562,34.5536 C30.8686567,36.0166 23.6756219,38.1036 20.7741294,44.8866 C20.0238806,46.6416 22.5940299,48.1716 23.3512438,46.4006 C25.9512438,40.3226 32.3820896,38.7496 38.2427861,37.4466 C40.1174129,37.0296 39.3233831,34.1366 37.4487562,34.5536" id="Fill-20" fill="#FFFFFF"></path>
                    <path d="M30.5525373,45.5196 C35.0410945,42.8516 38.2490547,38.6286 39.619204,33.5716 C40.1246766,31.7066 37.2460697,30.9106 36.741592,32.7746 C35.5704478,37.0966 32.8818905,40.6486 29.0460697,42.9296 C27.3933333,43.9116 28.8938308,46.5056 30.5525373,45.5196" id="Fill-22" fill="#FFFFFF"></path>
                    <path d="M51.1260697,39.0991 C49.3618905,32.6501 50.181791,26.3651 53.5459701,20.5861 L50.8176119,20.2281 C51.9927363,23.1621 52.8265672,26.2771 52.5141294,29.4721 C52.061393,34.1141 49.0514428,36.4381 45.3738308,38.6991 C41.2554229,41.2321 38.4962189,44.3421 37.0166169,49.0091 C36.700199,50.0071 37.7917413,51.3021 38.8524378,50.8541 C44.7539303,48.3641 49.780796,44.8891 54.1061692,40.1461 C55.4026866,38.7241 53.2972139,36.5971 51.9957214,38.0241 C48.0414925,42.3611 43.4574129,45.6841 38.059403,47.9611 C38.6713433,48.5761 39.2832836,49.1911 39.8952239,49.8071 C41.3370149,45.2581 44.259403,42.9531 48.1230846,40.5661 C50.3579104,39.1851 52.4275622,37.7141 53.7658706,35.3771 C56.5708458,30.4791 55.698209,24.4281 53.6962189,19.4301 C53.2385075,18.2871 51.6693532,17.8681 50.9678607,19.0721 C47.2126368,25.5221 46.2753234,32.6871 48.2474627,39.8971 C48.7559204,41.7561 51.6365174,40.9661 51.1260697,39.0991" id="Fill-24" fill="#FFFFFF"></path>
                    <path d="M66.3110448,42.6606 C65.5926368,36.3366 65.4762189,30.0296 65.9627861,23.6846 C65.1130348,24.0376 64.2642786,24.3916 63.4145274,24.7446 C67.4304478,28.3416 70.52199,35.5166 64.3757214,38.8946 C62.6901493,39.8206 64.1946269,42.4126 65.8831841,41.4846 C73.6851741,37.1966 71.0453731,27.5676 65.5249751,22.6236 C64.5229851,21.7256 63.078209,22.3736 62.9777114,23.6846 C62.4911443,30.0296 62.6075622,36.3376 63.3259701,42.6606 C63.5418905,44.5566 66.5289552,44.5786 66.3110448,42.6606" id="Fill-26" fill="#FFFFFF"></path>
                    <path d="M64.5645771,43.1542 C60.5436816,46.4172 57.2660697,50.4012 54.8073632,54.9682 C54.2352239,56.0312 55.2033831,57.6452 56.4929353,57.1712 C62.3426866,55.0252 66.2859701,49.8932 66.918806,43.6752 C67.1138308,41.7562 64.1277612,41.7702 63.9337313,43.6752 C63.4461692,48.4672 60.1934328,52.6292 55.6989055,54.2782 C56.2610945,55.0132 56.8232836,55.7472 57.3844776,56.4822 C59.7337313,52.1202 62.8372139,48.3912 66.6750249,45.2752 C68.1705473,44.0622 66.0461692,41.9512 64.5645771,43.1542" id="Fill-28" fill="#FFFFFF"></path>
                    <path d="M79.9753234,42.6047 C77.518607,37.3567 77.1166169,31.7367 78.679801,26.1677 C77.7703483,26.2877 76.8608955,26.4067 75.9524378,26.5267 C78.6290547,31.0747 81.9265672,37.2217 77.8907463,42.0427 C76.6618905,43.5107 78.7633831,45.6437 80.0021891,44.1637 C85.0240796,38.1627 82.0260697,30.9517 78.5295522,25.0117 C77.8748259,23.8987 76.1504478,24.1267 75.801194,25.3707 C74.0121393,31.7467 74.5972139,38.1357 77.398209,44.1187 C78.2151244,45.8647 80.7892537,44.3437 79.9753234,42.6047" id="Fill-30" fill="#FFFFFF"></path>
                    <path d="M77.5048756,44.6579 C74.6023881,47.1199 72.200398,50.0489 70.3267662,53.3689 C69.9277612,54.0759 70.160597,55.0039 70.8620896,55.4209 C73.3048756,56.8719 75.4372139,54.9279 77.0282587,53.1369 C79.319801,50.5579 81.4541294,47.8469 83.4700498,45.0459 C84.2282587,43.9929 82.9685572,42.4369 81.7844776,42.8429 C81.398408,42.9759 81.0113433,43.1079 80.6252736,43.2409 C78.8173134,43.8609 79.5934328,46.7599 81.4193035,46.1339 C81.8053731,46.0009 82.1914428,45.8679 82.5785075,45.7359 C82.0163184,45.0009 81.4541294,44.2669 80.8929353,43.5319 C79.5695522,45.3709 78.1924378,47.1659 76.7397015,48.9039 C76.1476617,49.6119 73.4879602,53.4949 72.3695522,52.8309 C72.5476617,53.5149 72.7257711,54.1989 72.9048756,54.8829 C74.6660697,51.7619 76.8889552,49.0919 79.6153234,46.7789 C81.0859701,45.5319 78.9645771,43.4189 77.5048756,44.6579" id="Fill-32" fill="#FFFFFF"></path>
                    <path d="M97.799801,41.8823 C94.8684577,37.6113 93.2515423,32.8793 93.0485572,27.6853 C92.9739303,25.7613 89.9888557,25.7513 90.0634826,27.6853 C90.2853731,33.3763 92.001791,38.7033 95.2226866,43.3963 C96.3062687,44.9753 98.8943284,43.4773 97.799801,41.8823" id="Fill-34" fill="#FFFFFF"></path>
                    <path d="M92.441791,31.2023 C95.7850746,34.2113 96.4925373,39.0583 94.0995025,42.8873 C93.0746269,44.5273 95.6557214,46.0343 96.6766169,44.4013 C99.7412935,39.4983 98.8527363,32.9503 94.5522388,29.0813 C93.1253731,27.7963 91.0069652,29.9113 92.441791,31.2023" id="Fill-36" fill="#FFFFFF"></path>
                    <path d="M94.8958209,44.6305 C92.1147264,47.3095 89.8490547,50.4345 88.1853731,53.9275 C87.3604975,55.6605 89.9326368,57.1845 90.7634826,55.4415 C92.3256716,52.1615 94.3933333,49.2695 97.0062687,46.7515 C98.3963184,45.4135 96.2838806,43.2935 94.8958209,44.6305" id="Fill-38" fill="#FFFFFF"></path>
                    <path d="M92.6162189,56.8709 C97.1684577,53.5949 101.925672,49.4109 100.585373,43.1789 C100.180398,41.2929 97.301791,42.0909 97.7077612,43.9759 C98.7187065,48.6779 94.4231841,51.8959 91.1097512,54.2809 C89.5614925,55.3949 91.0500498,57.9979 92.6162189,56.8709" id="Fill-40" fill="#FFFFFF"></path>
                    <path d="M117.019701,41.9865 C112.790846,38.3155 109.77791,33.7165 108.16398,28.3365 C107.611741,26.4925 104.729154,27.2785 105.285373,29.1335 C107.041592,34.9875 110.301294,40.1075 114.909254,44.1075 C116.35602,45.3645 118.476418,43.2515 117.019701,41.9865" id="Fill-42" fill="#FFFFFF"></path>
                    <path d="M106.053632,27.3694 C112.045672,28.8814 115.800896,35.2094 114.200896,41.2234 C113.704378,43.0914 116.582985,43.8874 117.079502,42.0214 C119.091443,34.4584 114.418806,26.3874 106.847662,24.4764 C104.98398,24.0064 104.188955,26.8984 106.053632,27.3694" id="Fill-44" fill="#FFFFFF"></path>
                    <path d="M114.505373,43.7161 C109.996915,46.2041 106.737214,50.2901 105.240697,55.2281 C104.680498,57.0791 107.5601,57.8701 108.119303,56.0251 C109.396915,51.8101 112.175025,48.4241 116.011841,46.3061 C117.696418,45.3771 116.19194,42.7851 114.505373,43.7161" id="Fill-46" fill="#FFFFFF"></path>
                    <path d="M108.202886,57.6306 C114.112338,54.9916 117.252637,48.6276 116.235721,42.2996 C115.930249,40.3986 113.052637,41.2056 113.357114,43.0976 C114.173035,48.1706 111.286468,52.9906 106.696418,55.0406 C104.944179,55.8226 106.460597,58.4086 108.202886,57.6306" id="Fill-48" fill="#FFFFFF"></path>
                    <path d="M135.060299,41.9209 C132.340896,37.7529 131.065274,33.1709 131.253333,28.1859 C131.32597,26.2549 128.340896,26.2589 128.268259,28.1859 C128.062289,33.6479 129.5001,38.8629 132.483184,43.4349 C133.53194,45.0429 136.11801,43.5419 135.060299,41.9209" id="Fill-50" fill="#FFFFFF"></path>
                    <path d="M127.827363,29.2619 C132.883085,30.9549 138.200498,37.1289 133.027363,41.9779 C131.619403,43.2969 133.733831,45.4149 135.138806,44.0989 C137.929851,41.4829 138.750746,37.4539 137.390547,33.8749 C135.91791,29.9989 132.398507,27.6339 128.621393,26.3689 C126.794527,25.7569 126.010448,28.6539 127.827363,29.2619" id="Fill-52" fill="#FFFFFF"></path>
                    <path d="M131.7401,42.6636 C128.478408,45.6276 126.250547,49.4626 125.283383,53.7736 C124.861493,55.6536 127.738109,56.4566 128.16199,54.5716 C129.023682,50.7266 130.943085,47.4276 133.850547,44.7846 C135.278408,43.4876 133.162985,41.3706 131.7401,42.6636" id="Fill-54" fill="#FFFFFF"></path>
                    <path d="M128.707463,55.7767 C133.293532,53.0647 136.664677,49.0207 138.633831,44.0687 C139.347264,42.2757 136.461692,41.4967 135.755224,43.2707 C134.082587,47.4777 131.073632,50.8967 127.200995,53.1867 C125.546269,54.1647 127.046766,56.7587 128.707463,55.7767" id="Fill-56" fill="#FFFFFF"></path>
                    <path d="M150.98607,41.9375 C149.560199,40.0535 148.134328,38.1695 146.708458,36.2845 C146.000995,35.3505 142.877612,32.1865 143.834826,30.9415 C144.995025,29.4325 142.897512,27.2935 141.724378,28.8195 C140.312438,30.6555 140.567164,32.5625 141.723383,34.5155 C143.58806,37.6675 146.200995,40.5345 148.408955,43.4515 C149.556219,44.9685 152.150249,43.4755 150.98607,41.9375" id="Fill-58" fill="#FFFFFF"></path>
                    <path d="M141.180597,28.2101 C145.302985,31.8261 150.591542,36.9451 147.983582,43.0091 C147.230348,44.7631 149.800498,46.2931 150.561692,44.5231 C153.783582,37.0281 148.676119,30.8121 143.291045,26.0891 C141.849254,24.8241 139.729851,26.9381 141.180597,28.2101" id="Fill-60" fill="#FFFFFF"></path>
                    <path d="M147.052338,42.6446 C141.282189,45.5346 137.650348,51.2506 137.258308,57.6876 C137.141891,59.6156 140.126965,59.6086 140.243383,57.6876 C140.573731,52.2646 143.747861,47.6446 148.558806,45.2346 C150.278209,44.3736 148.767761,41.7846 147.052338,42.6446" id="Fill-62" fill="#FFFFFF"></path>
                    <path d="M140.564179,58.6675 C146.208955,55.9415 149.785075,50.4295 150.241791,44.1905 C150.383085,42.2645 147.397015,42.2735 147.256716,44.1905 C146.873632,49.4175 143.723383,53.8235 139.057711,56.0775 C137.326368,56.9125 138.838806,59.5005 140.564179,58.6675" id="Fill-64" fill="#FFFFFF"></path>
                    <path d="M167.595622,40.8199 C165.601592,36.8429 164.426468,32.6279 164.085174,28.1889 C163.93791,26.2759 160.951841,26.2599 161.1001,28.1889 C161.482189,33.1679 162.782687,37.8749 165.018507,42.3339 C165.883184,44.0589 168.458308,42.5409 167.595622,40.8199" id="Fill-66" fill="#FFFFFF"></path>
                    <path d="M161.843184,28.9883 C165.823284,31.7353 170.591443,37.3033 166.49592,42.1113 C165.253134,43.5713 167.354627,45.7023 168.606368,44.2333 C174.0601,37.8303 169.086965,30.3573 163.349652,26.3983 C161.762587,25.3023 160.26806,27.9013 161.843184,28.9883" id="Fill-68" fill="#FFFFFF"></path>
                    <path d="M164.822886,42.8586 C161.905473,44.9186 159.319403,47.3336 157.120398,50.1566 C155.950249,51.6606 158.047761,53.7986 159.231841,52.2786 C161.266667,49.6646 163.625871,47.3586 166.329353,45.4486 C167.889552,44.3476 166.4,41.7456 164.822886,42.8586" id="Fill-70" fill="#FFFFFF"></path>
                    <path d="M159.583682,54.3314 C164.580697,52.8074 168.691144,49.2394 170.768756,44.4034 C171.52199,42.6494 168.951841,41.1194 168.191642,42.8894 C166.412537,47.0304 163.103085,50.1224 158.789652,51.4384 C156.956816,51.9974 157.73791,54.8944 159.583682,54.3314" id="Fill-72" fill="#FFFFFF"></path>
                    <path d="M186.095124,39.7378 C184.890149,35.9698 184.173731,32.1428 183.974726,28.1888 C183.877214,26.2668 180.892139,26.2558 180.989652,28.1888 C181.202587,32.4058 181.92995,36.5138 183.216517,40.5358 C183.802587,42.3658 186.685174,41.5828 186.095124,39.7378" id="Fill-74" fill="#FFFFFF"></path>
                    <path d="M181.141692,29.3161 C186.953632,31.8571 187.48199,39.3191 181.756617,42.3831 C180.061095,43.2901 181.566567,45.8811 183.26408,44.9731 C190.778507,40.9521 190.552637,30.1811 182.648159,26.7261 C180.903881,25.9631 179.382488,28.5471 181.141692,29.3161" id="Fill-76" fill="#FFFFFF"></path>
                    <path d="M185.433035,44.1205 C181.803184,47.8015 177.536517,50.5335 172.662886,52.2345 C170.858905,52.8635 171.635025,55.7625 173.456915,55.1275 C178.810149,53.2595 183.552438,50.2895 187.543483,46.2415 C188.897711,44.8685 186.787264,42.7465 185.433035,44.1205" id="Fill-78" fill="#FFFFFF"></path>
                    <path d="M179.998109,56.5323 C185.291642,55.4183 189.514527,50.9673 190.269751,45.5683 C190.534428,43.6803 187.657811,42.8643 187.391144,44.7713 C186.769254,49.2213 183.597114,52.7153 179.20408,53.6393 C177.325473,54.0353 178.120498,56.9273 179.998109,56.5323" id="Fill-80" fill="#FFFFFF"></path>
                    <path d="M203.147861,42.209 C200.990647,37.644 200.12995,33.14 200.342886,28.09 C199.493134,28.444 198.644378,28.797 197.794627,29.151 C201.73791,33.356 205.882189,38.909 199.894129,43.546 C196.592637,46.101 193.143881,48.484 189.774726,50.948 C188.671244,51.755 188.91602,53.179 190.130945,53.69 C197.362786,56.724 204.728955,53.082 206.952836,45.612 C207.50408,43.758 204.624478,42.966 204.074229,44.814 C202.264279,50.894 196.635423,53.193 190.924975,50.797 C191.043383,51.711 191.162786,52.624 191.281194,53.538 C194.651343,51.073 198.082189,48.673 201.400597,46.136 C203.063284,44.865 204.631443,43.657 205.433433,41.643 C207.682189,35.999 203.503085,30.866 199.905075,27.03 C198.980697,26.043 197.410547,26.841 197.357811,28.09 C197.12398,33.636 198.201592,38.711 200.570746,43.723 C201.394627,45.466 203.968756,43.946 203.147861,42.209" id="Fill-82" fill="#FFFFFF"></path>
                    <path d="M220.010846,43.6633 C217.153134,39.2193 215.403881,34.4293 214.686468,29.1923 C213.855622,29.6793 213.023781,30.1653 212.19194,30.6523 C215.59791,33.3153 221.840697,38.6513 217.405871,43.2683 C216.071542,44.6583 218.18,46.7823 219.517313,45.3903 C225.261592,39.4083 219.228756,32.3823 214.303383,28.5303 C213.081493,27.5753 211.598905,28.4603 211.808856,29.9903 C212.556119,35.4483 214.458607,40.5523 217.433731,45.1773 C218.472537,46.7933 221.057612,45.2913 220.010846,43.6633" id="Fill-84" fill="#FFFFFF"></path>
                    <path d="M217.870149,45.7621 C214.402488,48.3451 210.895025,50.8711 207.346766,53.3411 C206.593532,53.8661 206.291045,54.9981 207.045274,55.6971 C209.215423,57.7121 212.353731,57.6971 214.797512,56.1261 C217.645274,54.2951 218.672139,50.7721 219.476119,47.6761 C219.961692,45.8061 217.083085,45.0091 216.597512,46.8781 C216.09005,48.8351 215.595522,51.0221 214.269154,52.6131 C213.071144,54.0501 210.714925,55.0231 209.155721,53.5761 C209.055224,54.3611 208.954726,55.1461 208.853234,55.9321 C212.401493,53.4621 215.908955,50.9361 219.376617,48.3521 C220.902985,47.2151 219.416418,44.6101 217.870149,45.7621" id="Fill-86" fill="#FFFFFF"></path>
                    <path d="M232.261592,45.8258 C229.567065,40.0238 228.415821,33.8978 228.704378,27.5098 C227.854627,27.8638 227.005871,28.2168 226.156119,28.5708 C230.717313,32.9158 231.751144,39.6548 228.631741,45.1508 C227.678507,46.8308 230.256617,48.3438 231.208856,46.6648 C234.971045,40.0378 233.784975,31.7058 228.266567,26.4498 C227.305373,25.5338 225.77801,26.2098 225.719303,27.5098 C225.405871,34.4398 226.769055,41.0618 229.684478,47.3398 C230.495423,49.0878 233.069552,47.5668 232.261592,45.8258" id="Fill-88" fill="#FFFFFF"></path>
                    <path d="M229.261791,47.4661 C225.817015,48.9771 223.050846,51.6501 221.379204,55.0301 C220.679701,56.4431 222.062786,57.6841 223.420995,57.0821 C226.914527,55.5331 230.048856,53.3831 232.790149,50.7141 C234.172239,49.3681 232.060796,47.2481 230.678706,48.5931 C228.111542,51.0921 225.182189,53.0431 221.914527,54.4921 C222.595124,55.1761 223.275721,55.8601 223.956318,56.5441 C225.428955,53.5671 227.741393,51.3841 230.768259,50.0561 C232.524478,49.2861 231.007065,46.7011 229.261791,47.4661" id="Fill-90" fill="#FFFFFF"></path>
                    <path d="M247.029154,46.667 C245.07393,42.423 244.476915,37.836 245.280896,33.23 C244.371443,33.349 243.46199,33.468 242.552537,33.588 C244.825174,37.112 247.527662,41.381 245.05801,45.519 C244.06796,47.179 246.64806,48.689 247.636119,47.034 C250.703781,41.891 248.0401,36.586 245.130647,32.074 C244.495821,31.089 242.638109,31.077 242.402289,32.432 C241.44806,37.902 242.130647,43.142 244.45204,48.181 C245.25801,49.931 247.832139,48.409 247.029154,46.667" id="Fill-92" fill="#FFFFFF"></path>
                    <path d="M246.855124,48.4043 C242.718806,50.0933 239.157612,52.6813 236.406368,56.2323 C235.413333,57.5133 236.622289,59.4603 238.215323,58.5883 C242.286965,56.3583 245.543682,52.9593 247.576517,48.7683 C248.415323,47.0403 245.842189,45.5173 244.999403,47.2543 C243.171542,51.0213 240.372537,53.9913 236.707861,55.9983 C237.310846,56.7833 237.913831,57.5683 238.516816,58.3533 C240.929751,55.2393 243.996418,52.7883 247.649154,51.2973 C249.405373,50.5803 248.637214,47.6763 246.855124,48.4043" id="Fill-94" fill="#FFFFFF"></path>
                    <path d="M260.724776,49.264 C259.989453,43.863 260.66209,38.588 262.553632,33.491 C261.644179,33.61 260.734726,33.73 259.825274,33.849 C261.781493,38.372 263.792438,43.425 261.004378,48.052 C260.006368,49.708 262.586468,51.217 263.581493,49.566 C266.970547,43.941 264.804378,37.886 262.403383,32.335 C261.837214,31.028 260.07005,31.63 259.675025,32.693 C257.580498,38.339 257.035224,44.104 257.846169,50.062 C258.105871,51.966 260.982488,51.155 260.724776,49.264" id="Fill-96" fill="#FFFFFF"></path>
                    <path d="M261.102687,50.3196 C256.64,52.5736 252.766368,55.7326 249.667861,59.6716 C249.170348,60.3036 249.04,61.1696 249.667861,61.7926 C251.294726,63.4046 253.221095,62.3566 254.707662,61.1016 C257.461891,58.7786 260.120597,56.3296 262.82408,53.9466 C264.270846,52.6706 262.152438,50.5556 260.712637,51.8246 C259.986269,52.4656 251.890746,59.7816 251.779303,59.6716 L251.779303,61.7926 C254.736517,58.0336 258.348458,55.0616 262.609154,52.9096 C264.326567,52.0426 262.816119,49.4536 261.102687,50.3196" id="Fill-98" fill="#FFFFFF"></path>
                    <path d="M275.086866,54.2728 C274.378408,49.3738 276.053035,44.6468 279.514726,41.1678 C280.874925,39.8008 278.764478,37.6788 277.404279,39.0468 C273.130647,43.3418 271.344577,49.0898 272.208259,55.0708 C272.483881,56.9738 275.360498,56.1648 275.086866,54.2728" id="Fill-100" fill="#FFFFFF"></path>
                    <path d="M276.250448,41.4506 C278.841493,44.7356 278.105174,49.5206 275.032537,52.1786 C273.573831,53.4396 275.693234,55.5536 277.142985,54.2996 C281.55393,50.4846 281.905174,43.8236 278.360896,39.3296 C277.168856,37.8166 275.069353,39.9526 276.250448,41.4506" id="Fill-102" fill="#FFFFFF"></path>
                    <path d="M274.544179,54.0546 C269.876517,54.5196 265.683483,56.5836 262.598905,60.1636 C261.346169,61.6166 263.448657,63.7476 264.709353,62.2856 C267.255622,59.3306 270.652637,57.4426 274.544179,57.0546 C276.437711,56.8656 276.457612,53.8636 274.544179,54.0546" id="Fill-104" fill="#FFFFFF"></path>
                    <path d="M264.557612,64.4058 C269.966567,63.1948 274.529751,59.7478 277.216318,54.8808 C278.149652,53.1918 275.572537,51.6768 274.639204,53.3668 C272.302886,57.5978 268.4601,60.4618 263.763582,61.5128 C261.88995,61.9328 262.682985,64.8258 264.557612,64.4058" id="Fill-106" fill="#FFFFFF"></path>
                    <path d="M286.568657,60.6284 C288.138806,56.0384 290.369652,51.8314 293.230348,47.9244 C294.369652,46.3684 291.780597,44.8704 290.652239,46.4104 C287.643284,50.5204 285.339801,55.0084 283.69005,59.8304 C283.064179,61.6604 285.946766,62.4464 286.568657,60.6284" id="Fill-108" fill="#FFFFFF"></path>
                    <path d="M288.970448,50.0722 C289.801294,54.6472 285.399303,57.5912 282.133632,59.7322 C280.530647,60.7832 282.025174,63.3822 283.6401,62.3222 C288.233134,59.3112 292.961493,55.4022 291.849055,49.2742 C291.504776,47.3782 288.627164,48.1812 288.970448,50.0722" id="Fill-110" fill="#FFFFFF"></path>
                    <path d="M280.567363,60.0421 C277.24,62.0211 273.922587,64.0181 270.616119,66.0321 C269.746468,66.5621 269.544478,68.1501 270.616119,68.6231 C275.730547,70.8801 281.617114,69.8221 285.439005,65.6441 C286.737512,64.2241 284.63204,62.0971 283.328557,63.5221 C280.481791,66.6351 276.035025,67.7591 272.122587,66.0321 L272.122587,68.6231 C275.429055,66.6091 278.746468,64.6121 282.073831,62.6321 C283.725572,61.6501 282.22607,59.0551 280.567363,60.0421" id="Fill-112" fill="#FFFFFF"></path>
                    <g id="Group-116" transform="translate(289.552239, 61.486600)" fill="#FFFFFF">
                        <path d="M3.69671642,12.4535 C6.17233831,8.3055 9.8081592,5.0395 14.2569154,3.1535 C16.000199,2.4145 15.2340299,-0.4905 13.4638806,0.2605 C8.26587065,2.4635 4.0280597,6.0655 1.11960199,10.9395 C0.128557214,12.5995 2.70865672,14.1095 3.69671642,12.4535" id="Fill-114"></path>
                    </g>
                    <path d="M299.556517,65.3789 C297.106766,68.9889 293.659005,71.7209 289.584378,73.2509 C287.801294,73.9209 288.572438,76.8219 290.377413,76.1439 C295.225174,74.3229 299.217214,71.1929 302.133632,66.8929 C303.219204,65.2939 300.633134,63.7919 299.556517,65.3789" id="Fill-117" fill="#FFFFFF"></path>
                    <path d="M288.908955,72.6571 C284.044279,71.1521 279.093035,71.0121 274.142786,72.1851 C272.274129,72.6281 273.065174,75.5211 274.936816,75.0781 C279.383582,74.0241 283.752736,74.2001 288.114925,75.5501 C289.955721,76.1191 290.742786,73.2241 288.908955,72.6571" id="Fill-119" fill="#FFFFFF"></path>
                    <path d="M273.243781,76.567 C276.847761,78.967 281.292537,79.519 285.365174,78.047 C287.159204,77.398 286.385075,74.499 284.571144,75.154 C281.1801,76.38 277.761194,75.981 274.750249,73.977 C273.144279,72.907 271.647761,75.504 273.243781,76.567" id="Fill-121" fill="#FFFFFF"></path>
                </g>
            </g>
        </g>
    </g>
</svg>