<?xml version="1.0" encoding="UTF-8"?>
<svg width="193px" height="54px" viewBox="0 0 193 54" version="1.1" xmlns="http://www.w3.org/2000/svg" xmlns:xlink="http://www.w3.org/1999/xlink">
    <!-- Generator: Sketch 40.3 (33839) - http://www.bohemiancoding.com/sketch -->
    <title>Page 1</title>
    <desc>Created with Sketch.</desc>
    <defs>
        <polygon id="path-1" points="3.40799706e-20 0.0217959382 3.40799706e-20 3.58296774 13.1086636 3.58296774 13.1086636 0.0217959382 0 0.0217959382"></polygon>
    </defs>
    <g id="Page-1" stroke="none" stroke-width="1" fill="none" fill-rule="evenodd">
        <g id="Artboard" transform="translate(-483.000000, -75.000000)">
            <g id="Group" transform="translate(31.000000, 75.000000)">
                <g id="Page-1" transform="translate(452.000000, 0.000000)">
                    <path d="M9.46907036,11.338493 C11.0206143,21.3655395 25.8288065,24.9552837 34.0561388,26.5690047 C46.0862625,28.929307 58.5193603,28.6542837 70.7204808,28.558214 C97.7473961,28.3447256 124.965425,27.0204698 151.828888,30.7678186 C158.743569,31.7329116 166.165582,32.6132372 172.703693,35.1832605 C178.901067,37.6195395 186.043953,45.3145395 180.621722,52.0237256 C179.866067,52.9586791 181.192549,54.2992605 181.955119,53.3555163 C188.30966,45.4928651 180.880732,36.3379814 173.205367,33.3667256 C167.18779,31.0378186 160.478054,30.1524698 154.127914,29.2112372 C147.455269,28.2216558 140.739875,27.5422605 134.009393,27.093307 C106.187217,25.2353302 78.3329792,27.6885628 50.5101746,26.485493 C43.1975492,26.1696558 35.8566339,25.398586 28.8005036,23.3792372 C22.4993993,21.5752605 12.454598,18.378586 11.2877967,10.8374233 C11.1029694,9.64314419 9.28550033,10.150493 9.46907036,11.338493" id="Fill-1" fill="#215867"></path>
                    <path d="M10.9097179,10.5804837 C9.25192964,10.3293209 8.44598176,7.88613488 8.07506971,6.53425116 C7.63186124,4.9180186 7.58596873,3.29048372 7.86572443,1.64348372 C8.06752573,0.457367442 6.25005668,-0.0518651163 6.04699805,1.14241395 C5.63710879,3.55546047 5.76912834,5.95092558 6.66120326,8.24906512 C7.3351316,9.98648372 8.37745733,12.0893442 10.4080436,12.3970186 C11.5955909,12.5766 12.1079524,10.7619488 10.9097179,10.5804837" id="Fill-3" fill="#215867"></path>
                    <path d="M6.32939414,1.5585907 C9.30549186,3.97540465 10.5785375,7.72024186 9.5739316,11.4349395 C9.25708469,12.606614 11.0758111,13.1064279 11.392658,11.9353814 C12.5575733,7.62856744 11.1418208,3.05175349 7.66279153,0.2268 C6.72922476,-0.531711628 5.38702606,0.793172093 6.32939414,1.5585907" id="Fill-5" fill="#215867"></path>
                    <path d="M16.4757876,18.0993558 C15.8408365,14.7457047 16.8278397,11.4272163 19.154527,8.93442558 C19.9812208,8.04844884 18.6503381,6.7135186 17.8211296,7.60200698 C15.011628,10.6128209 13.8932339,14.5623558 14.6570612,18.6004256 C14.8821231,19.7896814 16.7002208,19.2861 16.4757876,18.0993558" id="Fill-7" fill="#215867"></path>
                    <path d="M17.4955443,8.24912791 C18.6918928,12.1741744 17.4597104,16.2153837 14.3245606,18.8519651 C13.3947658,19.6337093 14.7344498,20.9604767 15.657958,20.1837558 C19.2771795,17.1409186 20.6891599,12.2608256 19.3142707,7.74805814 C18.9615899,6.5920814 17.1409775,7.08498837 17.4955443,8.24912791" id="Fill-9" fill="#215867"></path>
                    <g id="Group-13" transform="translate(0.000000, 17.259028)">
                        <mask id="mask-2" fill="white">
                            <use xlink:href="#path-1"></use>
                        </mask>
                        <g id="Clip-12"></g>
                        <path d="M12.2080987,0.165830233 C8.22676645,-0.258006977 4.36676645,0.253737209 0.633756678,1.69855116 C-0.485894788,2.13243488 0.000691530944,3.95462093 1.13543094,3.51508605 C4.71756124,2.12866744 8.38896189,1.64329535 12.2080987,2.04955116 C13.4132485,2.17764419 13.4044472,0.293295349 12.2080987,0.165830233" id="Fill-11" fill="#FFFFFF" mask="url(#mask-2)"></path>
                    </g>
                    <path d="M4.22387101,20.9595349 C7.91098827,22.585186 11.8854052,22.7151628 15.6177863,21.1428837 C16.7192065,20.6788605 16.2351349,18.8547907 15.1167407,19.3263488 C11.8772326,20.6914186 8.41203388,20.7598605 5.17566906,19.3332558 C4.07550619,18.8478837 3.11490684,20.4703953 4.22387101,20.9595349" id="Fill-14" fill="#215867"></path>
                    <path d="M24.1972964,21.7744953 C23.8081531,18.6701233 24.2387883,15.6637047 25.5885309,12.8305884 C26.1071792,11.7417977 24.4814528,10.7848674 23.9596612,11.8799372 C22.4709837,15.0056581 21.8800391,18.3329372 22.3113029,21.7744953 C22.4602964,22.9612395 24.3481759,22.9763093 24.1972964,21.7744953" id="Fill-16" fill="#215867"></path>
                    <path d="M22.8354834,12.9459977 C24.5052163,16.2136256 23.330871,20.2843465 20.2126951,22.2026023 C19.1810567,22.8374163 20.1271967,24.4674628 21.1644932,23.8288814 C25.1854313,21.3555558 26.6055844,16.1872535 24.4637244,11.9953465 C23.9123857,10.9153465 22.2841446,11.8672535 22.8354834,12.9459977" id="Fill-18" fill="#215867"></path>
                    <path d="M23.6604169,21.6964465 C19.5030586,22.6150744 14.958443,23.9255163 13.1252573,28.1846093 C12.6512443,29.286586 14.2750847,30.2472837 14.7534984,29.1352605 C16.3961987,25.3188419 20.4592573,24.3311442 24.1620912,23.5129814 C25.3464951,23.2511442 24.8448208,21.4346093 23.6604169,21.6964465" id="Fill-20" fill="#215867"></path>
                    <path d="M19.3033319,28.5820744 C22.1392375,26.9068186 24.1660518,24.2551674 25.0317228,21.0798419 C25.3510844,19.9087953 23.532358,19.4089814 23.2136251,20.5794 C22.473687,23.293214 20.7750355,25.5235395 18.3515339,26.9557953 C17.3073221,27.5724 18.2553482,29.2011907 19.3033319,28.5820744" id="Fill-22" fill="#215867"></path>
                    <path d="M32.3018505,24.5505977 C31.1872283,20.5012256 31.7052479,16.5548302 33.8307625,12.9261558 L32.1069645,12.7013651 C32.8494173,14.5436442 33.3762381,16.4995744 33.1788375,18.5057372 C32.8927951,21.4204814 30.991085,22.8797372 28.667541,24.2994349 C26.0654987,25.8899233 24.3222121,27.842714 23.3873879,30.7731558 C23.1874726,31.399807 23.8771176,32.2129465 24.5472739,31.9316442 C28.2758831,30.3681558 31.4518961,28.1861791 34.1847007,25.2080163 C35.0038505,24.3151326 33.6735964,22.9795744 32.8513033,23.8755977 C30.3529906,26.5988302 27.4567332,28.6853651 24.0462283,30.1151093 C24.432857,30.5012721 24.8194857,30.8874349 25.2061143,31.2742256 C26.1170492,28.4178767 27.9634368,26.9705512 30.404541,25.4717372 C31.8165215,24.6045977 33.1241436,23.6809465 33.9696974,22.2135279 C35.7419026,19.1380395 35.1905638,15.3385744 33.9256909,12.2002953 C33.6365052,11.4825977 32.6451013,11.2195047 32.2018928,11.9755047 C29.829313,16.0255047 29.2371111,20.5244581 30.4831241,25.0516674 C30.8043717,26.2189465 32.6243554,25.7229 32.3018505,24.5505977" id="Fill-24" fill="#215867"></path>
                    <path d="M41.8958365,26.7868884 C41.4419407,22.8160047 41.368387,18.8557953 41.6758039,14.8717256 C41.1389244,15.0933767 40.6026736,15.3156558 40.0657941,15.537307 C42.603084,17.7958884 44.5563446,22.3011209 40.673084,24.4221907 C39.6081264,25.0036326 40.5586671,26.6311674 41.6255107,26.0484698 C46.5548691,23.3560047 44.8870221,17.3098884 41.3991915,14.2055163 C40.7661264,13.6416558 39.8533055,14.0485395 39.7898104,14.8717256 C39.4823935,18.8557953 39.5559472,22.8166326 40.009843,26.7868884 C40.1462632,27.9774 42.033514,27.991214 41.8958365,26.7868884" id="Fill-26" fill="#215867"></path>
                    <path d="M40.7924046,27.0968233 C38.2519713,29.1456837 36.1811505,31.6472651 34.6277205,34.5149163 C34.2662384,35.1823814 34.877929,36.1958233 35.6926782,35.8981953 C39.3885967,34.550707 41.8799941,31.3282884 42.2798248,27.4239628 C42.403043,26.2190093 40.5164208,26.2278 40.3938313,27.4239628 C40.0857857,30.432893 38.0306814,33.0462419 35.1910039,34.0816605 C35.5461993,34.5431721 35.9013948,35.0040558 36.2559616,35.4655674 C37.7402384,32.7266372 39.701043,30.3851721 42.125802,28.428614 C43.0706847,27.6669628 41.728486,26.3414512 40.7924046,27.0968233" id="Fill-28" fill="#215867"></path>
                    <path d="M50.5290345,26.7517884 C48.9768619,23.4565326 48.7228814,19.9276953 49.7105134,16.4308814 C49.135914,16.5062302 48.5613147,16.5809512 47.987344,16.6563 C49.6784515,19.5120209 51.7618456,23.3717651 49.2119824,26.3989047 C48.4355818,27.3206721 49.7633212,28.6599977 50.5460085,27.7306953 C53.7188782,23.9626256 51.8247121,19.4347884 49.615585,15.7050209 C49.2019238,15.0061605 48.1124482,15.1493233 47.891787,15.9304395 C46.7614482,19.9339744 47.1311029,23.9456721 48.9007935,27.7024395 C49.416927,28.7987651 51.0432821,27.8437186 50.5290345,26.7517884" id="Fill-30" fill="#215867"></path>
                    <path d="M48.9681863,28.041007 C47.134372,29.586914 45.6167759,31.4260535 44.4330007,33.5107047 C44.1809062,33.9546349 44.3280137,34.5373326 44.7712221,34.7991698 C46.3145935,35.7102628 47.6618215,34.4896116 48.667056,33.3650302 C50.1148704,31.7456581 51.4633557,30.0434023 52.73703,28.2846349 C53.2160723,27.6234488 52.4201831,26.6464256 51.6720723,26.9013558 C51.4281505,26.9848674 51.1836,27.0677512 50.9396782,27.1512628 C49.7973948,27.5405651 50.2877531,29.3608674 51.4413524,28.9677977 C51.6852743,28.884286 51.9291961,28.8007744 52.1737466,28.7178907 C51.8185511,28.2563791 51.4633557,27.7954953 51.1087889,27.3339837 C50.2726651,28.4887047 49.4025935,29.6157977 48.4847433,30.7071 C48.1106879,31.1516581 46.4302678,33.5898209 45.7236489,33.1728907 C45.8361798,33.6023791 45.9487107,34.0318674 46.0618704,34.4613558 C47.1746065,32.5016581 48.579043,30.8251465 50.3015837,29.3727977 C51.2307498,28.5897977 49.8904371,27.2630302 48.9681863,28.041007" id="Fill-32" fill="#215867"></path>
                    <path d="M61.7906788,26.2981884 C59.9386332,23.6163977 58.9170534,20.6451419 58.7888059,17.383793 C58.741656,16.1757 56.8556625,16.1694209 56.9028124,17.383793 C57.0430046,20.9572116 58.1274508,24.3020721 60.1624378,27.2488395 C60.8470534,28.2403047 62.4822098,27.2997 61.7906788,26.2981884" id="Fill-34" fill="#215867"></path>
                    <path d="M58.4054463,19.5921419 C60.517759,21.481514 60.9647394,24.5249791 59.4528013,26.9292349 C58.8052769,27.9590023 60.4360326,28.9052581 61.0810423,27.879886 C63.017329,24.8012581 62.4559316,20.6897233 59.7388436,18.2603512 C58.8373388,17.4534907 57.4989121,18.781514 58.4054463,19.5921419" id="Fill-36" fill="#215867"></path>
                    <path d="M59.9559215,28.0238023 C58.1988042,29.7059651 56.7673352,31.6681744 55.7162081,33.8614535 C55.1950453,34.9496163 56.820143,35.9065465 57.3450779,34.8121047 C58.3320811,32.7525698 59.6384459,30.9366628 61.2893189,29.355593 C62.1675632,28.5154535 60.8329085,27.1842907 59.9559215,28.0238023" id="Fill-38" fill="#215867"></path>
                    <path d="M58.5156511,35.7096349 C61.3917912,33.6526116 64.3974362,31.0254488 63.5506251,27.1123326 C63.2947586,25.9281 61.4760322,26.4291698 61.7325274,27.6127744 C62.3712505,30.565193 59.6573059,32.5857977 57.5638531,34.0833558 C56.5856511,34.7828442 57.5261332,36.417286 58.5156511,35.7096349" id="Fill-40" fill="#215867"></path>
                    <path d="M73.9339622,26.3636163 C71.2621381,24.0585698 69.358542,21.1708256 68.3388482,17.792686 C67.9899394,16.6348256 66.1686984,17.1283605 66.5201218,18.2931279 C67.6297147,21.9688953 69.6892195,25.1837791 72.6005648,27.695407 C73.514643,28.484686 74.854327,27.1579186 73.9339622,26.3636163" id="Fill-42" fill="#215867"></path>
                    <path d="M67.0055137,17.1854372 C70.7913313,18.1348326 73.1639111,22.1082279 72.1530186,25.8844605 C71.839315,27.0573907 73.6580414,27.5572047 73.971745,26.3855302 C75.2429046,21.6366698 72.2906961,16.5688326 67.5071879,15.3689023 C66.3296993,15.073786 65.8273964,16.889693 67.0055137,17.1854372" id="Fill-44" fill="#215867"></path>
                    <path d="M72.3453899,27.4496442 C69.4969111,29.0118767 67.4374062,31.5775047 66.4918948,34.6781093 C66.1379567,35.8403651 67.9573117,36.3370395 68.3106212,35.1785512 C69.1178264,32.5319233 70.8730577,30.4058302 73.2971879,29.0759233 C74.3615169,28.4925977 73.4109762,26.8650628 72.3453899,27.4496442" id="Fill-46" fill="#215867"></path>
                    <path d="M68.363429,36.1866558 C72.0970674,34.5296093 74.0811326,30.5336093 73.4386375,26.560214 C73.2456375,25.3665628 71.4275397,25.8732837 71.6199111,27.0612837 C72.135416,30.2466558 70.3116603,33.2731674 67.4116309,34.5603767 C66.3045528,35.0514 67.2626375,36.6751674 68.363429,36.1866558" id="Fill-48" fill="#215867"></path>
                    <path d="M85.3321524,26.3224256 C83.6140124,23.7053093 82.8080645,20.8282395 82.9268821,17.6981233 C82.9727746,16.4856349 81.0867811,16.4881465 81.0408886,17.6981233 C80.910755,21.1277512 81.8191752,24.402286 83.7039114,27.2730767 C84.3665238,28.2827512 86.0004228,27.3402628 85.3321524,26.3224256" id="Fill-50" fill="#215867"></path>
                    <path d="M80.7623274,18.3737512 C83.9565717,19.4367977 87.3161547,23.3134953 84.047728,26.3582163 C83.1581678,27.1864256 84.4940798,28.5163326 85.3817541,27.690007 C87.145158,26.0474023 87.6638062,23.5175651 86.8044218,21.270286 C85.8739984,18.8365186 83.6504121,17.3515186 81.2640016,16.5572163 C80.1097736,16.1729372 79.614386,17.9919837 80.7623274,18.3737512" id="Fill-52" fill="#215867"></path>
                    <path d="M83.2344248,26.7887721 C81.1736625,28.6498884 79.7660827,31.0579116 79.1550208,33.7648186 C78.8884671,34.9452837 80.7059362,35.449493 80.9737472,34.2658884 C81.5181707,31.851586 82.7308645,29.7801209 84.5678221,28.1205628 C85.4699557,27.3061674 84.133415,25.9768884 83.2344248,26.7887721" id="Fill-54" fill="#215867"></path>
                    <path d="M81.3183811,35.0225791 C84.2158958,33.3196953 86.3458111,30.7804395 87.5899381,27.6710442 C88.0406906,26.545207 86.2175635,26.0560674 85.7712117,27.1699744 C84.7144267,29.8115791 82.8133453,31.958393 80.3665831,33.3963 C79.321114,34.010393 80.2691401,35.6391837 81.3183811,35.0225791" id="Fill-56" fill="#215867"></path>
                    <path d="M95.3941792,26.3328488 C94.4933029,25.1498721 93.5924267,23.9668953 92.6915505,22.7832907 C92.24457,22.1968256 90.2711922,20.2101279 90.8759674,19.4283837 C91.6089902,18.4808721 90.2837655,17.1377791 89.54257,18.0959651 C88.6504951,19.2488023 88.8114332,20.4462209 89.5419414,21.6725233 C90.7200586,23.651686 92.3709316,25.4518953 93.7659381,27.2835 C94.4907883,28.2360349 96.1297166,27.2985698 95.3941792,26.3328488" id="Fill-58" fill="#215867"></path>
                    <path d="M89.1990049,17.7133186 C91.8035619,19.9838302 95.1449137,23.198086 93.497184,27.005714 C93.021285,28.1070628 94.6451254,29.0677605 95.1260537,27.9563651 C97.1616694,23.2502023 93.9347345,19.3471326 90.5324023,16.3815279 C89.6214674,15.5872256 88.2824121,16.9146209 89.1990049,17.7133186" id="Fill-60" fill="#215867"></path>
                    <path d="M92.9088169,26.7768419 C89.2631915,28.591493 86.9685661,32.1806093 86.7208723,36.2224465 C86.6473186,37.4330512 88.5333121,37.4286558 88.6068658,36.2224465 C88.8155824,32.817307 90.8210221,29.9163767 93.860615,28.4031209 C94.9469472,27.862493 93.9926345,26.2368419 92.9088169,26.7768419" id="Fill-62" fill="#215867"></path>
                    <path d="M88.8095472,36.8377326 C92.3759609,35.1260581 94.6353811,31.6650349 94.9239381,27.7475233 C95.0132085,26.5381744 93.1265863,26.5438256 93.0379446,27.7475233 C92.7959088,31.029593 90.805557,33.7961512 87.8577492,35.2114535 C86.763873,35.7357558 87.719443,37.3607791 88.8095472,36.8377326" id="Fill-64" fill="#215867"></path>
                    <path d="M105.888224,25.6311 C104.62838,23.133914 103.885928,20.487286 103.670296,17.700007 C103.577253,16.4988209 101.690631,16.4887744 101.784302,17.700007 C102.025709,20.8263558 102.847374,23.781914 104.259983,26.5817512 C104.806293,27.6648907 106.433276,26.7117279 105.888224,25.6311" id="Fill-66" fill="#215867"></path>
                    <path d="M102.253789,18.2019558 C104.768447,19.9268163 107.781007,23.4230023 105.193424,26.4419791 C104.408222,27.3587233 105.735962,28.696793 106.526821,27.7743977 C109.972532,23.7539093 106.830466,19.0615605 103.205587,16.5756767 C102.202867,15.8874907 101.258613,17.5194209 102.253789,18.2019558" id="Fill-68" fill="#215867"></path>
                    <path d="M104.136388,26.911214 C102.293143,28.2047023 100.659244,29.7210977 99.2698958,31.4936791 C98.5305863,32.4380512 99.8558111,33.7805163 100.603922,32.8260977 C101.889541,31.1847488 103.380104,29.7367953 105.088186,28.537493 C106.073932,27.8461674 105.132821,26.2123535 104.136388,26.911214" id="Fill-70" fill="#215867"></path>
                    <path d="M100.826218,34.1150651 C103.983371,33.1581349 106.580384,30.9177628 107.893035,27.8812047 C108.368934,26.7798558 106.745094,25.8191581 106.264794,26.9305535 C105.140742,29.5307163 103.049804,31.4722047 100.324543,32.2985302 C99.1665433,32.6495302 99.660045,34.4685767 100.826218,34.1150651" id="Fill-72" fill="#215867"></path>
                    <path d="M117.576354,24.9516419 C116.815042,22.5856884 116.362403,20.1826884 116.23667,17.6999442 C116.175061,16.493107 114.289068,16.4862 114.350677,17.6999442 C114.485211,20.3478279 114.944765,22.9272698 115.757628,25.4527116 C116.127911,26.6017814 117.949152,26.1101302 117.576354,24.9516419" id="Fill-74" fill="#215867"></path>
                    <path d="M114.446737,18.4077837 C118.118766,20.0032953 118.452587,24.6887372 114.835251,26.6126442 C113.764007,27.1821558 114.715177,28.8090628 115.787678,28.2389233 C120.535352,25.7141093 120.392646,18.9509233 115.398535,16.7815047 C114.296486,16.3024116 113.335258,17.9249233 114.446737,18.4077837" id="Fill-76" fill="#215867"></path>
                    <path d="M117.158041,27.7035698 C114.864673,30.0148953 112.16896,31.7303372 109.089761,32.798407 C107.949992,33.1933605 108.44035,35.0136628 109.591435,34.6149419 C112.97365,33.4420116 115.969865,31.5771279 118.491438,29.0353605 C119.347051,28.1732442 118.013653,26.8408256 117.158041,27.7035698" id="Fill-78" fill="#215867"></path>
                    <path d="M113.724213,35.4970256 C117.068708,34.7975372 119.73676,32.0027233 120.213916,28.6126535 C120.381141,27.4271651 118.563672,26.914793 118.39519,28.1122116 C118.002275,30.9063977 115.998092,33.1003047 113.222538,33.6804907 C112.03562,33.9291419 112.537923,35.7450488 113.724213,35.4970256" id="Fill-80" fill="#215867"></path>
                    <path d="M128.350407,26.5033256 C126.987462,23.6369302 126.443667,20.8088372 126.578201,17.637907 C126.041322,17.860186 125.505071,18.0818372 124.968192,18.3041163 C127.459589,20.9444651 130.077977,24.4312326 126.294674,27.3428372 C124.208765,28.9471395 122.029814,30.4434419 119.901156,31.9906047 C119.203967,32.4973256 119.358618,33.3914651 120.126218,33.7123256 C124.695351,35.6173953 129.349354,33.3305581 130.75442,28.640093 C131.1027,27.4759535 129.283345,26.9786512 128.935693,28.1390233 C127.792152,31.9566977 124.235797,33.4002558 120.627892,31.8957907 C120.702703,32.4696977 120.778143,33.0429767 120.852954,33.6168837 C122.98224,32.069093 125.149876,30.5621163 127.246472,28.9691163 C128.29697,28.1710465 129.287745,27.4125349 129.794449,26.1479302 C131.215231,22.6040233 128.57484,19.3809767 126.301589,16.9723256 C125.71756,16.3525814 124.725527,16.8536512 124.692208,17.637907 C124.544472,21.1202791 125.225315,24.306907 126.722165,27.4539767 C127.2427,28.5484186 128.869055,27.594 128.350407,26.5033256" id="Fill-82" fill="#215867"></path>
                    <path d="M139.004572,27.4164907 C137.199048,24.6260721 136.093856,21.6183977 135.640589,18.3300488 C135.115654,18.6358395 134.59009,18.9410023 134.064527,19.246793 C136.216445,20.9189093 140.160686,24.2694209 137.358729,27.1684674 C136.51569,28.0412581 137.84783,29.3749326 138.692755,28.500886 C142.322035,24.7447465 138.510442,20.3330721 135.398553,17.9143744 C134.626553,17.3147233 133.689843,17.8704209 133.822491,18.8311186 C134.294618,22.2582349 135.496624,25.4630721 137.376331,28.3671419 C138.032657,29.3818395 139.665927,28.4387233 139.004572,27.4164907" id="Fill-84" fill="#215867"></path>
                    <path d="M137.652064,28.7343419 C135.461168,30.3562256 133.245125,31.9423186 131.003308,33.4932488 C130.527409,33.8229 130.336295,34.5336907 130.812822,34.9725977 C132.18394,36.2378302 134.166748,36.2284116 135.710748,35.2419698 C137.509985,34.0922721 138.158767,31.8801558 138.666728,29.9361558 C138.973516,28.7619698 137.15479,28.2615279 136.848002,29.435086 C136.527383,30.6639 136.214936,32.0371326 135.376927,33.0361326 C134.620015,33.9384349 133.131337,34.5493884 132.14622,33.640807 C132.082725,34.133714 132.01923,34.6266209 131.955106,35.1201558 C134.196923,33.5692256 136.412966,31.9831326 138.603862,30.3606209 C139.568233,29.6466907 138.629008,28.010993 137.652064,28.7343419" id="Fill-86" fill="#215867"></path>
                    <path d="M146.74469,28.7743395 C145.042266,25.1312233 144.314901,21.2846651 144.497214,17.2735953 C143.960335,17.4958744 143.424084,17.7175256 142.887204,17.9398047 C145.769002,20.6680605 146.422185,24.8995256 144.451321,28.3505023 C143.849061,29.405386 145.477931,30.3554093 146.079563,29.3011535 C148.456543,25.140014 147.707175,19.908293 144.220602,16.608014 C143.613312,16.0328512 142.648312,16.4573163 142.611221,17.2735953 C142.413191,21.6249907 143.274462,25.7829907 145.116449,29.7249907 C145.62881,30.8225721 147.255165,29.8675256 146.74469,28.7743395" id="Fill-88" fill="#215867"></path>
                    <path d="M144.849392,29.8042953 C142.672955,30.7530628 140.925268,32.4314581 139.869112,34.5537837 C139.427161,35.4410163 140.301004,36.2202488 141.159131,35.8422488 C143.366372,34.8696209 145.346665,33.5196209 147.078636,31.8437372 C147.951851,30.9985744 146.617825,29.6674116 145.74461,30.5119465 C144.122656,32.081086 142.271867,33.3061326 140.207333,34.2159698 C140.63734,34.6454581 141.067346,35.0749465 141.497353,35.5044349 C142.427776,33.6351558 143.888793,32.2644349 145.80119,31.4305744 C146.910783,30.947086 145.952069,29.3239465 144.849392,29.8042953" id="Fill-90" fill="#215867"></path>
                    <path d="M156.074951,29.3025349 C154.839625,26.6376977 154.462426,23.7574884 154.970387,20.8653488 C154.395788,20.9400698 153.821189,21.0147907 153.246589,21.0901395 C154.682459,23.3028837 156.389912,25.9834186 154.829566,28.5816977 C154.204045,29.6240233 155.834172,30.5721628 156.458436,29.5329767 C158.396609,26.3036512 156.713674,22.9726047 154.875459,20.1394884 C154.474371,19.521 153.300654,19.5134651 153.151661,20.3642791 C152.548772,23.7989302 152.980036,27.0891628 154.44671,30.253186 C154.955928,31.3520233 156.582283,30.3963488 156.074951,29.3025349" id="Fill-92" fill="#215867"></path>
                    <path d="M155.964997,30.3933977 C153.351639,31.4539326 151.101649,33.0789558 149.363392,35.3086535 C148.735984,36.1130023 149.499812,37.3355372 150.506304,36.7880023 C153.078799,35.3877698 155.136418,33.253514 156.420779,30.6219558 C156.950743,29.5369326 155.325017,28.5806302 154.792538,29.6713047 C153.637681,32.0366302 151.869248,33.901514 149.553877,35.1617233 C149.934848,35.6546302 150.315818,36.1475372 150.696789,36.6404442 C152.2213,34.6851419 154.158844,33.1461419 156.466672,32.2099326 C157.576264,31.7597233 157.090936,29.9362814 155.964997,30.3933977" id="Fill-94" fill="#215867"></path>
                    <path d="M164.727952,30.9332093 C164.263369,27.5418837 164.688346,24.2296744 165.883437,21.0292326 C165.308838,21.1039535 164.734238,21.1793023 164.159639,21.2540233 C165.395593,24.0940465 166.666124,27.2668605 164.904607,30.172186 C164.274056,31.212 165.904183,32.1595116 166.532848,31.1228372 C168.674079,27.5908605 167.305476,23.7888837 165.788509,20.3033721 C165.430799,19.4826977 164.314291,19.8606977 164.064711,20.5281628 C162.741372,24.0733256 162.396864,27.6932093 162.909225,31.4342791 C163.073307,32.629814 164.890776,32.1205814 164.727952,30.9332093" id="Fill-96" fill="#215867"></path>
                    <path d="M164.966719,31.5960279 C162.147158,33.0113302 159.699767,34.9948884 157.742106,37.468214 C157.427774,37.8650512 157.345419,38.4088186 157.742106,38.8000047 C158.769973,39.8121907 159.987067,39.1541442 160.926292,38.3661209 C162.666435,36.907493 164.346227,35.3697488 166.054308,33.8734465 C166.968386,33.0722372 165.62996,31.744214 164.720282,32.5410279 C164.261357,32.9435163 159.146543,37.5372837 159.076132,37.468214 L159.076132,38.8000047 C160.944523,36.4397023 163.226575,34.5735628 165.918517,33.222307 C167.003592,32.6779116 166.049279,31.0522605 164.966719,31.5960279" id="Fill-98" fill="#215867"></path>
                    <path d="M173.802032,34.0782698 C173.354423,31.0021535 174.412465,28.0340372 176.599589,25.8495488 C177.458974,24.9912 176.125576,23.6587814 175.266192,24.5177581 C172.566078,27.2146186 171.437625,30.8238279 171.983306,34.5793395 C172.157446,35.7742465 173.974915,35.2662698 173.802032,34.0782698" id="Fill-100" fill="#215867"></path>
                    <path d="M174.537193,26.0271209 C176.174235,28.0897953 175.709023,31.0943302 173.767707,32.763307 C172.846085,33.5550977 174.18514,34.882493 175.101105,34.0950977 C177.887974,31.6996326 178.109893,27.5171442 175.87059,24.6953302 C175.11745,23.745307 173.790968,25.0865163 174.537193,26.0271209" id="Fill-102" fill="#215867"></path>
                    <path d="M173.459159,33.9412605 C170.510093,34.2332372 167.860901,35.5292372 165.912041,37.7771442 C165.120553,38.689493 166.448921,40.0275628 167.245439,39.1095628 C168.854191,37.2540977 171.000452,36.0686093 173.459159,35.8249814 C174.655507,35.706307 174.66808,33.8213302 173.459159,33.9412605" id="Fill-104" fill="#215867"></path>
                    <path d="M167.149567,40.4408512 C170.566988,39.6804558 173.450043,37.5160605 175.147437,34.4600372 C175.737124,33.3995023 174.108883,32.4482233 173.519196,33.509386 C172.043092,36.1660605 169.61519,37.964386 166.647893,38.6243163 C165.464118,38.8880372 165.965164,40.7045721 167.149567,40.4408512" id="Fill-106" fill="#215867"></path>
                    <path d="M181.056318,38.0689953 C182.04835,35.1869023 183.457816,32.5452977 185.265226,30.0920651 C185.985047,29.1150419 184.349262,28.1744372 183.636357,29.141414 C181.735275,31.7221116 180.279917,34.5401581 179.237591,37.5679256 C178.842161,38.7169953 180.663402,39.2105302 181.056318,38.0689953" id="Fill-108" fill="#215867"></path>
                    <path d="M182.573788,31.4406837 C183.098723,34.3133581 180.317511,36.1619163 178.254234,37.5062651 C177.241456,38.1661953 178.18571,39.7981256 179.206032,39.1325442 C182.107948,37.2419163 185.095361,34.7874279 184.392514,30.939614 C184.174996,29.7491023 182.356899,30.2533116 182.573788,31.4406837" id="Fill-110" fill="#215867"></path>
                    <path d="M177.264653,37.7008535 C175.162399,38.9434814 173.066432,40.1974116 170.97738,41.4620163 C170.427927,41.794807 170.300308,42.7919233 170.97738,43.0889233 C174.208715,44.5061093 177.927894,43.8417837 180.342595,41.2183884 C181.163002,40.3267605 179.832748,38.9912023 179.009197,39.8859698 C177.210588,41.8406442 174.401087,42.5464116 171.929178,41.4620163 L171.929178,43.0889233 C174.01823,41.8243186 176.114197,40.5703884 178.216451,39.3271326 C179.260035,38.7105279 178.312637,37.0811093 177.264653,37.7008535" id="Fill-112" fill="#215867"></path>
                    <g id="Group-116" transform="translate(182.941368, 38.607865)" fill="#FFFFFF">
                        <path d="M2.33561433,7.81963953 C3.8997316,5.2150814 6.19687166,3.16433721 9.00763062,1.98010465 C10.1090508,1.5160814 9.62497915,-0.307988372 8.50658502,0.163569767 C5.22244169,1.54684884 2.54495961,3.80856977 0.70737329,6.86898837 C0.0812234528,7.91131395 1.71135049,8.85945349 2.33561433,7.81963953" id="Fill-114"></path>
                    </g>
                    <path d="M189.26215,41.0518674 C187.714378,43.3186116 185.536055,45.0340535 182.961674,45.9947512 C181.835107,46.4154488 182.322322,48.237007 183.46272,47.811286 C186.525573,46.6678674 189.047775,44.7025186 190.890391,42.0025186 C191.576264,40.9984953 189.942364,40.0553791 189.26215,41.0518674" id="Fill-117" fill="#215867"></path>
                    <path d="M182.534936,45.6219 C179.461396,44.6769 176.333161,44.588993 173.205555,45.3255279 C172.024923,45.6036907 172.524712,47.4202256 173.70723,47.1420628 C176.516731,46.4802488 179.277197,46.5907605 182.033262,47.4384349 C183.196292,47.795714 183.693565,45.9779233 182.534936,45.6219" id="Fill-119" fill="#215867"></path>
                    <path d="M172.637557,48.0769535 C174.91458,49.5839302 177.722824,49.9305349 180.295948,49.0062558 C181.42943,48.5987442 180.940329,46.7784419 179.794274,47.1897209 C177.651785,47.9595349 175.491694,47.709 173.589355,46.4506744 C172.574691,45.778814 171.629179,47.4094884 172.637557,48.0769535" id="Fill-121" fill="#215867"></path>
                </g>
            </g>
        </g>
    </g>
</svg>