<?xml version="1.0" encoding="UTF-8"?>
<svg width="48px" height="46px" viewBox="0 0 48 46" version="1.1" xmlns="http://www.w3.org/2000/svg" xmlns:xlink="http://www.w3.org/1999/xlink">
    <!-- Generator: Sketch 40.3 (33839) - http://www.bohemiancoding.com/sketch -->
    <title>Page 1</title>
    <desc>Created with Sketch.</desc>
    <defs></defs>
    <g id="Page-1" stroke="none" stroke-width="1" fill="none" fill-rule="evenodd">
        <g id="skiss-startsida-copy-3" transform="translate(-806.000000, -558.000000)" fill="#FFFFFF">
            <g id="CONTENT" transform="translate(-3.000000, 118.000000)">
                <g id="1" transform="translate(1.000000, 0.000000)">
                    <g id="Doodles" transform="translate(2.000000, 29.000000)">
                        <g id="Page-1" transform="translate(806.000000, 411.000000)">
                            <path d="M35.0091,3.5678 C24.2371,-4.5622 10.2181,2.3118 4.4961,13.0518 C1.7371,18.2318 -0.7939,25.3708 0.2341,31.2978 C1.2741,37.2998 7.4141,41.5698 12.6531,43.8028 C24.3701,48.7958 38.4491,44.8348 44.6091,33.3298 C50.3591,22.5888 45.6861,8.8138 34.5151,3.9168 C32.7641,3.1488 31.2351,5.7328 33.0011,6.5068 C42.2361,10.5548 46.7141,21.4098 42.5221,30.7068 C38.0191,40.6968 26.5501,45.1388 16.2811,41.9548 C11.1141,40.3528 4.8061,36.7488 3.5281,31.1728 C2.3131,25.8688 4.5951,19.2828 7.0871,14.5658 C12.0661,5.1408 24.0271,-0.9882 33.4951,6.1578 C35.0361,7.3218 36.5331,4.7178 35.0091,3.5678" id="Fill-1"></path>
                            <path d="M12.8353,18.7966 C13.5013,19.1316 14.1673,19.4656 14.8333,19.8006 C15.5573,20.1636 16.4583,19.9926 16.8853,19.2626 C17.2753,18.5966 17.0743,17.5746 16.3473,17.2096 C15.6813,16.8756 15.0153,16.5406 14.3493,16.2066 C13.6263,15.8426 12.7243,16.0146 12.2973,16.7446 C11.9073,17.4106 12.1083,18.4316 12.8353,18.7966" id="Fill-3"></path>
                            <path d="M24.6403,15.9062 C26.5703,15.9062 26.5743,12.9062 24.6403,12.9062 C22.7103,12.9062 22.7063,15.9062 24.6403,15.9062" id="Fill-5"></path>
                            <path d="M13.1052,32.0543 C22.0072,42.2203 38.2462,35.8293 38.0842,22.4103 C38.0612,20.4813 35.0612,20.4753 35.0842,22.4103 C35.2162,33.3203 22.3352,38.0503 15.2262,29.9333 C13.9522,28.4773 11.8372,30.6063 13.1052,32.0543" id="Fill-7"></path>
                        </g>
                    </g>
                </g>
            </g>
        </g>
    </g>
</svg>