<?xml version="1.0" encoding="UTF-8"?>
<svg width="42px" height="41px" viewBox="0 0 42 41" version="1.1" xmlns="http://www.w3.org/2000/svg" xmlns:xlink="http://www.w3.org/1999/xlink">
    <!-- Generator: Sketch 40.3 (33839) - http://www.bohemiancoding.com/sketch -->
    <title>Twitter</title>
    <desc>Created with Sketch.</desc>
    <defs></defs>
    <g id="Page-1" stroke="none" stroke-width="1" fill="none" fill-rule="evenodd">
        <g id="Alternativ-2--&gt;-KB" transform="translate(-910.000000, -4888.000000)">
            <g id="FOOTER-VI-ÄR-KOMPISBYRÅN" transform="translate(0.000000, 4485.000000)">
                <g id="Ikoner" transform="translate(858.000000, 403.000000)">
                    <g id="Twitter" transform="translate(52.000000, 0.000000)">
                        <ellipse id="Oval-2" fill="#FFFFFF" cx="21" cy="20.5" rx="20.44" ry="20.5"></ellipse>
                        <path d="M32.68,12.8541265 C31.8216705,13.2461538 30.8975266,13.5112659 29.9281352,13.6297202 C30.9180936,13.0205266 31.6777015,12.0545598 32.0355673,10.9038608 C31.1086811,11.4679289 30.0844444,11.8782885 28.99028,12.0982751 C28.1182391,11.1407694 26.8718789,10.5428571 25.4925186,10.5428571 C22.8476023,10.5428571 20.7017785,12.7497739 20.7017785,15.4714028 C20.7017785,15.8577895 20.7429125,16.2328948 20.8251805,16.5938984 C16.8420379,16.3880136 13.3113694,14.4278767 10.9461642,11.4425459 C10.5334531,12.1730142 10.2976181,13.0205266 10.2976181,13.9230356 C10.2976181,15.6321622 11.1436074,17.1410446 12.4297306,18.0252214 C11.6454423,18.0012485 10.9050302,17.7770314 10.2578553,17.4103871 L10.2578553,17.4710244 C10.2578553,19.8598531 11.910071,21.8524239 14.1038845,22.3036785 C13.7021424,22.4193125 13.2784622,22.4771294 12.8410706,22.4771294 C12.5325656,22.4771294 12.2309162,22.4475159 11.9388648,22.3896989 C12.5490192,24.3470154 14.3177813,25.7726977 16.4156154,25.8107723 C14.7757399,27.1335122 12.7080707,27.9217975 10.4635253,27.9217975 C10.0768656,27.9217975 9.69431942,27.8992347 9.32,27.8541093 C11.4411434,29.250178 13.9612866,30.0666667 16.6665328,30.0666667 C25.4829207,30.0666667 30.3024547,22.5575092 30.3024547,16.043932 C30.3024547,15.8295861 30.2983413,15.6152402 30.2901145,15.4051248 C31.2265986,14.7099107 32.0396807,13.8426559 32.68,12.8541265" fill-opacity="0.698794158" fill="#000000"></path>
                    </g>
                </g>
            </g>
        </g>
    </g>
</svg>