<?xml version="1.0" encoding="UTF-8"?>
<svg width="201px" height="201px" viewBox="0 0 201 201" version="1.1" xmlns="http://www.w3.org/2000/svg" xmlns:xlink="http://www.w3.org/1999/xlink">
    <!-- Generator: Sketch 40.3 (33839) - http://www.bohemiancoding.com/sketch -->
    <title>VemBlirDinKompis</title>
    <desc>Created with Sketch.</desc>
    <defs></defs>
    <g id="Page-2" stroke="none" stroke-width="1" fill="none" fill-rule="evenodd">
        <g id="VemBlirDinKompis">
            <g id="kompismatch">
                <polygon id="Shape" points="0 0 201 0 201 201 0 201"></polygon>
                <path d="M79.6866478,117.828602 C79.6866478,120.700029 77.734367,123.030463 75.3288782,123.030463 C72.9233893,123.030463 70.9711086,120.700029 70.9711086,117.828602 C70.9711086,114.957175 72.9233893,112.626741 75.3288782,112.626741 C77.734367,112.626741 79.6866478,114.957175 79.6866478,117.828602 L79.6866478,117.828602 Z M52.6684763,112.626741 C50.2629874,112.626741 48.3107067,114.957175 48.3107067,117.828602 C48.3107067,120.700029 50.2629874,123.030463 52.6684763,123.030463 C55.0739651,123.030463 57.0262459,120.700029 57.0262459,117.828602 C57.0262459,114.957175 55.0739651,112.626741 52.6684763,112.626741 L52.6684763,112.626741 Z M63.9986772,141.597637 C71.7903693,141.597637 74.4573242,133.434184 74.4573242,133.434184 L53.5400302,133.434184 C53.5400302,133.434184 56.4928549,141.597637 63.9986772,141.597637 L63.9986772,141.597637 Z M105.833265,120.64801 C105.833265,126.768866 102.399343,134.488428 94.8935206,137.661563 C87.8339338,148.873306 78.0760161,157.709533 63.9986772,157.709533 C50.660416,157.709533 40.1634206,148.873306 33.1038339,137.661563 C25.5980115,134.48496 22.1640891,126.765399 22.1640891,120.64801 C22.1640891,113.528397 25.169207,107.469964 31.6117336,106.901227 C34.5819893,75.3467403 61.4886019,77.7430641 65.9056372,69.277903 C67.0316848,71.216463 67.5685621,74.725985 65.8359129,77.2055385 C68.8793792,77.0494827 74.0076024,72.6833877 75.4404371,68.3554397 C78.0690437,69.6246937 79.0416979,73.8243291 77.7273946,76.5188929 C79.6169234,76.1616985 85.3517482,72.5307998 88.402187,67.5439494 C90.8007033,72.9642882 88.4928286,79.9001023 85.9339463,84.0893341 L85.8921117,84.092802 C92.153355,90.0125194 95.5872775,98.4117903 96.3856209,106.897759 C102.866496,107.469964 105.833265,113.545737 105.833265,120.64801 L105.833265,120.64801 Z M96.8388289,114.176896 C96.0195682,113.649774 94.9876484,113.778087 94.496092,113.993097 C92.5438112,114.860074 90.2638261,113.778087 89.7130041,111.704278 L89.7095178,111.759765 C88.548608,102.729335 85.7875252,94.9265437 80.6070087,92.4608617 C58.2011005,116.767422 42.8861551,89.2911947 38.9815935,104.699106 C38.6294857,106.717428 38.4028817,108.763493 38.4028817,110.82343 C38.4028817,113.316855 35.8126234,115.016129 33.5012625,113.993097 C33.0131923,113.778087 31.9777862,113.646306 31.1585255,114.176896 C27.6723098,116.434503 28.0418487,128.686619 36.5761047,131.558046 C37.357017,131.821607 38.0159118,132.348729 38.4412301,133.049246 C46.9719998,147.104674 56.656707,150.773719 63.9986772,150.773719 C75.4613544,150.773719 83.5737782,142.905038 89.5596106,133.049246 C89.9849289,132.348729 90.6473099,131.821607 91.424736,131.558046 C99.9555057,128.686619 100.325045,116.434503 96.8388289,114.176896 L96.8388289,114.176896 Z" id="Shape" fill="#000000"></path>
                <path d="M154.579199,75.1366126 C153.167469,59.3762573 142.746925,44.5229493 124.072682,44.5229493 C105.398438,44.5229493 94.9778944,59.3762573 93.5661636,75.1366126 C87.4628902,75.6769115 84.6755426,81.4270017 84.6755426,88.1168845 C84.6755426,93.8637001 87.8765601,101.10698 94.8662692,104.132654 C104.502153,121.720202 119.601106,123.111881 124.072682,123.111881 C128.544257,123.111881 143.64321,121.720202 153.279094,104.132654 C160.268803,101.103705 163.46982,93.8637001 163.46982,88.1168845 C163.46982,81.5055906 160.708738,75.6801861 154.579199,75.1366126 L154.579199,75.1366126 Z M149.900789,98.4185836 C149.093148,98.6903703 148.423396,99.2666892 148.032708,100.026382 C140.133582,115.370871 127.697218,116.562803 124.072682,116.562803 C120.448145,116.562803 108.011781,115.370871 100.112655,100.026382 C99.7219666,99.2699637 99.0522152,98.6936449 98.2445739,98.4185836 C90.2075575,95.7039909 89.8628326,84.1284962 93.1459275,82.0065951 C93.822245,81.5710814 94.754644,81.5678069 95.3488842,81.8330445 C97.5157268,82.7892099 99.9649156,81.2141567 99.9649156,78.840116 L100.030577,76.9867271 C105.949998,75.6572643 114.249662,67.9031564 116.327861,63.7608648 C116.101327,66.5507719 113.402623,74.4162141 109.512156,77.065316 C118.5341,77.065316 130.031499,68.8560472 134.74274,61.2558426 C135.031652,68.0701579 141.683203,74.4063905 147.990028,75.3723794 C148.101653,76.5315662 148.180447,77.6874784 148.180447,78.840116 C148.180447,81.2076076 150.626353,82.7924844 152.796479,81.8330445 C153.259395,81.6267486 154.224625,81.5055906 154.999436,82.0065951 C158.28253,84.1284962 157.937805,95.7039909 149.900789,98.4185836 L149.900789,98.4185836 Z M138.846609,85.4546845 C138.846609,88.1660026 137.008075,90.3664927 134.74274,90.3664927 C132.477404,90.3664927 130.638871,88.1660026 130.638871,85.4546845 C130.638871,82.7433663 132.477404,80.5428762 134.74274,80.5428762 C137.008075,80.5428762 138.846609,82.7433663 138.846609,85.4546845 L138.846609,85.4546845 Z M113.402623,90.3664927 C111.137288,90.3664927 109.298754,88.1660026 109.298754,85.4546845 C109.298754,82.7433663 111.137288,80.5428762 113.402623,80.5428762 C115.667959,80.5428762 117.506492,82.7433663 117.506492,85.4546845 C117.506492,88.1660026 115.667959,90.3664927 113.402623,90.3664927 L113.402623,90.3664927 Z M114.223397,100.190109 L133.921966,100.190109 C133.921966,100.190109 131.410399,107.898373 124.072682,107.898373 C117.004178,107.898373 114.223397,100.190109 114.223397,100.190109 L114.223397,100.190109 Z M179.885295,100.190109 C170.755008,102.799917 167.682031,96.719098 166.752915,87.0919539 C165.1245,70.2215299 163.558464,57.8634204 153.453098,60.0606359 C152.212088,57.2969252 150.695298,54.5495871 148.239543,51.9496033 C151.105685,48.259198 156.555623,44.5229493 162.786937,44.5229493 C186.806059,44.5229493 175.164204,82.1506748 175.164204,90.3664927 C175.164204,95.2783009 176.129434,97.9732463 179.885295,100.190109 L179.885295,100.190109 Z" id="Shape" fill="#000000"></path>
            </g>
        </g>
    </g>
</svg>